<svg width="18" height="18" viewBox="0 0 18 18" fill="none" xmlns="http://www.w3.org/2000/svg">
    <path d="M10.6654 17.125C12.5446 17.125 14.028 17.125 15.1267 16.9614C16.2423 16.7952 17.1473 16.4347 17.647 15.5527L17.7333 15.3868C18.1261 14.5509 17.9653 13.6428 17.564 12.6621C17.2443 11.8808 16.7313 10.9569 16.0829 9.84958L15.3912 8.68017L13.7872 5.97591L13.7489 5.91081C12.83 4.3615 12.1028 3.13607 11.4263 2.30403C10.7361 1.45512 9.98743 0.875 9.00043 0.875C8.01334 0.875033 7.26468 1.45512 6.57445 2.30403C6.06005 2.93673 5.51599 3.79675 4.88093 4.85367L4.21361 5.97591L2.60961 8.68017L2.56973 8.74692C1.61253 10.3607 0.857226 11.6345 0.436759 12.6621C0.00875927 13.7082 -0.145374 14.6715 0.353751 15.5527L0.452218 15.7123C0.967459 16.4791 1.82825 16.8057 2.87409 16.9614C3.9728 17.125 5.45622 17.125 7.33534 17.125H10.6654ZM9.00043 11.0833C8.54018 11.0833 8.16709 10.7102 8.16709 10.25V6.5C8.16709 6.0398 8.54018 5.66672 9.00043 5.66667C9.46059 5.66667 9.83376 6.03976 9.83376 6.5V10.25C9.83376 10.7102 9.46059 11.0833 9.00043 11.0833ZM9.00043 14.0017C8.54018 14.0016 8.16709 13.6285 8.16709 13.1683V13.1602C8.16709 12.6999 8.54018 12.3269 9.00043 12.3268C9.46059 12.3268 9.83376 12.6999 9.83376 13.1602V13.1683C9.83376 13.6285 9.46059 14.0017 9.00043 14.0017Z" fill="white"/>
</svg>
