<svg width="20" height="20" viewBox="0 0 20 20" fill="none" xmlns="http://www.w3.org/2000/svg">
    <path fill-rule="evenodd" clip-rule="evenodd" d="M10.0003 1.04175C5.05278 1.04175 1.04199 5.05253 1.04199 10.0001C1.04199 14.9477 5.05278 18.9584 10.0003 18.9584C14.9479 18.9584 18.9587 14.9477 18.9587 10.0001C18.9587 5.05253 14.9479 1.04175 10.0003 1.04175ZM10.8337 6.66675C10.8337 6.20651 10.4606 5.83341 10.0003 5.83341C9.54008 5.83341 9.16699 6.20651 9.16699 6.66675V10.0001C9.16699 10.2211 9.25483 10.4331 9.41108 10.5893L11.0777 12.256C11.4032 12.5814 11.9308 12.5814 12.2562 12.256C12.5817 11.9306 12.5817 11.4029 12.2562 11.0775L10.8337 9.65491V6.66675Z" fill="#ACACBF"/>
</svg>
