<svg width="20" height="20" viewBox="0 0 20 20" fill="none" xmlns="http://www.w3.org/2000/svg">
    <path d="M12.4452 14.5974L11.9232 14.7713C11.2379 14.9998 10.8952 15.1141 10.7142 14.9331C10.5334 14.7522 10.6476 14.4096 10.8761 13.7241L11.0501 13.2022C11.1116 13.0176 11.1423 12.9254 11.193 12.8434C11.2437 12.7614 11.3125 12.6926 11.4501 12.555L15.4036 8.60156L17.0459 10.2439L13.0924 14.1974C12.9548 14.335 12.8861 14.4037 12.8041 14.4544C12.7221 14.5051 12.6297 14.5358 12.4452 14.5974Z" fill="#ACACBF"/>
    <path d="M17.9298 9.36033L18.4773 8.81283C18.7011 8.589 18.813 8.47708 18.8729 8.35633C18.9868 8.12655 18.9868 7.85681 18.8729 7.62706C18.813 7.50631 18.7011 7.39437 18.4773 7.17051C18.2534 6.94662 18.1414 6.83468 18.0207 6.77484C17.7909 6.66099 17.5212 6.66099 17.2914 6.77484C17.1707 6.83467 17.0588 6.94662 16.8349 7.17048L16.2874 7.718L17.9298 9.36033Z" fill="#ACACBF"/>
    <path fill-rule="evenodd" clip-rule="evenodd" d="M10.0458 1.04199C11.1855 1.04198 12.1041 1.04197 12.8266 1.1391C13.5767 1.23994 14.2082 1.45569 14.7098 1.95728C15.2114 2.45888 15.4272 3.09044 15.528 3.84053C15.6251 4.56301 15.6251 5.48161 15.6251 6.62127V6.90708L10.684 11.848C10.5785 11.9527 10.4242 12.106 10.3065 12.2964C10.2342 12.4134 10.1775 12.5646 10.1594 12.6127L9.86975 13.4485C9.77125 13.7435 9.66392 14.0651 9.61567 14.3361C9.56592 14.6159 9.51025 15.2033 9.97733 15.6704C10.4443 16.1375 11.0318 16.0818 11.3117 16.032C11.5827 15.9838 11.9042 15.8764 12.1992 15.778L13.0349 15.4882C13.0831 15.4702 13.2342 15.4135 13.3513 15.3412C13.5417 15.2235 13.6949 15.0692 13.7997 14.9637L15.6251 13.1382V13.3794C15.6251 14.5191 15.6251 15.4377 15.528 16.1602C15.4272 16.9102 15.2114 17.5417 14.7098 18.0434C14.2082 18.545 13.5767 18.7607 12.8266 18.8616C12.1041 18.9587 11.1855 18.9587 10.0458 18.9587H6.62102C5.48136 18.9587 4.56277 18.9587 3.84029 18.8616C3.0902 18.7607 2.45864 18.545 1.95704 18.0434C1.45544 17.5417 1.2397 16.9102 1.13886 16.1602C1.04172 15.4377 1.04173 14.5191 1.04175 13.3794V6.62125C1.04173 5.4816 1.04172 4.563 1.13886 3.84053C1.2397 3.09044 1.45545 2.45888 1.95704 1.95728C2.45864 1.45569 3.0902 1.23994 3.84029 1.1391C4.56276 1.04197 5.48136 1.04198 6.62101 1.04199H10.0458ZM6.60077 13.4708C6.4949 13.2591 6.27848 13.1253 6.04175 13.1253C5.80502 13.1253 5.5886 13.2591 5.48273 13.4708L4.61381 15.2087H4.16675C3.82157 15.2087 3.54175 15.4885 3.54175 15.8337C3.54175 16.1788 3.82157 16.4587 4.16675 16.4587H5.00008C5.23681 16.4587 5.45323 16.3249 5.5591 16.1132L6.04175 15.1479L6.5244 16.1132C6.63026 16.3249 6.84668 16.4587 7.08342 16.4587H7.91675C8.26192 16.4587 8.54175 16.1788 8.54175 15.8337C8.54175 15.4885 8.26192 15.2087 7.91675 15.2087H7.46969L6.60077 13.4708ZM4.37508 5.00033C4.37508 4.65515 4.65491 4.37533 5.00008 4.37533H11.6667C12.0119 4.37533 12.2917 4.65515 12.2917 5.00033C12.2917 5.3455 12.0119 5.62533 11.6667 5.62533H5.00008C4.65491 5.62533 4.37508 5.3455 4.37508 5.00033ZM5.00008 7.70866C4.65491 7.70866 4.37508 7.98848 4.37508 8.33366C4.37508 8.67883 4.65491 8.95866 5.00008 8.95866H10.0001C10.3452 8.95866 10.6251 8.67883 10.6251 8.33366C10.6251 7.98848 10.3452 7.70866 10.0001 7.70866H5.00008Z" fill="#ACACBF"/>
</svg>
