<svg width="20" height="20" viewBox="0 0 20 20" fill="none" xmlns="http://www.w3.org/2000/svg">
    <path d="M13.3791 6.875C14.5187 6.87498 15.4373 6.87497 16.1598 6.9721C16.9099 7.07295 17.5414 7.28869 18.0431 7.79029C18.5447 8.29189 18.7604 8.92342 18.8612 9.67358C18.9583 10.396 18.9583 11.3146 18.9583 12.4543V13.3791C18.9583 14.5187 18.9583 15.4373 18.8612 16.1598C18.7604 16.9099 18.5447 17.5414 18.0431 18.0431C17.5414 18.5447 16.9099 18.7604 16.1598 18.8612C15.4373 18.9583 14.5187 18.9583 13.3791 18.9583H12.4543C11.3146 18.9583 10.396 18.9583 9.6735 18.8612C8.92342 18.7604 8.29189 18.5447 7.79029 18.043C7.28869 17.5414 7.07295 16.9099 6.9721 16.1598C6.87497 15.4373 6.87498 14.5187 6.875 13.3791V12.4543C6.87498 11.3146 6.87497 10.396 6.9721 9.6735C7.07295 8.92342 7.28869 8.29189 7.79029 7.79029C8.29189 7.28869 8.92342 7.07295 9.67358 6.9721C10.396 6.87497 11.3146 6.87498 12.4543 6.875H13.3791Z" fill="#20203F"/>
    <path d="M5.62508 12.3811C5.62501 11.3026 5.62494 10.3135 5.73333 9.50733C5.85275 8.61908 6.1337 7.67953 6.90649 6.90673C7.67928 6.13394 8.61883 5.85299 9.50708 5.73358C10.3132 5.62518 11.3023 5.62525 12.3808 5.62533H14.2443C14.491 5.62533 14.6143 5.62533 14.6885 5.54548C14.7627 5.46564 14.7538 5.34549 14.7362 5.10519C14.7207 4.89654 14.7011 4.69943 14.676 4.51319C14.5682 3.71357 14.3527 3.04908 13.8932 2.48918C13.7287 2.28876 13.545 2.10498 13.3446 1.94049C12.7537 1.45564 12.0465 1.24245 11.1874 1.14089C10.3505 1.04198 9.29275 1.04198 7.95752 1.04199H7.87599C6.54077 1.04198 5.48297 1.04198 4.64612 1.14089C3.78698 1.24244 3.07973 1.45564 2.48894 1.94049C2.28851 2.10498 2.10473 2.28876 1.94025 2.48918C1.4554 3.07998 1.24221 3.78723 1.14065 4.64637C1.04173 5.48322 1.04174 6.54101 1.04175 7.87623V7.95775C1.04174 9.29299 1.04173 10.3507 1.14065 11.1876C1.2422 12.0467 1.4554 12.754 1.94025 13.3448C2.10473 13.5452 2.28851 13.729 2.48894 13.8935C3.04883 14.353 3.71332 14.5685 4.51295 14.6762C4.69918 14.7013 4.8963 14.721 5.10495 14.7364C5.34525 14.7541 5.4654 14.7629 5.54524 14.6887C5.62508 14.6146 5.62508 14.4912 5.62508 14.2446V12.3811Z" fill="#20203F"/>
</svg>
