<svg width="414" height="680" viewBox="0 0 414 680" fill="none" xmlns="http://www.w3.org/2000/svg">
    <g clip-path="url(#clip0_1881_977)">
        <rect width="414" height="680" fill="url(#paint0_linear_1881_977)"/>
        <g clip-path="url(#clip1_1881_977)">
            <path d="M-2827.25 -151.834L-2827.81 -125.416C-2814.68 -129.825 -2799.55 -137.084 -2789.4 -140.659C-2753.83 -153.169 -2715.69 -155.651 -2678.59 -148.481C-2670.85 -147.02 -2655.2 -143.896 -2631.55 -139.005C-2608.91 -134.436 -2581.31 -132.254 -2564.45 -129.702C-2533.12 -125.048 -2504.83 -112.081 -2475.25 -98.9858C-2447.23 -86.6223 -2421.45 -81.5872 -2391.62 -80.2562C-2372.23 -79.346 -2352.73 -78.7331 -2333.33 -78.2217C-2295.17 -77.3124 -2256.78 -74.3036 -2219.05 -74.9992C-2205 -75.2993 -2188.29 -78.4357 -2175.88 -79.6684C-2161.52 -81.0593 -2145.43 -81.2166 -2127.61 -80.2401C-2095.02 -78.4515 -2062.87 -73.1815 -2031.25 -64.5318C-2003.96 -57.0708 -1976.59 -48.6109 -1950.19 -37.9774C-1942.22 -34.7163 -1932.5 -30.9197 -1921.13 -26.5892C-1896.46 -17.0896 -1873.3 -15.1021 -1847.55 -17.5479C-1817.73 -20.4059 -1788.38 -26.5655 -1758.87 -31.9236C-1722.78 -38.5383 -1686.8 -26.1059 -1650.58 -29.8255C-1633.53 -31.5584 -1615.38 -37.3569 -1598.62 -43.0853C-1586.52 -47.2169 -1577.61 -49.0226 -1566.05 -49.0767C-1544.51 -49.0187 -1525.54 -45.6241 -1504.6 -39.2953C-1487.98 -34.2549 -1471.05 -30.5046 -1453.91 -27.8471C-1433.73 -24.8257 -1416.65 -19.4765 -1395.9 -12.7528C-1367.71 -3.57745 -1337.95 0.644669 -1306.6 0.112923C-1282.46 -0.272654 -1252.53 -3.52753 -1235.97 -4.57232C-1213.93 -5.99991 -1189.16 -6.17236 -1161.63 -5.08971C-1145.47 -4.44757 -1128.42 -2.19067 -1110.29 1.68475C-1086.64 6.77441 -1064.04 9.14878 -1039.89 7.96566C-1021.94 7.14966 -1002.56 4.26958 -984.02 1.96996C-942.686 -3.03757 -894.384 7.76144 -858.54 30.6636C-847.96 37.371 -837.375 43.8789 -825.527 47.5214C-809.822 52.3427 -790.683 52.1504 -774.196 50.6052C-768.082 50.0367 -761.877 49.4703 -755.762 48.8021C-749.556 48.2356 -743.441 47.5675 -737.236 47.001C-731.03 46.4345 -724.827 45.9677 -718.623 45.5008C-712.42 45.034 -706.219 44.6669 -700.019 44.3995C-693.82 44.1321 -687.623 43.9643 -681.428 43.8963C-675.233 43.8282 -668.95 43.9616 -662.762 44.1926C-656.481 44.4256 -650.204 44.858 -644.024 45.4878C-637.751 46.1196 -631.483 46.9507 -625.219 47.9812C-619.047 49.0098 -612.88 50.2378 -606.813 51.8625C-600.747 53.4873 -594.774 55.2098 -588.708 56.8345C-582.641 58.4593 -576.572 59.9844 -570.405 61.2123C-564.33 62.4383 -558.156 63.3672 -551.972 63.7976C-549.756 63.9443 -547.541 64.0912 -545.231 64.1402C-523.332 64.6048 -501.142 64.3774 -479.273 66.2377C-444.023 69.1798 -408.644 74.7178 -373.737 80.7445C-368.302 81.6577 -361.215 83.1047 -352.475 85.0853C-296.443 97.5444 -238.182 100.775 -180.164 98.0167C-147.87 96.5076 -115.492 95.3993 -83.1253 94.7894C-61.2078 94.3568 -39.166 92.4307 -18.7742 85.4828C-2.94583 80.1336 9.07076 75.8007 25.0268 73.1471C42.2827 70.2219 59.3604 66.9937 76.4484 63.267C84.7142 61.4476 92.8098 58.9264 100.923 55.6077C102.508 54.9432 102.618 54.1476 101.16 53.1193C100.887 52.9141 100.152 52.699 98.9554 52.4742C88.8275 50.5637 78.6743 49.8496 68.3108 50.3279C40.0869 51.7239 12.1311 57.9129 -15.6294 63.6073C-30.5775 66.6812 -48.5536 68.6936 -69.8349 69.6384C-109.716 71.4852 -149.689 73.33 -189.572 75.2765C-218.905 76.6489 -250.064 76.9852 -274.063 75.2792C-289.569 74.1523 -301.652 72.8985 -310.125 71.4221C-384.45 58.4752 -453.098 48.1422 -516.071 40.4229C-530.179 38.7273 -547.715 37.4576 -568.593 36.8152C-571.365 36.7564 -574.225 36.4962 -576.993 36.238C-581.607 35.8409 -586.313 35.4418 -590.924 34.945C-597.012 34.3172 -603.1 33.6894 -609.28 33.0596C-615.552 32.4278 -621.825 31.7961 -628.104 31.4634C-630.319 31.3166 -632.537 31.2696 -634.754 31.2226C-673.28 30.2057 -711.855 31.4817 -750.291 34.955C-778.725 37.5433 -805.814 42.0552 -832.502 27.7252C-855.26 15.4734 -876.905 3.04571 -901.851 -6.26044C-931.108 -17.1541 -962.106 -20.1058 -992.606 -15.9655C-1028.02 -11.2313 -1062.62 -9.77123 -1095.57 -16.5543C-1115.45 -20.6663 -1127.97 -23.2258 -1132.94 -24.1292C-1153.2 -27.95 -1173.59 -29.6793 -1194.01 -30.3119C-1208.51 -30.819 -1221.74 -30.2022 -1233.7 -28.4612C-1249.84 -26.1106 -1267 -23.2831 -1282.54 -22.8149C-1307.98 -22.058 -1333.89 -25.1012 -1360.09 -31.9405C-1396.12 -41.3822 -1417.62 -47.8225 -1452.88 -54.5549C-1476.45 -59.0444 -1500.02 -63.4342 -1523.59 -67.7244C-1552.88 -73.0333 -1579.22 -73.3926 -1608.14 -65.2293C-1618.46 -62.3565 -1628.78 -59.4836 -1639.01 -56.7085C-1670.43 -48.1994 -1701.67 -52.9513 -1733.48 -52.4294C-1766.31 -51.929 -1798.22 -42.4329 -1829.99 -34.7291C-1831.29 -34.4575 -1832.5 -34.0842 -1833.8 -33.8126C-1857.12 -28.2234 -1882.76 -26.6728 -1904.93 -36.1195C-1906.31 -36.6474 -1912.34 -39.8673 -1923.03 -45.7791C-1938.84 -54.4924 -1955.43 -60.9285 -1972.82 -65.0873C-2004.73 -72.746 -2025.29 -79.8645 -2051.56 -87.5033C-2083.17 -96.7512 -2115.56 -99.3335 -2148.2 -99.0285C-2188.69 -98.5912 -2229.04 -96.7542 -2269.53 -96.5162C-2302.54 -96.3189 -2335.63 -96.1235 -2368.64 -95.9261C-2399.98 -95.6934 -2430.07 -102.416 -2458.72 -115.89C-2494.41 -132.705 -2519.12 -144.599 -2551.54 -149.875C-2566.65 -152.29 -2585.56 -154.486 -2601.3 -157.513C-2618.98 -160.88 -2639.12 -165.397 -2661.75 -171.063C-2717.28 -185.207 -2775.6 -176.77 -2827.25 -151.834Z" fill="white"/>
            <path d="M256.85 95.7187C240.499 99.5607 227.909 104.779 210.266 112.882C195.517 119.651 180.507 125.616 165.145 130.776C139.541 139.408 114.138 147.247 90.3688 160.906C81.8526 165.811 71.4335 173.27 61.7853 179.249C46.7964 188.606 30.8483 195.249 13.9366 199.378C-5.0185 203.963 -23.2629 201.182 -41.6157 194.809C-67.3096 185.885 -91.2579 173.11 -115.49 160.627C-154.809 140.344 -198.585 129.741 -241.747 125.035C-303.906 118.131 -368.327 108.985 -431.836 113.422C-455.629 115.112 -472.93 115.842 -483.741 115.612C-497.693 115.316 -510.047 113.758 -520.988 110.932C-529.169 108.764 -537.26 106.697 -545.445 104.728C-553.63 102.759 -561.816 100.791 -570.005 99.021C-578.195 97.2514 -586.297 95.6831 -594.587 94.3104C-602.97 92.9357 -611.357 91.7605 -619.753 90.9839C-627.963 90.2113 -636.271 89.6361 -644.492 89.3619C-652.806 89.0858 -661.124 89.009 -669.446 89.1316C-677.676 89.2562 -685.818 89.5822 -694.056 90.1056C-702.015 90.5351 -709.978 91.1641 -717.851 91.8947C-719.611 92.0569 -721.467 92.4164 -723.223 92.3792C-759.347 95.8017 -792.561 110.157 -818.84 137.526C-829.331 148.375 -840.704 161.598 -850.867 170.059C-869.125 185.331 -890.646 193.252 -911.914 202.276C-943.258 215.674 -962.865 237.898 -987.105 265.011C-1015.32 296.528 -1048.79 327.235 -1084.16 351.718C-1098.79 361.78 -1118.39 374.829 -1137.01 372.24C-1156.73 369.428 -1176.7 356.636 -1193.27 344.516C-1208.65 333.318 -1222.32 324.052 -1234.46 316.513C-1273.69 292.243 -1319.46 288.28 -1363.76 289.434C-1397.61 290.312 -1429.31 289.639 -1461.71 278.978C-1482.55 272.153 -1502.53 264.049 -1522.48 254.65C-1535.11 248.697 -1547.94 243.238 -1560.96 238.374C-1564.63 236.999 -1568.3 235.625 -1571.97 234.151C-1575.63 232.677 -1579.39 231.201 -1583.06 229.727C-1586.72 228.253 -1590.39 226.679 -1594.15 225.103C-1597.81 223.529 -1601.47 221.955 -1605.23 220.479C-1608.9 218.905 -1612.65 217.33 -1616.32 215.756C-1619.98 214.182 -1623.74 212.606 -1627.4 211.132C-1631.07 209.559 -1634.83 208.082 -1638.49 206.608C-1642.25 205.132 -1645.92 203.658 -1649.68 202.182C-1653.44 200.706 -1657.11 199.332 -1660.87 198.055C-1664.63 196.679 -1668.39 195.402 -1672.15 194.125C-1675.92 192.848 -1679.68 191.672 -1683.54 190.592C-1687.31 189.415 -1691.17 188.436 -1694.94 187.358C-1698.8 186.379 -1702.57 185.401 -1706.43 184.621C-1710.3 183.741 -1714.17 183.061 -1718.03 182.38C-1722.09 181.696 -1726.23 181.109 -1730.29 180.724C-1734.17 180.342 -1738.04 180.061 -1741.92 179.779C-1745.8 179.597 -1749.68 179.415 -1753.47 179.334C-1757.25 179.254 -1761.14 179.371 -1764.93 179.49C-1768.72 179.609 -1772.52 179.928 -1776.32 180.246C-1780.11 180.564 -1783.92 181.082 -1787.62 181.602C-1791.43 182.219 -1795.14 182.839 -1798.85 183.658C-1802.57 184.476 -1806.29 185.395 -1810 186.413C-1813.72 187.431 -1817.45 188.649 -1821.08 189.968C-1824.81 191.285 -1828.44 192.704 -1832.08 194.323C-1833.01 194.702 -1834.04 195.179 -1834.97 195.658C-1835.44 195.847 -1835.91 196.136 -1836.38 196.326C-1836.56 196.422 -1837.77 196.895 -1837.78 196.994C-1854.21 204.824 -1865.9 211.059 -1872.75 215.901C-1896.39 232.255 -1920.4 248.202 -1944.66 263.545C-1959.09 272.714 -1972.52 282.403 -1986.22 292.286C-1996.92 299.938 -2002.49 305.206 -2008 316.658C-2015.65 332.753 -2025.28 351.299 -2036.92 372.396C-2051.34 398.62 -2067.51 415.731 -2089.49 440.798C-2095.74 447.946 -2100.31 454.033 -2104.72 461.718C-2104.91 462.014 -2104.55 462.42 -2104.27 462.227C-2095.08 456.039 -2085.71 449.954 -2076.25 444.071C-2067.72 438.766 -2061.71 434.505 -2058.04 431.391C-2029.32 406.468 -2014.1 368.99 -1997.21 335.139C-1989.39 319.347 -1979.14 307.097 -1966.66 298.386C-1955.5 290.544 -1940.88 281.379 -1922.72 270.594C-1895.94 254.705 -1868.99 239.219 -1841.86 224.036C-1838.49 222.113 -1835.13 220.289 -1831.76 218.566C-1828.4 216.842 -1825.04 215.218 -1821.58 213.595C-1818.22 212.071 -1814.86 210.646 -1811.41 209.223C-1808.06 207.898 -1804.61 206.675 -1801.16 205.451C-1797.72 204.327 -1794.37 203.301 -1790.84 202.379C-1787.4 201.454 -1783.96 200.63 -1780.43 200.006C-1776.91 199.283 -1773.38 198.76 -1769.86 198.336C-1766.34 197.912 -1762.73 197.589 -1759.12 197.367C-1755.51 197.144 -1751.81 197.123 -1748.21 197.199C-1744.51 197.278 -1740.73 197.558 -1737.03 197.835C-1733.25 198.215 -1729.38 198.596 -1725.6 199.374C-1721.56 200.258 -1717.7 201.437 -1713.75 202.518C-1709.8 203.699 -1705.84 204.781 -1701.9 206.061C-1697.95 207.242 -1694.09 208.521 -1690.14 209.801C-1686.2 211.082 -1682.34 212.46 -1678.49 213.838C-1674.64 215.217 -1670.69 216.597 -1666.84 218.075C-1662.99 219.553 -1659.14 221.031 -1655.29 222.509C-1651.44 224.087 -1647.59 225.665 -1643.83 227.24C-1639.98 228.818 -1636.23 230.494 -1632.47 232.169C-1630.73 232.904 -1628.99 233.739 -1627.26 234.574C-1610.5 242.21 -1593.84 250.044 -1577.18 257.877C-1554.76 268.526 -1532.68 273.483 -1509.58 282.65C-1496.84 287.708 -1482.92 293.688 -1467.9 300.59C-1444.47 311.36 -1419.7 316.074 -1393.6 314.733C-1381.11 314.1 -1368.71 313.266 -1356.2 312.235C-1314.63 308.828 -1275.85 315.336 -1239.92 338.739C-1226.88 347.194 -1214.04 356.243 -1202.72 362.966C-1186.65 372.483 -1170.2 381.11 -1153.35 388.748C-1146.48 391.886 -1142.18 393.773 -1140.44 394.408C-1111.44 404.798 -1073.17 378.282 -1051.12 358.902C-1021.64 332.897 -995.212 302.939 -968.706 273.58C-955.075 258.509 -940.55 244.854 -922.969 235.353C-909.035 227.77 -893.437 220.221 -881.073 212.605C-856.159 197.275 -834.573 177.586 -812.257 158.411C-798.698 146.73 -782.609 137.796 -765.646 131.274C-758.191 128.44 -750.647 125.808 -743.02 123.576C-735.393 121.344 -727.679 119.413 -719.877 117.684C-712.078 116.054 -704.283 114.623 -696.403 113.594C-688.522 112.464 -680.647 111.634 -672.686 111.105C-664.817 110.574 -656.86 110.244 -648.908 110.113C-640.957 110.082 -633.103 110.249 -625.161 110.617C-616.942 110.991 -608.634 111.566 -600.522 112.636C-592.223 113.61 -584.027 115.08 -575.93 116.848C-567.74 118.618 -559.559 120.786 -551.569 123.249C-551.109 123.359 -550.559 123.57 -550.099 123.679C-514.651 134.704 -476.785 149.371 -439.481 138.294C-403.853 127.78 -371.335 128.769 -335.38 133.322C-294.908 138.469 -259.144 143.317 -227.908 148.069C-209.386 150.856 -193.186 154.092 -179.215 157.879C-147.045 166.54 -120.245 179.975 -89.9908 196.176C-72.7157 205.419 -56.5953 212.443 -38.9753 218.502C-31.9995 220.845 -26.3928 222.36 -22.1551 223.048C-6.48963 225.375 9.958 221.336 25.1374 216.072C43.95 209.49 62.3237 201.801 80.261 192.906C102.497 181.808 123.585 168.193 146.437 158.604C170.781 148.349 195.025 138.491 218.496 125.823C232.802 118.148 246.397 109.161 257.658 96.8329C257.488 96.1312 257.222 95.6268 256.85 95.7187Z" fill="white"/>
            <path d="M-1718.47 -128.31L-1719.03 -101.892C-1705.9 -106.301 -1690.77 -113.56 -1680.62 -117.134C-1645.04 -129.645 -1606.9 -132.127 -1569.8 -124.956C-1562.07 -123.496 -1546.42 -120.371 -1522.77 -115.481C-1500.12 -110.911 -1472.53 -108.73 -1455.67 -106.178C-1424.34 -101.524 -1396.05 -88.5561 -1366.47 -75.4614C-1338.44 -63.0978 -1312.67 -58.0628 -1282.84 -56.7317C-1263.44 -55.8216 -1243.95 -55.2087 -1224.55 -54.6973C-1186.39 -53.788 -1148 -50.7792 -1110.27 -51.4747C-1096.21 -51.7749 -1079.51 -54.9113 -1067.09 -56.144C-1052.73 -57.5349 -1036.65 -57.6922 -1018.83 -56.7157C-986.233 -54.9271 -954.083 -49.6571 -922.467 -41.0074C-895.171 -33.5464 -867.803 -25.0865 -841.406 -14.453C-833.433 -11.1919 -823.715 -7.39528 -812.344 -3.06481C-787.679 6.43483 -764.519 8.42226 -738.769 5.97647C-708.942 3.11848 -679.6 -3.04105 -650.091 -8.3992C-613.991 -15.0139 -578.018 -2.58146 -541.795 -6.30112C-524.749 -8.03395 -506.6 -13.8325 -489.84 -19.5609C-477.735 -23.6925 -468.822 -25.4982 -457.266 -25.5522C-435.729 -25.4943 -416.758 -22.0997 -395.816 -15.7708C-379.191 -10.7305 -362.262 -6.9802 -345.124 -4.32265C-324.944 -1.30133 -307.863 4.04794 -287.115 10.7716C-258.93 19.947 -229.162 24.1691 -197.813 23.6373C-173.678 23.2518 -143.751 19.9969 -127.182 18.9521C-105.151 17.5245 -80.3731 17.3521 -52.8488 18.4347C-36.6854 19.0768 -19.6319 21.3337 -1.50338 25.2092C22.1458 30.2988 44.7433 32.6732 68.8953 31.4901C86.8461 30.6741 106.227 27.794 124.764 25.4944C166.099 20.4868 214.401 31.2859 250.244 54.188C260.825 60.8954 271.41 67.4034 283.257 71.0458C298.962 75.8672 318.101 75.6748 334.589 74.1296C340.702 73.5611 346.907 72.9947 353.022 72.3265C359.228 71.76 365.343 71.0919 371.549 70.5254C377.754 69.9589 383.958 69.4921 390.161 69.0253C396.364 68.5584 402.566 68.1913 408.765 67.9239C414.964 67.6565 421.161 67.4887 427.356 67.4207C433.551 67.3526 439.834 67.486 446.023 67.717C452.304 67.95 458.58 68.3824 464.761 69.0122C471.033 69.644 477.301 70.4751 483.565 71.5056C489.737 72.5342 495.904 73.7622 501.971 75.3869C508.038 77.0117 514.01 78.7342 520.076 80.359C526.143 81.9837 532.212 83.5088 538.379 84.7368C544.454 85.9628 550.628 86.8916 556.812 87.322C559.028 87.4688 561.243 87.6156 563.553 87.6646C585.452 88.1292 607.642 87.9018 629.511 89.7621C664.761 92.7042 700.14 98.2422 735.047 104.269C740.482 105.182 747.569 106.629 756.309 108.61C812.341 121.069 870.602 124.3 928.621 121.541C960.914 120.032 993.292 118.924 1025.66 118.314C1047.58 117.881 1069.62 115.955 1090.01 109.007C1105.84 103.658 1117.86 99.3251 1133.81 96.6715C1151.07 93.7463 1168.14 90.5181 1185.23 86.7914C1193.5 84.972 1201.59 82.4508 1209.71 79.1321C1211.29 78.4676 1211.4 77.672 1209.94 76.6437C1209.67 76.4385 1208.94 76.2234 1207.74 75.9986C1197.61 74.0882 1187.46 73.3741 1177.09 73.8523C1148.87 75.2483 1120.92 81.4373 1093.15 87.1317C1078.21 90.2057 1060.23 92.218 1038.95 93.1628C999.068 95.0096 959.095 96.8544 919.212 98.8009C889.879 100.173 858.72 100.51 834.721 98.8036C819.215 97.6767 807.132 96.4229 798.659 94.9465C724.335 81.9996 655.686 71.6666 592.713 63.9473C578.606 62.2517 561.069 60.982 540.191 60.3396C537.419 60.2808 534.559 60.0206 531.791 59.7624C527.178 59.3653 522.471 58.9663 517.86 58.4695C511.772 57.8416 505.685 57.2138 499.504 56.584C493.232 55.9522 486.959 55.3205 480.68 54.9878C478.465 54.8411 476.247 54.794 474.03 54.747C435.504 53.7301 396.929 55.0061 358.493 58.4794C330.059 61.0677 302.97 65.5796 276.282 51.2496C253.524 38.9978 231.879 26.5701 206.933 17.264C177.676 6.37031 146.679 3.41866 116.178 7.55894C80.7653 12.2932 46.1615 13.7532 13.2118 6.97015C-6.66803 2.85809 -19.1855 0.298635 -24.1581 -0.604764C-44.4139 -4.42558 -64.8064 -6.15485 -85.2223 -6.78747C-99.7247 -7.29463 -112.957 -6.67778 -124.919 -4.93682C-141.053 -2.58623 -158.214 0.241331 -173.754 0.709529C-199.191 1.46643 -225.103 -1.57674 -251.303 -8.41606C-287.339 -17.8578 -308.834 -24.2981 -344.095 -31.0304C-367.665 -35.52 -391.237 -39.9098 -414.81 -44.2C-444.094 -49.5089 -470.431 -49.8682 -499.353 -41.7049C-509.675 -38.8321 -519.997 -35.9592 -530.224 -33.1841C-561.65 -24.675 -592.886 -29.4269 -624.697 -28.905C-657.524 -28.4046 -689.432 -18.9084 -721.21 -11.2047C-722.51 -10.9331 -723.72 -10.5598 -725.02 -10.2882C-748.341 -4.699 -773.98 -3.1484 -796.15 -12.5951C-797.525 -13.123 -803.558 -16.3429 -814.248 -22.2547C-830.055 -30.968 -846.65 -37.4041 -864.033 -41.5629C-895.948 -49.2216 -916.503 -56.3401 -942.779 -63.9789C-974.382 -73.2268 -1006.77 -75.809 -1039.41 -75.5041C-1079.91 -75.0668 -1120.25 -73.2298 -1160.75 -72.9918C-1193.75 -72.7944 -1226.85 -72.5991 -1259.86 -72.4017C-1291.2 -72.169 -1321.28 -78.8913 -1349.93 -92.3652C-1385.63 -109.18 -1410.33 -121.074 -1442.76 -126.35C-1457.87 -128.765 -1476.77 -130.962 -1492.52 -133.989C-1510.19 -137.356 -1530.34 -141.872 -1552.96 -147.539C-1608.49 -161.683 -1666.82 -153.246 -1718.47 -128.31Z" fill="white"/>
            <path d="M298.468 125.326C277.462 148.12 254.398 163.389 226.893 174.474C197.149 186.51 167.91 196.561 140.519 215.329C129.356 222.972 118.042 233.404 107.119 242.846C95.1579 253.264 81.0175 261.841 64.6009 268.774C18.6148 288.244 -33.7152 293.018 -80.3485 273.278C-104.169 263.198 -120.12 248.198 -142.842 229.863C-154.384 220.542 -166.918 214.392 -180.349 211.314C-182.096 210.878 -189.284 209.828 -201.816 207.967C-216.56 205.759 -232.139 203.733 -246.043 201.144C-266.576 197.317 -287.001 192.794 -307.228 187.578C-323.317 183.446 -339.638 181.504 -356.194 181.951C-369.42 182.269 -392.698 185.864 -406.029 186.778C-423.526 188.003 -440.958 186.137 -458.051 181.386C-458.236 181.382 -458.416 181.179 -458.318 180.881C-458.313 180.682 -458.125 180.487 -457.94 180.491C-427.479 178.244 -397.02 171.71 -366.937 165.466C-357.56 163.57 -350.418 162.425 -345.515 162.23C-325.716 161.453 -301.261 167.757 -286.353 170.966C-258.011 177.053 -229.538 181.347 -200.754 184.052C-180.643 185.975 -162.105 192.352 -145.238 203.382C-137.488 208.434 -123.47 218.705 -112.725 226.413C-69.3801 257.354 -17.4603 271.92 33.7101 256.449C57.3422 249.271 83.3688 238.153 101.998 222.79C115.549 211.508 124.204 204.411 127.783 201.295C145.198 186.505 164.74 176.048 186.221 170.021C222.767 159.825 255.922 152.55 282.452 122.094C289.557 113.967 301.834 97.3717 311.792 94.1919C313.095 93.8206 314.459 94.8469 314.52 96.3443C314.886 105.229 304.241 118.966 298.468 125.326Z" fill="white"/>
            <path d="M-119.897 115.652C-117.168 109.028 -90.7345 113.578 -85.4092 115.287C-61.899 122.568 -39.2604 131.725 -14.8842 119.975C-6.57189 115.962 3.47758 108.496 11.0401 104.966C20.6566 100.482 30.7831 98.1037 41.5119 97.8327C71.2897 97.2676 95.821 86.9168 123.051 75.7255C141.236 68.2321 161.743 64.5779 181.5 61.4065C184.003 61.0607 186.594 60.9162 189.175 61.2702C190.834 61.5049 191.621 63.616 190.483 64.9882C183.934 73.0277 170.055 78.0194 160.193 81.0017C142.327 86.5072 128.637 91.3032 118.934 95.4858C97.5697 104.707 77.6102 113.06 56.9524 115.116C40.7424 116.667 24.7934 114.633 8.41209 124.259C-0.387597 129.458 -8.64972 135.466 -18.6125 138.846C-50.9202 149.73 -83.6125 135.173 -113.401 123.171C-116.425 121.91 -121.651 119.904 -119.897 115.652Z" fill="white"/>
            <path d="M563.582 190.893C517.082 160.484 455.543 146.213 404.167 171.353C402.392 172.213 395.938 175.767 384.805 182.014C351.783 200.462 317.866 217.496 287.062 240.281C275.416 248.91 263.358 259.526 251.683 269.551C232.85 285.808 208.319 296.159 185.541 306.646C159.31 318.657 139.587 333.299 126.328 361.343C119.261 376.353 112.738 391.873 103.196 405.933C83.3469 435.234 56.2489 461.987 29.261 483.556C6.50284 501.824 -18.0679 509.68 -46.2834 510.677C-62.8439 511.323 -82.6927 510.104 -105.834 507.22C-122.06 505.18 -138.072 501.748 -153.683 496.829C-184.54 487.298 -213.147 476.219 -241.751 482.494C-269.52 488.587 -298.545 510.312 -320.568 528.795C-338.733 544.068 -357.434 558.433 -375.147 574.214C-391.639 589.024 -408.674 603.324 -427.139 615.3C-449.071 629.496 -473.241 640.254 -498.811 642.903C-523.267 645.376 -547.666 640.769 -572.047 639.653C-594.212 638.684 -615.542 641.922 -635.47 653.169C-649.317 660.954 -661.473 671.866 -675.053 680.156C-706.618 699.633 -743.195 706.935 -778.933 713.957C-813.928 720.794 -849.665 727.716 -884.872 722.78C-911.138 719.031 -936.71 708.714 -963.155 709.051C-990.432 709.37 -1016.47 720.985 -1041.32 733.224C-1049.35 737.143 -1057.39 741.261 -1065.43 745.38C-1075.43 750.553 -1068.74 766.753 -1058.57 762.181C-1024.69 746.842 -991.365 727.203 -955.226 727.471C-930.455 727.598 -906.716 737.177 -882.313 741.585C-844.924 748.263 -806.533 742.594 -769.551 733.605C-724.95 722.782 -679.24 707.594 -639.608 682.603C-627.24 674.787 -614.059 663.497 -600.104 659.305C-586.615 655.302 -571.031 657.129 -557.293 658.817C-538.854 661.103 -520.364 665.385 -501.851 664.182C-477.785 662.698 -455.561 652.198 -434.421 640.479C-414.589 629.43 -395.91 616.062 -377.861 601.884C-376.922 601.205 -376.073 600.426 -375.135 599.747C-356.329 584.787 -338.061 569.017 -319.344 553.855C-301.38 539.375 -282.64 523.117 -261.658 514.486C-251.865 510.405 -241.547 507.731 -230.995 507.058C-208.594 505.638 -183.309 512.059 -161.514 517.408C-114.435 529.179 -68.9188 536.229 -22.0212 530.441C7.91453 526.788 33.8573 515.27 57.5923 494.53C89.4301 466.58 117.037 433.256 134.238 393.726C143.08 373.467 150.308 355.169 167.866 342.376C170.12 340.729 176.576 337.075 187.047 331.513C200.229 324.512 212.875 316.701 225.081 307.784C236.725 299.255 251.42 286.301 262.23 277.854C289.207 256.783 317.761 239.835 347.233 223.206C371.557 209.559 395.014 193.201 421.54 184.688C450.672 175.332 478.473 180.809 506.926 190.389C549.787 204.963 588.616 230.92 630.3 248.66C643.035 254.017 653.492 257.829 661.674 259.998C688.703 266.954 716.865 264.161 745.101 262.167C776.301 259.936 807.544 264.389 838.051 273.015C873.153 282.936 897.671 290.637 935.226 298.216C956.855 302.664 973.762 311.8 991.299 326.135C1013.02 343.851 1033.5 363.036 1059.45 372.862C1065.05 374.975 1074.35 376.469 1083.97 376.474C1094.14 376.39 1095.76 360.666 1085.74 358.16C1073.42 355.106 1061.51 349.966 1049.18 342.823C1024.53 328.536 1001.41 311.19 976.952 296.508C960.247 286.579 942.776 277.83 924.215 272.549C906.391 267.384 887.836 266.192 870.025 260.429C854.234 255.306 838.436 250.483 822.637 245.759C801.14 239.419 782.012 239.112 759.772 241.633C743.371 243.479 730.591 244.604 721.435 244.809C700.437 245.46 680.479 245.037 661.677 238.055C629.119 225.895 594.763 211.303 563.582 190.893Z" fill="white"/>
            <path d="M1365.63 119.243C1349.28 123.085 1336.69 128.304 1319.05 136.407C1304.3 143.175 1289.29 149.14 1273.93 154.3C1248.33 162.933 1222.92 170.772 1199.15 184.43C1190.64 189.336 1180.22 196.795 1170.57 202.774C1155.58 212.13 1139.63 218.773 1122.72 222.903C1103.77 227.487 1085.52 224.707 1067.17 218.333C1041.47 209.41 1017.53 196.634 993.295 184.152C953.976 163.869 910.199 153.265 867.037 148.56C804.879 141.656 740.457 132.509 676.949 136.947C653.156 138.636 635.854 139.366 625.043 139.137C611.091 138.841 598.737 137.282 587.797 134.457C579.615 132.288 571.525 130.222 563.339 128.253C555.154 126.284 546.968 124.315 538.779 122.545C530.589 120.776 522.487 119.208 514.197 117.835C505.814 116.46 497.427 115.285 489.032 114.508C480.821 113.736 472.513 113.161 464.292 112.886C455.978 112.61 447.66 112.533 439.338 112.656C431.108 112.781 422.966 113.107 414.728 113.63C406.769 114.06 398.806 114.689 390.933 115.419C389.173 115.581 387.317 115.941 385.561 115.904C349.437 119.326 316.224 133.682 289.945 161.051C279.453 171.899 268.08 185.122 257.917 193.584C239.659 208.855 218.138 216.776 196.87 225.8C165.526 239.198 145.919 261.422 121.679 288.535C93.4633 320.052 59.9955 350.759 24.6261 375.242C9.99191 385.305 -9.60491 398.353 -28.2229 395.764C-47.9455 392.952 -67.9185 380.161 -84.4855 368.04C-99.8703 356.843 -113.54 347.576 -125.674 340.038C-164.909 315.767 -210.675 311.804 -254.978 312.959C-288.83 313.836 -320.523 313.164 -352.928 302.503C-373.767 295.677 -393.747 287.574 -413.7 278.174C-426.33 272.221 -439.156 266.762 -452.179 261.898C-455.848 260.524 -459.516 259.149 -463.183 257.675C-466.849 256.201 -470.608 254.725 -474.274 253.251C-477.941 251.777 -481.605 250.203 -485.361 248.627C-489.025 247.054 -492.69 245.48 -496.448 244.004C-500.113 242.43 -503.869 240.854 -507.534 239.28C-511.198 237.707 -514.954 236.131 -518.621 234.657C-522.285 233.083 -526.044 231.607 -529.71 230.133C-533.469 228.657 -537.135 227.183 -540.894 225.707C-544.653 224.23 -548.321 222.856 -552.084 221.579C-555.845 220.203 -559.608 218.926 -563.371 217.65C-567.134 216.373 -570.899 215.196 -574.758 214.117C-578.523 212.94 -582.385 211.96 -586.152 210.883C-590.014 209.903 -593.783 208.926 -597.649 208.145C-601.513 207.266 -605.381 206.585 -609.249 205.905C-613.302 205.22 -617.449 204.634 -621.509 204.248C-625.383 203.867 -629.26 203.585 -633.136 203.303C-637.015 203.121 -640.893 202.939 -644.682 202.859C-648.47 202.779 -652.355 202.896 -656.148 203.015C-659.94 203.134 -663.737 203.452 -667.534 203.77C-671.331 204.089 -675.132 204.607 -678.84 205.126C-682.643 205.744 -686.354 206.363 -690.069 207.182C-693.784 208.001 -697.501 208.919 -701.221 209.938C-704.94 210.956 -708.663 212.173 -712.296 213.493C-716.022 214.81 -719.657 216.229 -723.297 217.847C-724.229 218.226 -725.256 218.703 -726.191 219.182C-726.657 219.372 -727.125 219.661 -727.591 219.85C-727.778 219.946 -728.99 220.419 -728.992 220.519C-745.428 228.349 -757.115 234.584 -763.966 239.425C-787.608 255.779 -811.611 271.726 -835.878 287.07C-850.309 296.239 -863.733 305.928 -877.439 315.81C-888.14 323.462 -893.706 328.73 -899.218 340.183C-906.862 356.278 -916.499 374.824 -928.132 395.921C-942.555 422.145 -958.725 439.256 -980.703 464.322C-986.956 471.47 -991.522 477.557 -995.937 485.243C-996.128 485.538 -995.767 485.945 -995.486 485.751C-986.295 479.563 -976.922 473.478 -967.461 467.595C-958.936 462.29 -952.93 458.029 -949.259 454.916C-920.536 429.992 -905.32 392.515 -888.424 358.663C-880.602 342.871 -870.358 330.622 -857.879 321.91C-846.712 314.068 -832.097 304.903 -813.935 294.118C-787.16 278.229 -760.208 262.744 -733.079 247.561C-729.71 245.637 -726.344 243.814 -722.979 242.09C-719.615 240.366 -716.252 238.742 -712.798 237.12C-709.437 235.595 -706.079 234.17 -702.629 232.748C-699.273 231.422 -695.827 230.199 -692.38 228.975C-688.936 227.852 -685.587 226.826 -682.054 225.903C-678.614 224.979 -675.177 224.154 -671.651 223.531C-668.123 222.808 -664.599 222.284 -661.077 221.86C-657.555 221.436 -653.943 221.114 -650.333 220.891C-646.723 220.669 -643.025 220.647 -639.422 220.724C-635.726 220.802 -631.942 221.082 -628.25 221.36C-624.468 221.739 -620.594 222.121 -616.82 222.899C-612.771 223.783 -608.914 224.962 -604.962 226.043C-601.012 227.224 -597.06 228.305 -593.112 229.586C-589.162 230.766 -585.307 232.045 -581.36 233.326C-577.412 234.606 -573.558 235.985 -569.705 237.363C-565.852 238.741 -561.906 240.122 -558.055 241.6C-554.204 243.078 -550.353 244.556 -546.502 246.034C-542.653 247.611 -538.804 249.189 -535.047 250.765C-531.198 252.343 -527.444 254.018 -523.689 255.693C-521.948 256.429 -520.21 257.263 -518.471 258.098C-501.716 265.734 -485.059 273.568 -468.401 281.402C-445.979 292.051 -423.898 297.007 -400.798 306.175C-388.056 311.232 -374.132 317.213 -359.118 324.114C-335.682 334.884 -310.915 339.599 -284.819 338.257C-272.326 337.625 -259.921 336.791 -247.42 335.759C-205.842 332.353 -167.063 338.861 -131.138 362.263C-118.098 370.718 -105.256 379.768 -93.9361 386.491C-77.8685 396.007 -61.4123 404.635 -44.5654 412.273C-37.6989 415.411 -33.3942 417.297 -31.6513 417.933C-2.66059 428.322 35.6177 401.806 57.6599 382.426C87.1454 356.422 113.572 326.463 140.078 297.104C153.709 282.034 168.234 268.379 185.815 258.878C199.749 251.294 215.347 243.746 227.711 236.129C252.625 220.799 274.212 201.11 296.527 181.936C310.086 170.255 326.175 161.321 343.138 154.799C350.593 151.965 358.137 149.332 365.764 147.1C373.392 144.868 381.105 142.938 388.907 141.208C396.706 139.578 404.502 138.148 412.381 137.118C420.262 135.989 428.137 135.158 436.099 134.629C443.967 134.098 451.924 133.768 459.877 133.638C467.827 133.607 475.681 133.773 483.623 134.141C491.842 134.515 500.15 135.091 508.262 136.16C516.561 137.134 524.757 138.605 532.854 140.372C541.044 142.142 549.225 144.31 557.215 146.774C557.675 146.883 558.225 147.094 558.685 147.204C594.133 158.229 631.999 172.896 669.303 161.818C704.931 151.304 737.449 152.293 773.404 156.846C813.876 161.993 849.64 166.841 880.876 171.593C899.398 174.38 915.599 177.616 929.569 181.403C961.74 190.065 988.54 203.499 1018.79 219.7C1036.07 228.943 1052.19 235.968 1069.81 242.027C1076.78 244.369 1082.39 245.884 1086.63 246.573C1102.29 248.9 1118.74 244.86 1133.92 239.597C1152.73 233.014 1171.11 225.326 1189.05 216.431C1211.28 205.333 1232.37 191.717 1255.22 182.129C1279.57 171.874 1303.81 162.015 1327.28 149.348C1341.59 141.672 1355.18 132.685 1366.44 120.357C1366.27 119.656 1366.01 119.151 1365.63 119.243Z" fill="white"/>
            <path d="M423.947 350.104C404.721 367.449 379.311 379.975 359.115 399.494C335.237 422.626 320.001 452.323 303.304 481.192C294.574 496.167 283.65 509.998 269.325 518.571C268.575 519.053 267.761 518.238 267.962 517.445C269.068 513.279 270.542 509.121 272.574 504.876C289.711 468.337 309.767 433.655 334.268 402.957C348.609 384.909 364.64 369.99 384.995 360.448C395.825 355.391 408.751 351.776 423.953 349.805C424.232 349.711 424.323 349.812 423.947 350.104Z" fill="white"/>
            <path d="M393.801 285.233C386.455 287.271 379.193 289.71 372.103 292.751C360.911 297.401 350.249 303.259 340.208 310.327C312.426 330.084 290.929 358.651 272.455 388.48C253.696 418.701 237.483 450.871 215.815 478.737C152.514 560.575 43.6294 564.448 -47.5322 560.819C-128.349 557.608 -213.164 551.121 -286.251 588.767C-352.796 623.061 -406.781 692.729 -480.285 697.752C-502.872 699.268 -525.509 694.399 -548.099 696.014C-594.391 699.421 -641.833 722.151 -685.87 736.876L-785.397 770.271C-796.849 774.117 -792.712 792.656 -780.921 790.213C-771.729 788.314 -762.604 785.216 -753.933 781.71C-728.662 771.375 -704.777 756.622 -678.566 749.897C-654.029 743.635 -628.355 744.779 -603.906 738.316C-585.965 733.61 -569.048 724.892 -550.847 720.99C-521.132 714.639 -490.311 721.576 -460.277 717.625C-401.6 709.994 -360.112 662.9 -310.418 634.233C-256.887 603.353 -197.732 581.868 -136.694 580.57C-88.6946 579.494 -40.8651 590.782 7.16812 588.11C54.46 585.523 100.095 569.536 145.171 553.736C167.522 545.933 190.25 537.837 209.147 522.879C253.613 487.917 267.914 423.89 301.268 376.723C342.342 318.65 414.899 288.573 481.258 302.248C522.584 310.705 559.616 334.231 597.957 352.698C620.284 363.445 644.218 372.53 668.366 375.935C675.738 376.989 678.107 365.569 671.041 363.125C629.285 348.775 591.038 321.533 551.708 301.748C523.445 287.584 496.917 278.744 465.605 277.58C441.68 276.774 417.233 278.748 393.801 285.233Z" fill="white"/>
            <path d="M738.769 477.863C714.149 488.013 688.136 494.143 661.938 495.881C614.818 499.07 565.875 496.736 518.93 491.65C493.567 488.918 467.024 485.163 443.328 495.332C400.228 513.867 385.331 566.81 375.889 610.993C373.428 622.411 368.21 633.072 360.727 641.59C357.032 645.8 352.704 649.399 348.199 652.594C338.349 659.367 327.334 664.419 316.258 667.974C304.995 671.625 293.395 673.773 281.723 674.921C271.162 675.994 260.525 676.267 249.9 676.042C201.388 675.112 149.152 671.111 102.956 687.386C88.1464 692.657 66.7417 703.772 48.8707 705.188C42.1108 705.743 26.3925 705.908 1.8039 705.885C-24.6327 705.823 -50.1348 705.282 -75.399 715.318C-103.74 726.586 -129.781 738.401 -160.08 741.747C-171.292 743.005 -182.12 743.574 -192.473 743.553C-230.923 743.336 -263.84 743.735 -299.509 747.466C-309.608 748.549 -321.119 750.798 -326.676 760.055C-327.445 761.435 -326.742 763.146 -325.362 763.474C-324.625 763.59 -323.8 763.906 -322.874 763.826C-299.715 761.525 -278.4 758.985 -253.662 760.707C-238.709 761.722 -218.808 764.837 -205.523 766.116C-168.065 769.504 -132.326 762.483 -97.1809 748.567C-63.9005 735.41 -40.6083 726.828 -9.54124 726.49C23.3738 726.191 52.5528 727.707 83.1387 715.191C87.3348 713.485 96.296 709.386 110.022 702.895C138.315 689.532 167.528 689.454 198.034 693.792C216.097 696.369 227.897 697.916 233.525 698.434C259.541 700.881 286.478 699.159 314.339 693.068C324.925 690.799 335.264 687.128 344.807 681.745C354.348 676.462 363.094 669.467 370.119 660.739C373.633 656.326 376.603 651.402 379.118 646.169C384.63 634.716 387.484 622.21 389.968 609.696C392.353 597.479 394.465 585.057 398.323 573.17C409.977 538.01 435.495 511.623 470.364 506.378C493.084 502.971 516.017 506.948 538.688 510.222C582.094 516.528 626.105 520.454 669.739 515.994C713.373 511.534 756.819 498.493 793.782 472.946C821.459 453.786 846.795 427.294 879.349 422.2C914.779 416.668 948.432 438.228 978.494 459.112C1000.18 474.134 1023.69 489.793 1048.35 495.402C1055.52 497.051 1059.35 486.659 1053.06 482.636C1025.79 465.202 1000.06 444.609 972.027 428.455C935.862 407.641 892.787 394.459 853.761 408.293C828.054 417.422 807.02 437.222 784.224 452.896C769.957 463.066 754.622 471.318 738.769 477.863Z" fill="white"/>
            <path d="M489.735 364.564C431.476 374.3 376.852 413.135 343.002 466.175C323.783 496.287 309.536 531.691 282.264 553.553C237.029 589.895 183.432 571.603 132.391 580.993C79.678 590.746 33.0896 621.174 -20.8889 625.216C-33.5729 626.143 -47.2372 625.355 -59.8768 624.189C-118.835 618.949 -179.763 610.674 -237.152 631.698C-272.927 644.803 -304.474 667.771 -335.104 691.058C-361.879 711.335 -387.225 733.936 -417.473 747.956C-432.412 754.92 -449.455 756.553 -465.264 761.005C-482.096 765.734 -498.767 771.564 -514.558 779.508C-544.458 794.532 -579.468 789.002 -611.359 780.247C-630.841 774.846 -651.753 775.799 -670.935 782.374C-687.791 788.2 -702.807 798.852 -718.615 807.593C-721.047 808.938 -719.836 812.853 -717.148 812.511C-701.566 810.049 -686.604 801.989 -671.25 797.228C-652.268 791.347 -632.007 790.58 -612.684 794.78C-594.835 798.749 -577.816 806.99 -559.737 808.869C-530.22 811.889 -502.379 798.018 -474.998 788.426C-460.841 783.44 -446.857 782.241 -432.457 778.856C-417.221 775.289 -402.293 764.435 -389.704 754.928C-347.429 723.012 -304.872 690.902 -256.485 667.193C-227.155 652.855 -196.406 645.728 -164.148 645.914C-139.192 646.044 -114.266 647.57 -89.3285 648.598C-68.6418 649.536 -47.3611 652.979 -26.697 650.625C15.2802 645.831 53.6459 623.905 94.1016 612.396C103.867 609.611 113.712 607.426 123.723 606.142C150.508 602.821 177.604 606.687 204.541 604.964C248.42 602.006 292.837 582.402 319.704 544.773C331.04 528.956 338.918 510.572 348.526 493.421C382.928 431.716 443.837 384.236 510.528 382.26C546.14 381.221 580.84 392.629 614.606 404.516C648.372 416.402 682.583 429.097 718.141 430.549C748.251 431.787 779.941 423.882 803.199 403.829C808 399.742 804.662 391.493 798.635 392.362C777.307 395.5 756.743 406.235 735.299 410.467C669.86 423.142 608.594 374.168 542.902 363.897C525.114 361.425 507.268 361.645 489.735 364.564Z" fill="white"/>
            <path d="M1672.37 214.418C1625.87 184.008 1564.33 169.737 1512.95 194.878C1511.18 195.738 1504.72 199.291 1493.59 205.538C1460.57 223.987 1426.65 241.021 1395.85 263.805C1384.2 272.435 1372.14 283.05 1360.47 293.075C1341.63 309.332 1317.1 319.683 1294.32 330.171C1268.09 342.181 1248.37 356.823 1235.11 384.867C1228.05 399.877 1221.52 415.398 1211.98 429.458C1192.13 458.758 1165.03 485.511 1138.05 507.08C1115.29 525.348 1090.72 533.205 1062.5 534.202C1045.94 534.848 1026.09 533.629 1002.95 530.744C986.724 528.704 970.712 525.273 955.101 520.354C924.244 510.822 895.637 499.743 867.033 506.018C839.264 512.111 810.239 533.837 788.216 552.319C770.051 567.593 751.35 581.957 733.637 597.739C717.145 612.549 700.11 626.849 681.645 638.824C659.713 653.021 635.543 663.778 609.973 666.427C585.517 668.9 561.118 664.293 536.737 663.178C514.572 662.209 493.242 665.447 473.314 676.693C459.467 684.478 447.311 695.391 433.731 703.68C402.166 723.157 365.589 730.46 329.851 737.481C294.856 744.319 259.119 751.24 223.912 746.304C197.646 742.555 172.074 732.239 145.629 732.575C118.352 732.894 92.315 744.51 67.4662 756.749C59.4332 760.668 51.3959 764.786 43.3587 768.904C33.3578 774.078 40.0396 790.277 50.2126 785.706C84.0938 770.367 117.419 750.727 153.558 750.995C178.329 751.122 202.068 760.702 226.471 765.109C263.86 771.787 302.251 766.119 339.233 757.129C383.833 746.306 429.544 731.119 469.176 706.127C481.544 698.311 494.725 687.021 508.68 682.829C522.169 678.827 537.753 680.653 551.491 682.341C569.93 684.627 588.42 688.909 606.933 687.706C630.999 686.222 653.223 675.723 674.363 664.003C694.195 652.954 712.874 639.587 730.923 625.408C731.862 624.73 732.711 623.95 733.649 623.272C752.455 608.311 770.723 592.541 789.44 577.379C807.403 562.9 826.144 546.641 847.126 538.01C856.919 533.929 867.237 531.256 877.789 530.582C900.19 529.162 925.475 535.583 947.27 540.933C994.349 552.703 1039.86 559.753 1086.76 553.966C1116.7 550.312 1142.64 538.794 1166.38 518.054C1198.21 490.105 1225.82 456.78 1243.02 417.25C1251.86 396.991 1259.09 378.693 1276.65 365.901C1278.9 364.253 1285.36 360.6 1295.83 355.037C1309.01 348.036 1321.66 340.226 1333.87 331.309C1345.51 322.779 1360.2 309.826 1371.01 301.378C1397.99 280.307 1426.55 263.359 1456.02 246.73C1480.34 233.084 1503.8 216.726 1530.32 208.212C1559.46 198.857 1587.26 204.334 1615.71 213.914C1658.57 228.487 1697.4 254.445 1739.08 272.185C1751.82 277.541 1762.28 281.354 1770.46 283.522C1797.49 290.479 1825.65 287.685 1853.89 285.691C1885.08 283.461 1916.33 287.913 1946.83 296.54C1981.94 306.46 2006.45 314.162 2044.01 321.74C2065.64 326.189 2082.55 335.324 2100.08 349.66C2121.8 367.375 2142.28 386.56 2168.24 396.386C2173.83 398.5 2183.14 399.994 2192.75 399.998C2202.92 399.915 2204.55 384.191 2194.52 381.684C2182.2 378.63 2170.29 373.49 2157.97 366.347C2133.31 352.06 2110.2 334.714 2085.74 320.033C2069.03 310.103 2051.56 301.355 2033 296.074C2015.18 290.908 1996.62 289.717 1978.81 283.953C1963.02 278.831 1947.22 274.007 1931.42 269.284C1909.92 262.943 1890.8 262.637 1868.56 265.157C1852.16 267.003 1839.37 268.129 1830.22 268.333C1809.22 268.985 1789.26 268.561 1770.46 261.58C1737.9 249.419 1703.55 234.827 1672.37 214.418Z" fill="white"/>
            <path d="M2474.42 142.768C2458.07 146.61 2445.48 151.828 2427.83 159.931C2413.09 166.7 2398.08 172.665 2382.71 177.824C2357.11 186.457 2331.71 194.296 2307.94 207.954C2299.42 212.86 2289 220.319 2279.35 226.298C2264.36 235.654 2248.42 242.298 2231.5 246.427C2212.55 251.012 2194.31 248.231 2175.95 241.857C2150.26 232.934 2126.31 220.159 2102.08 207.676C2062.76 187.393 2018.98 176.79 1975.82 172.084C1913.66 165.18 1849.24 156.034 1785.73 160.471C1761.94 162.16 1744.64 162.89 1733.83 162.661C1719.87 162.365 1707.52 160.806 1696.58 157.981C1688.4 155.813 1680.31 153.746 1672.12 151.777C1663.94 149.808 1655.75 147.839 1647.56 146.07C1639.37 144.3 1631.27 142.732 1622.98 141.359C1614.6 139.985 1606.21 138.809 1597.82 138.033C1589.6 137.26 1581.3 136.685 1573.08 136.411C1564.76 136.135 1556.44 136.058 1548.12 136.18C1539.89 136.305 1531.75 136.631 1523.51 137.154C1515.55 137.584 1507.59 138.213 1499.72 138.944C1497.96 139.106 1496.1 139.465 1494.35 139.428C1458.22 142.851 1425.01 157.206 1398.73 184.575C1388.24 195.423 1376.86 208.646 1366.7 217.108C1348.44 232.379 1326.92 240.301 1305.65 249.324C1274.31 262.722 1254.7 284.947 1230.46 312.06C1202.25 343.577 1168.78 374.284 1133.41 398.767C1118.78 408.829 1099.18 421.878 1080.56 419.288C1060.84 416.476 1040.87 403.685 1024.3 391.565C1008.91 380.367 995.244 371.101 983.109 363.562C943.875 339.292 898.109 335.329 853.806 336.483C819.954 337.361 788.261 336.688 755.856 326.027C735.017 319.202 715.037 311.098 695.084 301.698C682.454 295.745 669.628 290.287 656.604 285.423C652.936 284.048 649.268 282.674 645.601 281.2C641.935 279.726 638.176 278.25 634.51 276.775C630.843 275.301 627.179 273.728 623.423 272.152C619.758 270.578 616.094 269.004 612.335 267.528C608.671 265.954 604.915 264.379 601.25 262.805C597.586 261.231 593.83 259.655 590.163 258.181C586.499 256.607 582.74 255.131 579.074 253.657C575.315 252.181 571.649 250.707 567.89 249.231C564.131 247.755 560.463 246.38 556.7 245.104C552.939 243.727 549.176 242.451 545.413 241.174C541.65 239.897 537.885 238.72 534.026 237.641C530.261 236.464 526.399 235.485 522.632 234.407C518.77 233.428 515 232.45 511.135 231.67C507.271 230.79 503.403 230.11 499.535 229.429C495.482 228.745 491.334 228.158 487.275 227.773C483.401 227.391 479.524 227.11 475.648 226.828C471.769 226.646 467.891 226.464 464.102 226.383C460.314 226.303 456.429 226.42 452.636 226.539C448.844 226.658 445.047 226.976 441.25 227.295C437.453 227.613 433.652 228.131 429.944 228.651C426.141 229.268 422.43 229.888 418.715 230.706C415 231.525 411.283 232.444 407.563 233.462C403.844 234.48 400.121 235.698 396.488 237.017C392.762 238.334 389.127 239.753 385.487 241.372C384.555 241.751 383.528 242.228 382.593 242.706C382.127 242.896 381.659 243.185 381.192 243.375C381.006 243.471 379.794 243.944 379.792 244.043C363.356 251.873 351.669 258.108 344.818 262.95C321.176 279.304 297.173 295.251 272.906 310.594C258.475 319.763 245.051 329.452 231.345 339.334C220.644 346.987 215.078 352.254 209.566 363.707C201.922 379.802 192.285 398.348 180.652 419.445C166.229 445.669 150.059 462.78 128.081 487.846C121.828 494.995 117.262 501.081 112.847 508.767C112.655 509.062 113.017 509.469 113.298 509.276C122.488 503.087 131.862 497.003 141.323 491.12C149.848 485.815 155.854 481.554 159.525 478.44C188.248 453.517 203.464 416.039 220.36 382.188C228.182 366.396 238.426 354.146 250.905 345.434C262.072 337.593 276.687 328.428 294.849 317.642C321.624 301.754 348.576 286.268 375.705 271.085C379.074 269.162 382.44 267.338 385.805 265.614C389.169 263.89 392.532 262.266 395.986 260.644C399.347 259.12 402.705 257.695 406.155 256.272C409.511 254.947 412.957 253.723 416.404 252.5C419.848 251.376 423.197 250.35 426.73 249.428C430.17 248.503 433.607 247.679 437.133 247.055C440.661 246.332 444.185 245.808 447.707 245.384C451.229 244.961 454.841 244.638 458.451 244.416C462.06 244.193 465.759 244.172 469.362 244.248C473.058 244.327 476.842 244.606 480.534 244.884C484.316 245.264 488.19 245.645 491.964 246.423C496.012 247.307 499.87 248.486 503.822 249.567C507.772 250.748 511.724 251.829 515.672 253.11C519.621 254.291 523.477 255.569 527.424 256.85C531.372 258.131 535.226 259.509 539.079 260.887C542.932 262.266 546.878 263.646 550.729 265.124C554.58 266.602 558.431 268.08 562.282 269.558C566.131 271.136 569.98 272.714 573.737 274.289C577.586 275.867 581.34 277.542 585.095 279.218C586.836 279.953 588.574 280.788 590.313 281.623C607.067 289.259 623.725 297.093 640.383 304.926C662.805 315.575 684.886 320.532 707.986 329.699C720.728 334.757 734.652 340.737 749.666 347.638C773.102 358.409 797.869 363.123 823.965 361.782C836.458 361.149 848.863 360.315 861.364 359.284C902.942 355.877 941.721 362.385 977.646 385.788C990.686 394.243 1003.53 403.292 1014.85 410.015C1030.92 419.532 1047.37 428.159 1064.22 435.797C1071.09 438.935 1075.39 440.822 1077.13 441.457C1106.12 451.846 1144.4 425.331 1166.44 405.951C1195.93 379.946 1222.36 349.987 1248.86 320.629C1262.49 305.558 1277.02 291.903 1294.6 282.402C1308.53 274.819 1324.13 267.27 1336.49 259.653C1361.41 244.324 1383 224.635 1405.31 205.46C1418.87 193.779 1434.96 184.845 1451.92 178.323C1459.38 175.489 1466.92 172.856 1474.55 170.625C1482.18 168.393 1489.89 166.462 1497.69 164.733C1505.49 163.103 1513.29 161.672 1521.17 160.643C1529.05 159.513 1536.92 158.683 1544.88 158.154C1552.75 157.622 1560.71 157.293 1568.66 157.162C1576.61 157.131 1584.47 157.298 1592.41 157.666C1600.63 158.04 1608.93 158.615 1617.05 159.685C1625.34 160.659 1633.54 162.129 1641.64 163.897C1649.83 165.666 1658.01 167.835 1666 170.298C1666.46 170.408 1667.01 170.619 1667.47 170.728C1702.92 181.753 1740.78 196.42 1778.09 185.343C1813.71 174.828 1846.23 175.818 1882.19 180.37C1922.66 185.518 1958.42 190.366 1989.66 195.118C2008.18 197.904 2024.38 201.14 2038.35 204.928C2070.52 213.589 2097.32 227.024 2127.58 243.225C2144.85 252.468 2160.97 259.492 2178.59 265.551C2185.57 267.893 2191.18 269.409 2195.41 270.097C2211.08 272.424 2227.53 268.385 2242.71 263.121C2261.52 256.539 2279.89 248.85 2297.83 239.955C2320.07 228.857 2341.15 215.242 2364 205.653C2388.35 195.398 2412.59 185.54 2436.06 172.872C2450.37 165.197 2463.96 156.21 2475.23 143.882C2475.06 143.18 2474.79 142.676 2474.42 142.768Z" fill="white"/>
            <path d="M1502.59 308.757C1495.24 310.796 1487.98 313.235 1480.89 316.276C1469.7 320.926 1459.03 326.783 1448.99 333.851C1421.21 353.608 1399.71 382.176 1381.24 412.004C1362.48 442.225 1346.27 474.396 1324.6 502.261C1261.3 584.099 1152.41 587.973 1061.25 584.343C980.435 581.132 895.62 574.645 822.533 612.291C755.988 646.585 702.004 716.253 628.499 721.277C605.912 722.792 583.275 717.923 560.685 719.539C514.393 722.945 466.951 745.676 422.914 760.4L323.387 793.795C311.935 797.641 316.072 816.181 327.863 813.738C337.055 811.838 346.18 808.741 354.852 805.234C380.122 794.899 404.007 780.146 430.218 773.421C454.755 767.16 480.429 768.303 504.878 761.84C522.819 757.134 539.736 748.417 557.937 744.514C587.653 738.163 618.473 745.101 648.507 741.15C707.184 733.518 748.672 686.425 798.366 657.757C851.897 626.878 911.052 605.392 972.09 604.094C1020.09 603.018 1067.92 614.306 1115.95 611.635C1163.24 609.048 1208.88 593.06 1253.96 577.261C1276.31 569.457 1299.03 561.362 1317.93 546.403C1362.4 511.441 1376.7 447.414 1410.05 400.248C1451.13 342.175 1523.68 312.097 1590.04 325.773C1631.37 334.23 1668.4 357.755 1706.74 376.222C1729.07 386.969 1753 396.054 1777.15 399.459C1784.52 400.513 1786.89 389.093 1779.83 386.65C1738.07 372.299 1699.82 345.057 1660.49 325.273C1632.23 311.109 1605.7 302.268 1574.39 301.105C1550.46 300.298 1526.02 302.273 1502.59 308.757Z" fill="white"/>
            <path d="M1598.52 388.089C1540.26 397.824 1485.64 436.66 1451.79 489.7C1432.57 519.812 1418.32 555.215 1391.05 577.078C1345.81 613.42 1292.22 595.128 1241.18 604.517C1188.46 614.27 1141.87 644.699 1087.9 648.74C1075.21 649.668 1061.55 648.879 1048.91 647.713C989.949 642.473 929.022 634.199 871.632 655.223C835.857 668.327 804.31 691.295 773.681 714.583C746.905 734.859 721.559 757.461 691.311 771.48C676.373 778.444 659.329 780.077 643.52 784.529C626.688 789.259 610.017 795.089 594.226 803.032C564.326 818.056 529.317 812.526 497.426 803.771C477.943 798.371 457.031 799.323 437.849 805.898C420.994 811.724 405.977 822.377 390.169 831.117C387.737 832.462 388.948 836.377 391.636 836.036C407.219 833.573 422.18 825.513 437.534 820.752C456.516 814.871 476.777 814.104 496.1 818.304C513.949 822.274 530.969 830.514 549.047 832.394C578.564 835.414 606.405 821.542 633.786 811.95C647.943 806.964 661.927 805.765 676.327 802.38C691.563 798.814 706.491 787.96 719.08 778.453C761.355 746.536 803.912 714.426 852.299 690.718C881.629 676.379 912.378 669.252 944.636 669.438C969.592 669.569 994.519 671.095 1019.46 672.123C1040.14 673.06 1061.42 676.504 1082.09 674.15C1124.06 669.355 1162.43 647.429 1202.89 635.92C1212.65 633.135 1222.5 630.95 1232.51 629.666C1259.29 626.345 1286.39 630.211 1313.32 628.489C1357.2 625.53 1401.62 605.927 1428.49 568.297C1439.82 552.48 1447.7 534.096 1457.31 516.946C1491.71 455.24 1552.62 407.761 1619.31 405.785C1654.92 404.745 1689.62 416.153 1723.39 428.04C1757.16 439.927 1791.37 452.621 1826.93 454.074C1857.04 455.311 1888.72 447.406 1911.98 427.354C1916.78 423.266 1913.45 415.017 1907.42 415.887C1886.09 419.025 1865.53 429.759 1844.08 433.992C1778.64 446.666 1717.38 397.692 1651.69 387.422C1633.9 384.95 1616.05 385.17 1598.52 388.089Z" fill="white"/>
            <path d="M738.769 477.863C714.149 488.013 688.136 494.143 661.938 495.881C614.818 499.07 565.875 496.736 518.93 491.65C493.567 488.918 467.024 485.163 443.328 495.332C400.228 513.867 385.331 566.81 375.889 610.993C373.428 622.411 368.21 633.072 360.727 641.59C357.032 645.8 352.704 649.399 348.199 652.594C338.349 659.367 327.334 664.419 316.258 667.974C304.995 671.625 293.395 673.773 281.723 674.921C271.162 675.994 260.525 676.267 249.9 676.042C201.388 675.112 149.152 671.111 102.956 687.386C88.1464 692.657 66.7417 703.772 48.8707 705.188C42.1108 705.743 26.3925 705.908 1.8039 705.885C-24.6327 705.823 -50.1348 705.282 -75.399 715.318C-103.74 726.586 -129.781 738.401 -160.08 741.747C-171.292 743.005 -182.12 743.574 -192.473 743.553C-230.923 743.336 -263.84 743.735 -299.509 747.466C-309.608 748.549 -321.119 750.798 -326.676 760.055C-327.445 761.435 -326.742 763.146 -325.362 763.474C-324.625 763.59 -323.8 763.906 -322.874 763.826C-299.715 761.525 -278.4 758.985 -253.662 760.707C-238.709 761.722 -218.808 764.837 -205.523 766.116C-168.065 769.504 -132.326 762.483 -97.1809 748.567C-63.9005 735.41 -40.6083 726.828 -9.54124 726.49C23.3738 726.191 52.5528 727.707 83.1387 715.191C87.3348 713.485 96.296 709.386 110.022 702.895C138.315 689.532 167.528 689.454 198.034 693.792C216.097 696.369 227.897 697.916 233.525 698.434C259.541 700.881 286.478 699.159 314.339 693.068C324.925 690.799 335.264 687.128 344.807 681.745C354.348 676.462 363.094 669.467 370.119 660.739C373.633 656.326 376.603 651.402 379.118 646.169C384.63 634.716 387.484 622.21 389.968 609.696C392.353 597.479 394.465 585.057 398.323 573.17C409.977 538.01 435.495 511.623 470.364 506.378C493.084 502.971 516.017 506.948 538.688 510.222C582.094 516.528 626.105 520.454 669.739 515.994C713.373 511.534 756.819 498.493 793.782 472.946C821.459 453.786 846.795 427.294 879.349 422.2C914.779 416.668 948.432 438.228 978.494 459.112C1000.18 474.134 1023.69 489.793 1048.35 495.402C1055.52 497.051 1059.35 486.659 1053.06 482.636C1025.79 465.202 1000.06 444.609 972.027 428.455C935.862 407.641 892.787 394.459 853.761 408.293C828.054 417.422 807.02 437.222 784.224 452.896C769.957 463.066 754.622 471.318 738.769 477.863Z" fill="white"/>
            <path d="M-609.855 -96.7104C-610.045 -87.7381 -601.766 -81.4785 -593.932 -84.7034C-585.817 -88.1218 -577.887 -91.5441 -571.833 -93.7096C-536.255 -106.22 -498.117 -108.702 -461.016 -101.532C-453.282 -100.071 -437.633 -96.9463 -413.98 -92.056C-391.337 -87.4864 -363.743 -85.3051 -346.881 -82.7531C-315.55 -78.0989 -287.261 -65.1313 -257.68 -52.0366C-229.656 -39.673 -203.88 -34.6379 -174.05 -33.3069C-154.657 -32.3968 -135.165 -31.7838 -115.763 -31.2725C-77.6045 -30.3631 -39.2132 -27.3543 -1.4828 -28.0499C12.5745 -28.3501 29.2804 -31.4864 41.6935 -32.7191C56.0513 -34.11 72.1392 -34.2675 89.9594 -33.291C122.553 -31.5024 154.703 -26.2323 186.319 -17.5825C213.615 -10.1215 240.983 -1.66163 267.38 8.97188C275.353 12.2329 285.071 16.0295 296.442 20.36C321.107 29.8597 344.267 31.8471 370.017 29.4013C399.844 26.5433 429.186 20.3838 458.695 15.0256C494.795 8.41098 530.768 20.8434 566.991 17.1237C584.037 15.3909 602.186 9.59221 618.946 3.86384C631.051 -0.267776 639.964 -2.07338 651.52 -2.12741C673.057 -2.06942 692.028 1.32518 712.97 7.65399C729.595 12.6944 746.524 16.4446 763.662 19.1022C783.842 22.1235 800.923 27.4728 821.671 34.1964C849.856 43.3718 879.625 47.5939 910.973 47.0622C935.108 46.6766 965.035 43.4217 981.604 42.3769C1003.64 40.9493 1028.41 40.7769 1055.94 41.8595C1072.1 42.5017 1089.15 44.7584 1107.28 48.6339C1130.93 53.7235 1153.53 56.098 1177.68 54.9149C1195.63 54.0989 1215.01 51.2188 1233.55 48.9192C1274.88 43.9117 1323.19 54.7107 1359.03 77.6128C1369.61 84.3202 1380.2 90.8282 1392.04 94.4706C1407.75 99.292 1426.89 99.0996 1443.37 97.5544C1449.49 96.986 1455.69 96.4195 1461.81 95.7513C1468.01 95.1848 1474.13 94.5166 1480.33 93.9501C1486.54 93.3836 1492.74 92.9169 1498.95 92.4501C1505.15 91.9833 1511.35 91.6162 1517.55 91.3487C1523.75 91.0813 1529.95 90.9136 1536.14 90.8455C1542.34 90.7775 1548.62 90.9108 1554.81 91.1418C1561.09 91.3748 1567.37 91.8071 1573.55 92.4369C1579.82 93.0687 1586.09 93.8999 1592.35 94.9305C1598.52 95.9591 1604.69 97.187 1610.76 98.8118C1616.82 100.437 1622.8 102.159 1628.86 103.784C1634.93 105.409 1641 106.934 1647.17 108.162C1653.24 109.388 1659.41 110.316 1665.6 110.747C1667.81 110.894 1670.03 111.04 1672.34 111.089C1694.24 111.554 1716.43 111.327 1738.3 113.187C1773.55 116.129 1808.93 121.667 1843.83 127.694C1849.27 128.607 1856.36 130.054 1865.1 132.034C1921.13 144.494 1979.39 147.724 2037.41 144.966C2069.7 143.457 2102.08 142.348 2134.45 141.739C2156.36 141.306 2178.4 139.38 2198.8 132.432C2214.62 127.083 2226.64 122.75 2242.6 120.096C2259.85 117.171 2276.93 113.943 2294.02 110.216C2302.28 108.397 2310.38 105.876 2318.49 102.557C2320.08 101.892 2320.19 101.097 2318.73 100.069C2318.46 99.8633 2317.72 99.6483 2316.53 99.4234C2306.4 97.513 2296.24 96.7989 2285.88 97.2772C2257.66 98.6731 2229.7 104.862 2201.94 110.557C2186.99 113.63 2169.02 115.643 2147.74 116.588C2107.85 118.434 2067.88 120.279 2028 122.226C1998.67 123.598 1967.51 123.934 1943.51 122.228C1928 121.101 1915.92 119.848 1907.45 118.371C1833.12 105.424 1764.47 95.0914 1701.5 87.3722C1687.39 85.6765 1669.86 84.4069 1648.98 83.7644C1646.21 83.7056 1643.35 83.4454 1640.58 83.1872C1635.96 82.7901 1631.26 82.3911 1626.65 81.8943C1620.56 81.2665 1614.47 80.6386 1608.29 80.0088C1602.02 79.377 1595.75 78.7453 1589.47 78.4126C1587.25 78.2659 1585.03 78.2187 1582.82 78.1717C1544.29 77.1548 1505.72 78.431 1467.28 81.9042C1438.84 84.4925 1411.76 89.0044 1385.07 74.6744C1362.31 62.4226 1340.67 49.995 1315.72 40.6888C1286.46 29.7952 1255.46 26.8435 1224.96 30.9838C1189.55 35.718 1154.95 37.178 1122 30.395C1102.12 26.2829 1089.6 23.7235 1084.63 22.8201C1064.37 18.9992 1043.98 17.27 1023.56 16.6374C1009.06 16.1302 995.829 16.7471 983.868 18.488C967.733 20.8386 950.572 23.6662 935.032 24.1344C909.595 24.8913 883.683 21.8481 857.483 15.0088C821.447 5.56708 799.952 -0.873255 764.691 -7.60561C741.121 -12.0952 717.55 -16.485 693.976 -20.7751C664.693 -26.0841 638.355 -26.4434 609.433 -18.2802C599.111 -15.4073 588.789 -12.5344 578.562 -9.75926C547.136 -1.25017 515.9 -6.00219 484.089 -5.48025C451.262 -4.97987 419.354 4.5164 387.576 12.2201C386.276 12.4917 385.066 12.865 383.766 13.1367C360.445 18.7258 334.806 20.2763 312.636 10.8296C311.261 10.3017 305.228 7.08195 294.538 1.17013C278.731 -7.54317 262.136 -13.9793 244.753 -18.1381C212.838 -25.7968 192.283 -32.9152 166.007 -40.554C134.404 -49.802 102.012 -52.3842 69.3742 -52.0793C28.876 -51.6419 -11.4669 -49.805 -51.9607 -49.567C-84.9661 -49.3696 -118.064 -49.1742 -151.069 -48.9768C-182.412 -48.7442 -212.497 -55.4664 -241.145 -68.9403C-276.84 -85.7553 -301.546 -97.6495 -333.973 -102.925C-349.082 -105.34 -367.986 -107.537 -383.729 -110.564C-401.406 -113.931 -421.555 -118.448 -444.175 -124.114C-497.046 -137.404 -552.659 -130.405 -602.499 -107.924C-606.974 -106.124 -609.749 -101.695 -609.855 -96.7104Z" fill="white"/>
        </g>
    </g>
    <defs>
        <linearGradient id="paint0_linear_1881_977" x1="30.236" y1="49.4186" x2="552.981" y2="353.915" gradientUnits="userSpaceOnUse">
            <stop/>
            <stop offset="0.998555" stop-color="#1F1D3E"/>
        </linearGradient>
        <clipPath id="clip0_1881_977">
            <rect width="414" height="680" fill="white"/>
        </clipPath>
        <clipPath id="clip1_1881_977">
            <rect width="1196.58" height="1109.03" fill="white" transform="translate(-360 1154.31) rotate(-88.7846)"/>
        </clipPath>
    </defs>
</svg>
