<svg width="414" height="680" viewBox="0 0 414 680" fill="none" xmlns="http://www.w3.org/2000/svg">
    <g clip-path="url(#clip0_1862_154)">
        <rect width="414" height="680" fill="url(#paint0_linear_1862_154)"/>
        <g clip-path="url(#clip1_1862_154)">
            <path d="M-2827.25 -151.835L-2827.81 -125.417C-2814.68 -129.826 -2799.55 -137.085 -2789.4 -140.66C-2753.83 -153.17 -2715.69 -155.652 -2678.59 -148.482C-2670.85 -147.021 -2655.2 -143.897 -2631.55 -139.006C-2608.91 -134.437 -2581.31 -132.255 -2564.45 -129.703C-2533.12 -125.049 -2504.83 -112.082 -2475.25 -98.9868C-2447.23 -86.6232 -2421.45 -81.5882 -2391.62 -80.2571C-2372.23 -79.347 -2352.73 -78.7341 -2333.33 -78.2227C-2295.17 -77.3134 -2256.78 -74.3046 -2219.05 -75.0001C-2205 -75.3003 -2188.29 -78.4367 -2175.88 -79.6694C-2161.52 -81.0603 -2145.43 -81.2176 -2127.61 -80.2411C-2095.02 -78.4525 -2062.87 -73.1825 -2031.25 -64.5328C-2003.96 -57.0718 -1976.59 -48.6118 -1950.19 -37.9783C-1942.22 -34.7173 -1932.5 -30.9207 -1921.13 -26.5902C-1896.46 -17.0906 -1873.3 -15.1031 -1847.55 -17.5489C-1817.73 -20.4069 -1788.38 -26.5664 -1758.87 -31.9246C-1722.78 -38.5392 -1686.8 -26.1069 -1650.58 -29.8265C-1633.53 -31.5593 -1615.38 -37.3579 -1598.62 -43.0863C-1586.52 -47.2179 -1577.61 -49.0236 -1566.05 -49.0776C-1544.51 -49.0196 -1525.54 -45.625 -1504.6 -39.2962C-1487.98 -34.2559 -1471.05 -30.5056 -1453.91 -27.848C-1433.73 -24.8267 -1416.65 -19.4775 -1395.9 -12.7538C-1367.71 -3.57843 -1337.95 0.643693 -1306.6 0.111946C-1282.46 -0.273631 -1252.53 -3.52851 -1235.97 -4.5733C-1213.93 -6.00089 -1189.16 -6.17333 -1161.63 -5.09068C-1145.47 -4.44854 -1128.42 -2.19165 -1110.29 1.68377C-1086.64 6.77343 -1064.04 9.1478 -1039.89 7.96469C-1021.94 7.14869 -1002.56 4.2686 -984.02 1.96898C-942.686 -3.03854 -894.384 7.76047 -858.54 30.6626C-847.96 37.37 -837.375 43.878 -825.527 47.5204C-809.822 52.3418 -790.683 52.1494 -774.196 50.6042C-768.082 50.0357 -761.877 49.4693 -755.762 48.8011C-749.556 48.2346 -743.441 47.5665 -737.236 47C-731.03 46.4335 -724.827 45.9667 -718.623 45.4999C-712.42 45.0331 -706.219 44.6659 -700.019 44.3985C-693.82 44.1311 -687.623 43.9633 -681.428 43.8953C-675.233 43.8273 -668.95 43.9606 -662.762 44.1916C-656.481 44.4246 -650.204 44.857 -644.024 45.4868C-637.751 46.1186 -631.483 46.9497 -625.219 47.9803C-619.047 49.0088 -612.88 50.2368 -606.813 51.8616C-600.747 53.4863 -594.774 55.2088 -588.708 56.8336C-582.641 58.4583 -576.572 59.9834 -570.405 61.2114C-564.33 62.4374 -558.156 63.3662 -551.972 63.7966C-549.756 63.9434 -547.541 64.0902 -545.231 64.1392C-523.332 64.6038 -501.142 64.3764 -479.273 66.2367C-444.023 69.1788 -408.644 74.7168 -373.737 80.7435C-368.302 81.6567 -361.215 83.1037 -352.475 85.0844C-296.443 97.5435 -238.182 100.774 -180.164 98.0157C-147.87 96.5066 -115.492 95.3983 -83.1253 94.7885C-61.2078 94.3558 -39.166 92.4297 -18.7742 85.4818C-2.94583 80.1326 9.07076 75.7997 25.0268 73.1461C42.2827 70.2209 59.3604 66.9927 76.4484 63.266C84.7142 61.4466 92.8098 58.9254 100.923 55.6067C102.508 54.9422 102.618 54.1466 101.16 53.1184C100.887 52.9131 100.152 52.698 98.9554 52.4732C88.8275 50.5628 78.6743 49.8487 68.3108 50.327C40.0869 51.7229 12.1311 57.9119 -15.6294 63.6063C-30.5775 66.6803 -48.5536 68.6926 -69.8349 69.6375C-109.716 71.4842 -149.689 73.329 -189.572 75.2755C-218.905 76.6479 -250.064 76.9842 -274.063 75.2782C-289.569 74.1513 -301.652 72.8975 -310.125 71.4212C-384.45 58.4742 -453.098 48.1412 -516.071 40.422C-530.179 38.7263 -547.715 37.4566 -568.593 36.8142C-571.365 36.7554 -574.225 36.4952 -576.993 36.237C-581.607 35.8399 -586.313 35.4409 -590.924 34.9441C-597.012 34.3162 -603.1 33.6884 -609.28 33.0586C-615.552 32.4268 -621.825 31.7951 -628.104 31.4624C-630.319 31.3157 -632.537 31.2686 -634.754 31.2216C-673.28 30.2047 -711.855 31.4808 -750.291 34.954C-778.725 37.5423 -805.814 42.0542 -832.502 27.7242C-855.26 15.4724 -876.905 3.04473 -901.851 -6.26141C-931.108 -17.1551 -962.106 -20.1067 -992.606 -15.9665C-1028.02 -11.2322 -1062.62 -9.7722 -1095.57 -16.5552C-1115.45 -20.6673 -1127.97 -23.2268 -1132.94 -24.1302C-1153.2 -27.951 -1173.59 -29.6802 -1194.01 -30.3129C-1208.51 -30.82 -1221.74 -30.2032 -1233.7 -28.4622C-1249.84 -26.1116 -1267 -23.2841 -1282.54 -22.8159C-1307.98 -22.059 -1333.89 -25.1021 -1360.09 -31.9414C-1396.12 -41.3831 -1417.62 -47.8235 -1452.88 -54.5558C-1476.45 -59.0454 -1500.02 -63.4352 -1523.59 -67.7254C-1552.88 -73.0343 -1579.22 -73.3936 -1608.14 -65.2303C-1618.46 -62.3574 -1628.78 -59.4846 -1639.01 -56.7095C-1670.43 -48.2004 -1701.67 -52.9523 -1733.48 -52.4304C-1766.31 -51.93 -1798.22 -42.4338 -1829.99 -34.7301C-1831.29 -34.4585 -1832.5 -34.0852 -1833.8 -33.8136C-1857.12 -28.2244 -1882.76 -26.6738 -1904.93 -36.1205C-1906.31 -36.6484 -1912.34 -39.8683 -1923.03 -45.7801C-1938.84 -54.4934 -1955.43 -60.9295 -1972.82 -65.0883C-2004.73 -72.747 -2025.29 -79.8655 -2051.56 -87.5043C-2083.17 -96.7522 -2115.56 -99.3344 -2148.2 -99.0295C-2188.69 -98.5922 -2229.04 -96.7552 -2269.53 -96.5172C-2302.54 -96.3198 -2335.63 -96.1245 -2368.64 -95.9271C-2399.98 -95.6944 -2430.07 -102.417 -2458.72 -115.891C-2494.41 -132.706 -2519.12 -144.6 -2551.54 -149.876C-2566.65 -152.291 -2585.56 -154.487 -2601.3 -157.514C-2618.98 -160.881 -2639.12 -165.398 -2661.75 -171.064C-2717.28 -185.208 -2775.6 -176.771 -2827.25 -151.835Z" fill="white"/>
            <path d="M256.85 95.7177C240.499 99.5598 227.909 104.778 210.266 112.881C195.517 119.65 180.507 125.615 165.145 130.775C139.541 139.407 114.138 147.246 90.3688 160.905C81.8526 165.81 71.4335 173.269 61.7853 179.248C46.7964 188.605 30.8483 195.248 13.9366 199.377C-5.0185 203.962 -23.2629 201.181 -41.6157 194.808C-67.3096 185.884 -91.2579 173.109 -115.49 160.626C-154.809 140.343 -198.585 129.74 -241.747 125.034C-303.906 118.13 -368.327 108.984 -431.836 113.421C-455.629 115.111 -472.93 115.841 -483.741 115.611C-497.693 115.315 -510.047 113.757 -520.988 110.931C-529.169 108.763 -537.26 106.696 -545.445 104.727C-553.63 102.758 -561.816 100.79 -570.005 99.02C-578.195 97.2504 -586.297 95.6822 -594.587 94.3094C-602.97 92.9347 -611.357 91.7595 -619.753 90.9829C-627.963 90.2103 -636.271 89.6351 -644.492 89.361C-652.806 89.0848 -661.124 89.008 -669.446 89.1307C-677.676 89.2553 -685.818 89.5812 -694.056 90.1046C-702.015 90.5342 -709.978 91.1632 -717.851 91.8938C-719.611 92.0559 -721.467 92.4154 -723.223 92.3782C-759.347 95.8007 -792.561 110.156 -818.84 137.525C-829.331 148.374 -840.704 161.597 -850.867 170.058C-869.125 185.33 -890.646 193.251 -911.914 202.275C-943.258 215.673 -962.865 237.897 -987.105 265.01C-1015.32 296.527 -1048.79 327.234 -1084.16 351.717C-1098.79 361.779 -1118.39 374.828 -1137.01 372.239C-1156.73 369.427 -1176.7 356.635 -1193.27 344.515C-1208.65 333.317 -1222.32 324.051 -1234.46 316.512C-1273.69 292.242 -1319.46 288.279 -1363.76 289.433C-1397.61 290.311 -1429.31 289.638 -1461.71 278.977C-1482.55 272.152 -1502.53 264.048 -1522.48 254.649C-1535.11 248.696 -1547.94 243.237 -1560.96 238.373C-1564.63 236.998 -1568.3 235.624 -1571.97 234.15C-1575.63 232.676 -1579.39 231.2 -1583.06 229.726C-1586.72 228.252 -1590.39 226.678 -1594.15 225.102C-1597.81 223.528 -1601.47 221.954 -1605.23 220.478C-1608.9 218.905 -1612.65 217.329 -1616.32 215.755C-1619.98 214.181 -1623.74 212.605 -1627.4 211.131C-1631.07 209.558 -1634.83 208.081 -1638.49 206.607C-1642.25 205.131 -1645.92 203.657 -1649.68 202.181C-1653.44 200.705 -1657.11 199.331 -1660.87 198.054C-1664.63 196.678 -1668.39 195.401 -1672.15 194.124C-1675.92 192.847 -1679.68 191.671 -1683.54 190.591C-1687.31 189.414 -1691.17 188.435 -1694.94 187.357C-1698.8 186.378 -1702.57 185.4 -1706.43 184.62C-1710.3 183.74 -1714.17 183.06 -1718.03 182.379C-1722.09 181.695 -1726.23 181.108 -1730.29 180.723C-1734.17 180.341 -1738.04 180.06 -1741.92 179.778C-1745.8 179.596 -1749.68 179.414 -1753.47 179.333C-1757.25 179.253 -1761.14 179.37 -1764.93 179.489C-1768.72 179.608 -1772.52 179.927 -1776.32 180.245C-1780.11 180.563 -1783.92 181.081 -1787.62 181.601C-1791.43 182.218 -1795.14 182.838 -1798.85 183.657C-1802.57 184.475 -1806.29 185.394 -1810 186.412C-1813.72 187.43 -1817.45 188.648 -1821.08 189.967C-1824.81 191.284 -1828.44 192.703 -1832.08 194.322C-1833.01 194.701 -1834.04 195.178 -1834.97 195.657C-1835.44 195.846 -1835.91 196.136 -1836.38 196.325C-1836.56 196.421 -1837.77 196.894 -1837.78 196.993C-1854.21 204.823 -1865.9 211.058 -1872.75 215.9C-1896.39 232.254 -1920.4 248.201 -1944.66 263.544C-1959.09 272.713 -1972.52 282.402 -1986.22 292.285C-1996.92 299.937 -2002.49 305.205 -2008 316.657C-2015.65 332.752 -2025.28 351.298 -2036.92 372.395C-2051.34 398.619 -2067.51 415.73 -2089.49 440.797C-2095.74 447.945 -2100.31 454.032 -2104.72 461.717C-2104.91 462.013 -2104.55 462.419 -2104.27 462.226C-2095.08 456.038 -2085.71 449.953 -2076.25 444.07C-2067.72 438.765 -2061.71 434.504 -2058.04 431.39C-2029.32 406.467 -2014.1 368.989 -1997.21 335.138C-1989.39 319.346 -1979.14 307.096 -1966.66 298.385C-1955.5 290.543 -1940.88 281.378 -1922.72 270.593C-1895.94 254.704 -1868.99 239.218 -1841.86 224.035C-1838.49 222.112 -1835.13 220.288 -1831.76 218.565C-1828.4 216.841 -1825.04 215.217 -1821.58 213.594C-1818.22 212.07 -1814.86 210.645 -1811.41 209.222C-1808.06 207.897 -1804.61 206.674 -1801.16 205.45C-1797.72 204.326 -1794.37 203.3 -1790.84 202.378C-1787.4 201.453 -1783.96 200.629 -1780.43 200.005C-1776.91 199.282 -1773.38 198.759 -1769.86 198.335C-1766.34 197.911 -1762.73 197.588 -1759.12 197.366C-1755.51 197.143 -1751.81 197.122 -1748.21 197.198C-1744.51 197.277 -1740.73 197.557 -1737.03 197.834C-1733.25 198.214 -1729.38 198.595 -1725.6 199.373C-1721.56 200.257 -1717.7 201.436 -1713.75 202.517C-1709.8 203.698 -1705.84 204.78 -1701.9 206.06C-1697.95 207.241 -1694.09 208.52 -1690.14 209.8C-1686.2 211.081 -1682.34 212.459 -1678.49 213.837C-1674.64 215.216 -1670.69 216.596 -1666.84 218.074C-1662.99 219.552 -1659.14 221.03 -1655.29 222.508C-1651.44 224.086 -1647.59 225.664 -1643.83 227.24C-1639.98 228.817 -1636.23 230.493 -1632.47 232.168C-1630.73 232.903 -1628.99 233.738 -1627.26 234.573C-1610.5 242.209 -1593.84 250.043 -1577.18 257.876C-1554.76 268.525 -1532.68 273.482 -1509.58 282.649C-1496.84 287.707 -1482.92 293.687 -1467.9 300.589C-1444.47 311.359 -1419.7 316.073 -1393.6 314.732C-1381.11 314.099 -1368.71 313.265 -1356.2 312.234C-1314.63 308.827 -1275.85 315.335 -1239.92 338.738C-1226.88 347.193 -1214.04 356.242 -1202.72 362.965C-1186.65 372.482 -1170.2 381.109 -1153.35 388.748C-1146.48 391.885 -1142.18 393.772 -1140.44 394.407C-1111.44 404.797 -1073.17 378.281 -1051.12 358.901C-1021.64 332.896 -995.212 302.938 -968.706 273.579C-955.075 258.508 -940.55 244.853 -922.969 235.352C-909.035 227.769 -893.437 220.221 -881.073 212.604C-856.159 197.274 -834.573 177.585 -812.257 158.41C-798.698 146.729 -782.609 137.795 -765.646 131.273C-758.191 128.439 -750.647 125.807 -743.02 123.575C-735.393 121.343 -727.679 119.412 -719.877 117.683C-712.078 116.053 -704.283 114.622 -696.403 113.593C-688.522 112.463 -680.647 111.633 -672.686 111.104C-664.817 110.573 -656.86 110.243 -648.908 110.112C-640.957 110.081 -633.103 110.248 -625.161 110.616C-616.942 110.99 -608.634 111.565 -600.522 112.635C-592.223 113.609 -584.027 115.079 -575.93 116.847C-567.74 118.617 -559.559 120.785 -551.569 123.248C-551.109 123.358 -550.559 123.569 -550.099 123.678C-514.651 134.703 -476.785 149.37 -439.481 138.293C-403.853 127.779 -371.335 128.768 -335.38 133.321C-294.908 138.468 -259.144 143.316 -227.908 148.068C-209.386 150.855 -193.186 154.091 -179.215 157.878C-147.045 166.539 -120.245 179.974 -89.9908 196.175C-72.7157 205.418 -56.5953 212.442 -38.9753 218.501C-31.9995 220.844 -26.3928 222.359 -22.1551 223.047C-6.48963 225.374 9.958 221.335 25.1374 216.072C43.95 209.489 62.3237 201.8 80.261 192.905C102.497 181.807 123.585 168.192 146.437 158.603C170.781 148.348 195.025 138.49 218.496 125.823C232.802 118.147 246.397 109.16 257.658 96.8319C257.488 96.1302 257.222 95.6259 256.85 95.7177Z" fill="white"/>
            <path d="M-1718.47 -128.311L-1719.03 -101.893C-1705.9 -106.302 -1690.77 -113.561 -1680.62 -117.135C-1645.04 -129.646 -1606.9 -132.128 -1569.8 -124.957C-1562.07 -123.497 -1546.42 -120.372 -1522.77 -115.482C-1500.12 -110.912 -1472.53 -108.731 -1455.67 -106.179C-1424.34 -101.525 -1396.05 -88.5571 -1366.47 -75.4624C-1338.44 -63.0988 -1312.67 -58.0638 -1282.84 -56.7327C-1263.44 -55.8226 -1243.95 -55.2096 -1224.55 -54.6983C-1186.39 -53.789 -1148 -50.7802 -1110.27 -51.4757C-1096.21 -51.7759 -1079.51 -54.9122 -1067.09 -56.1449C-1052.73 -57.5359 -1036.65 -57.6932 -1018.83 -56.7167C-986.233 -54.9281 -954.083 -49.6581 -922.467 -41.0083C-895.171 -33.5473 -867.803 -25.0874 -841.406 -14.4539C-833.433 -11.1929 -823.715 -7.39626 -812.344 -3.06579C-787.679 6.43386 -764.519 8.42129 -738.769 5.9755C-708.942 3.1175 -679.6 -3.04203 -650.091 -8.40018C-613.991 -15.0148 -578.018 -2.58244 -541.795 -6.30209C-524.749 -8.03493 -506.6 -13.8335 -489.84 -19.5618C-477.735 -23.6935 -468.822 -25.4992 -457.266 -25.5532C-435.729 -25.4952 -416.758 -22.1006 -395.816 -15.7718C-379.191 -10.7315 -362.262 -6.98118 -345.124 -4.32363C-324.944 -1.30231 -307.863 4.04696 -287.115 10.7706C-258.93 19.946 -229.162 24.1681 -197.813 23.6364C-173.678 23.2508 -143.751 19.9959 -127.182 18.9511C-105.151 17.5235 -80.3731 17.3511 -52.8488 18.4337C-36.6854 19.0759 -19.6319 21.3328 -1.50338 25.2082C22.1458 30.2978 44.7433 32.6722 68.8953 31.4891C86.8461 30.6731 106.227 27.793 124.764 25.4934C166.099 20.4859 214.401 31.2849 250.244 54.187C260.825 60.8944 271.41 67.4024 283.257 71.0448C298.962 75.8662 318.101 75.6738 334.589 74.1286C340.702 73.5601 346.907 72.9937 353.022 72.3255C359.228 71.759 365.343 71.0909 371.549 70.5244C377.754 69.9579 383.958 69.4911 390.161 69.0243C396.364 68.5575 402.566 68.1904 408.765 67.9229C414.964 67.6555 421.161 67.4877 427.356 67.4197C433.551 67.3517 439.834 67.485 446.023 67.716C452.304 67.949 458.58 68.3814 464.761 69.0112C471.033 69.643 477.301 70.4741 483.565 71.5047C489.737 72.5332 495.904 73.7612 501.971 75.386C508.038 77.0107 514.01 78.7332 520.076 80.358C526.143 81.9828 532.212 83.5078 538.379 84.7358C544.454 85.9618 550.628 86.8906 556.812 87.321C559.028 87.4678 561.243 87.6146 563.553 87.6636C585.452 88.1282 607.642 87.9008 629.511 89.7611C664.761 92.7032 700.14 98.2412 735.047 104.268C740.482 105.181 747.569 106.628 756.309 108.609C812.341 121.068 870.602 124.299 928.621 121.54C960.914 120.031 993.292 118.923 1025.66 118.313C1047.58 117.88 1069.62 115.954 1090.01 109.006C1105.84 103.657 1117.86 99.3241 1133.81 96.6705C1151.07 93.7453 1168.14 90.5171 1185.23 86.7904C1193.5 84.9711 1201.59 82.4498 1209.71 79.1312C1211.29 78.4666 1211.4 77.6711 1209.94 76.6428C1209.67 76.4375 1208.94 76.2225 1207.74 75.9976C1197.61 74.0872 1187.46 73.3731 1177.09 73.8514C1148.87 75.2473 1120.92 81.4363 1093.15 87.1308C1078.21 90.2047 1060.23 92.2171 1038.95 93.1619C999.068 95.0086 959.095 96.8534 919.212 98.7999C889.879 100.172 858.72 100.509 834.721 98.8026C819.215 97.6758 807.132 96.4219 798.659 94.9456C724.335 81.9986 655.686 71.6656 592.713 63.9464C578.606 62.2507 561.069 60.981 540.191 60.3386C537.419 60.2798 534.559 60.0196 531.791 59.7614C527.178 59.3643 522.471 58.9653 517.86 58.4685C511.772 57.8406 505.685 57.2128 499.504 56.583C493.232 55.9512 486.959 55.3195 480.68 54.9868C478.465 54.8401 476.247 54.7931 474.03 54.746C435.504 53.7291 396.929 55.0052 358.493 58.4784C330.059 61.0667 302.97 65.5786 276.282 51.2486C253.524 38.9968 231.879 26.5691 206.933 17.263C177.676 6.36934 146.679 3.41768 116.178 7.55796C80.7653 12.2922 46.1615 13.7522 13.2118 6.96917C-6.66803 2.85711 -19.1855 0.297658 -24.1581 -0.60574C-44.4139 -4.42656 -64.8064 -6.15582 -85.2223 -6.78845C-99.7247 -7.29561 -112.957 -6.67876 -124.919 -4.9378C-141.053 -2.58721 -158.214 0.240354 -173.754 0.708553C-199.191 1.46545 -225.103 -1.57772 -251.303 -8.41704C-287.339 -17.8587 -308.834 -24.2991 -344.095 -31.0314C-367.665 -35.521 -391.237 -39.9108 -414.81 -44.2009C-444.094 -49.5099 -470.431 -49.8691 -499.353 -41.7059C-509.675 -38.833 -519.997 -35.9602 -530.224 -33.1851C-561.65 -24.676 -592.886 -29.4279 -624.697 -28.9059C-657.524 -28.4056 -689.432 -18.9094 -721.21 -11.2057C-722.51 -10.9341 -723.72 -10.5608 -725.02 -10.2892C-748.341 -4.69997 -773.98 -3.14938 -796.15 -12.5961C-797.525 -13.124 -803.558 -16.3439 -814.248 -22.2557C-830.055 -30.969 -846.65 -37.4051 -864.033 -41.5639C-895.948 -49.2226 -916.503 -56.3411 -942.779 -63.9799C-974.382 -73.2278 -1006.77 -75.81 -1039.41 -75.5051C-1079.91 -75.0677 -1120.25 -73.2308 -1160.75 -72.9928C-1193.75 -72.7954 -1226.85 -72.6001 -1259.86 -72.4027C-1291.2 -72.17 -1321.28 -78.8922 -1349.93 -92.3661C-1385.63 -109.181 -1410.33 -121.075 -1442.76 -126.351C-1457.87 -128.766 -1476.77 -130.963 -1492.52 -133.99C-1510.19 -137.357 -1530.34 -141.873 -1552.96 -147.54C-1608.49 -161.684 -1666.82 -153.247 -1718.47 -128.311Z" fill="white"/>
            <path d="M298.467 125.325C277.462 148.119 254.398 163.388 226.893 174.473C197.149 186.509 167.909 196.56 140.519 215.328C129.356 222.971 118.042 233.403 107.119 242.845C95.1576 253.263 81.0173 261.84 64.6007 268.773C18.6145 288.243 -33.7155 293.017 -80.3488 273.277C-104.169 263.197 -120.121 248.197 -142.842 229.862C-154.384 220.541 -166.918 214.391 -180.349 211.313C-182.096 210.877 -189.284 209.827 -201.816 207.966C-216.56 205.758 -232.139 203.732 -246.043 201.143C-266.576 197.316 -287.002 192.793 -307.228 187.577C-323.317 183.446 -339.638 181.503 -356.194 181.95C-369.42 182.268 -392.699 185.863 -406.029 186.777C-423.527 188.002 -440.958 186.136 -458.051 181.385C-458.236 181.381 -458.417 181.178 -458.318 180.881C-458.314 180.681 -458.125 180.486 -457.94 180.49C-427.479 178.243 -397.02 171.709 -366.937 165.465C-357.561 163.569 -350.418 162.424 -345.515 162.229C-325.716 161.452 -301.261 167.756 -286.354 170.965C-258.011 177.052 -229.538 181.346 -200.754 184.051C-180.643 185.974 -162.105 192.351 -145.238 203.381C-137.488 208.433 -123.47 218.704 -112.725 226.412C-69.3804 257.353 -17.4605 271.919 33.7098 256.448C57.342 249.27 83.3685 238.152 101.998 222.789C115.548 211.507 124.204 204.41 127.782 201.294C145.198 186.504 164.74 176.047 186.221 170.02C222.767 159.824 255.922 152.549 282.451 122.093C289.557 113.966 301.834 97.3707 311.792 94.191C313.094 93.8196 314.459 94.8459 314.52 96.3433C314.886 105.228 304.241 118.965 298.467 125.325Z" fill="white"/>
            <path d="M-119.897 115.651C-117.168 109.027 -90.7345 113.577 -85.4092 115.286C-61.899 122.567 -39.2604 131.724 -14.8842 119.974C-6.57189 115.961 3.47758 108.495 11.0401 104.965C20.6566 100.481 30.7831 98.1028 41.5119 97.8317C71.2897 97.2666 95.821 86.9158 123.051 75.7246C141.236 68.2311 161.743 64.5769 181.5 61.4055C184.003 61.0597 186.594 60.9153 189.175 61.2692C190.834 61.5039 191.621 63.615 190.483 64.9872C183.934 73.0267 170.055 78.0184 160.193 81.0007C142.327 86.5062 128.637 91.3022 118.934 95.4848C97.5697 104.706 77.6102 113.059 56.9524 115.115C40.7424 116.666 24.7934 114.632 8.41209 124.258C-0.387597 129.457 -8.64972 135.466 -18.6125 138.845C-50.9202 149.729 -83.6125 135.172 -113.401 123.17C-116.425 121.909 -121.651 119.903 -119.897 115.651Z" fill="white"/>
            <path d="M563.582 190.892C517.082 160.483 455.543 146.212 404.167 171.352C402.392 172.212 395.938 175.766 384.805 182.013C351.783 200.461 317.866 217.495 287.062 240.28C275.416 248.909 263.358 259.525 251.683 269.55C232.85 285.807 208.319 296.158 185.541 306.645C159.31 318.656 139.587 333.298 126.328 361.342C119.261 376.352 112.738 391.872 103.196 405.932C83.3469 435.233 56.2489 461.986 29.261 483.555C6.50284 501.823 -18.0679 509.679 -46.2834 510.676C-62.8439 511.322 -82.6927 510.103 -105.834 507.219C-122.06 505.179 -138.072 501.747 -153.683 496.828C-184.54 487.297 -213.147 476.218 -241.751 482.493C-269.52 488.586 -298.545 510.311 -320.568 528.794C-338.733 544.067 -357.434 558.432 -375.147 574.213C-391.639 589.024 -408.674 603.323 -427.139 615.299C-449.071 629.495 -473.241 640.253 -498.811 642.902C-523.267 645.375 -547.666 640.768 -572.047 639.652C-594.212 638.683 -615.542 641.921 -635.47 653.168C-649.317 660.953 -661.473 671.865 -675.053 680.155C-706.618 699.632 -743.195 706.934 -778.933 713.956C-813.928 720.793 -849.665 727.715 -884.872 722.779C-911.138 719.03 -936.71 708.713 -963.155 709.05C-990.432 709.369 -1016.47 720.984 -1041.32 733.223C-1049.35 737.142 -1057.39 741.26 -1065.43 745.379C-1075.43 750.552 -1068.74 766.752 -1058.57 762.18C-1024.69 746.841 -991.365 727.202 -955.226 727.47C-930.455 727.597 -906.716 737.176 -882.313 741.584C-844.924 748.262 -806.533 742.593 -769.551 733.604C-724.95 722.781 -679.24 707.593 -639.608 682.602C-627.24 674.786 -614.059 663.496 -600.104 659.304C-586.615 655.301 -571.031 657.128 -557.293 658.816C-538.854 661.102 -520.364 665.384 -501.851 664.181C-477.785 662.697 -455.561 652.197 -434.421 640.478C-414.589 629.429 -395.91 616.061 -377.861 601.883C-376.922 601.204 -376.073 600.425 -375.135 599.746C-356.329 584.786 -338.061 569.016 -319.344 553.854C-301.38 539.374 -282.64 523.116 -261.658 514.485C-251.865 510.404 -241.547 507.73 -230.995 507.057C-208.594 505.637 -183.309 512.058 -161.514 517.407C-114.435 529.178 -68.9188 536.228 -22.0212 530.44C7.91453 526.787 33.8573 515.269 57.5923 494.529C89.4301 466.579 117.037 433.255 134.238 393.725C143.08 373.466 150.308 355.168 167.866 342.375C170.12 340.728 176.576 337.075 187.047 331.512C200.229 324.511 212.875 316.7 225.081 307.783C236.725 299.254 251.42 286.3 262.23 277.853C289.207 256.782 317.761 239.834 347.233 223.205C371.557 209.558 395.014 193.2 421.54 184.687C450.672 175.331 478.473 180.808 506.926 190.388C549.787 204.962 588.616 230.919 630.3 248.659C643.035 254.016 653.492 257.828 661.674 259.997C688.703 266.953 716.865 264.16 745.101 262.166C776.301 259.935 807.544 264.388 838.051 273.014C873.153 282.935 897.671 290.636 935.226 298.215C956.855 302.663 973.762 311.799 991.299 326.134C1013.02 343.85 1033.5 363.035 1059.45 372.861C1065.05 374.974 1074.35 376.468 1083.97 376.473C1094.14 376.389 1095.76 360.666 1085.74 358.159C1073.42 355.105 1061.51 349.965 1049.18 342.822C1024.53 328.535 1001.41 311.189 976.952 296.507C960.247 286.578 942.776 277.829 924.215 272.548C906.391 267.383 887.836 266.191 870.025 260.428C854.234 255.305 838.436 250.482 822.637 245.758C801.14 239.418 782.012 239.112 759.772 241.632C743.371 243.478 730.591 244.603 721.435 244.808C700.437 245.46 680.479 245.036 661.677 238.055C629.119 225.894 594.763 211.302 563.582 190.892Z" fill="white"/>
            <path d="M1365.63 119.242C1349.28 123.084 1336.69 128.303 1319.05 136.406C1304.3 143.174 1289.29 149.139 1273.93 154.299C1248.33 162.932 1222.92 170.771 1199.15 184.429C1190.64 189.335 1180.22 196.794 1170.57 202.773C1155.58 212.129 1139.63 218.772 1122.72 222.902C1103.77 227.486 1085.52 224.706 1067.17 218.332C1041.47 209.409 1017.53 196.633 993.295 184.151C953.976 163.868 910.199 153.264 867.037 148.559C804.879 141.655 740.457 132.508 676.949 136.946C653.156 138.635 635.854 139.365 625.043 139.136C611.091 138.84 598.737 137.281 587.797 134.456C579.615 132.287 571.525 130.221 563.339 128.252C555.154 126.283 546.968 124.314 538.779 122.544C530.589 120.775 522.487 119.207 514.197 117.834C505.814 116.459 497.427 115.284 489.032 114.507C480.821 113.735 472.513 113.16 464.292 112.885C455.978 112.609 447.66 112.532 439.338 112.655C431.108 112.78 422.966 113.106 414.728 113.629C406.769 114.059 398.806 114.688 390.933 115.418C389.173 115.58 387.317 115.94 385.561 115.903C349.437 119.325 316.224 133.681 289.945 161.05C279.453 171.898 268.08 185.121 257.917 193.583C239.659 208.854 218.138 216.775 196.87 225.799C165.526 239.197 145.919 261.421 121.679 288.534C93.4633 320.051 59.9955 350.758 24.6261 375.241C9.99191 385.304 -9.60491 398.352 -28.2229 395.763C-47.9455 392.951 -67.9185 380.16 -84.4855 368.039C-99.8703 356.842 -113.54 347.575 -125.674 340.037C-164.909 315.766 -210.675 311.803 -254.978 312.958C-288.83 313.835 -320.523 313.163 -352.928 302.502C-373.767 295.676 -393.747 287.573 -413.7 278.173C-426.33 272.22 -439.156 266.761 -452.179 261.897C-455.848 260.523 -459.516 259.148 -463.183 257.674C-466.849 256.2 -470.608 254.724 -474.274 253.25C-477.941 251.776 -481.605 250.202 -485.361 248.626C-489.025 247.053 -492.69 245.479 -496.448 244.003C-500.113 242.429 -503.869 240.853 -507.534 239.279C-511.198 237.706 -514.954 236.13 -518.621 234.656C-522.285 233.082 -526.044 231.606 -529.71 230.132C-533.469 228.656 -537.135 227.182 -540.894 225.706C-544.653 224.23 -548.321 222.855 -552.084 221.578C-555.845 220.202 -559.608 218.925 -563.371 217.649C-567.134 216.372 -570.899 215.195 -574.758 214.116C-578.523 212.939 -582.385 211.959 -586.152 210.882C-590.014 209.902 -593.783 208.925 -597.649 208.145C-601.513 207.265 -605.381 206.584 -609.249 205.904C-613.302 205.219 -617.449 204.633 -621.509 204.247C-625.383 203.866 -629.26 203.584 -633.136 203.302C-637.015 203.12 -640.893 202.938 -644.682 202.858C-648.47 202.778 -652.355 202.895 -656.148 203.014C-659.94 203.133 -663.737 203.451 -667.534 203.769C-671.331 204.088 -675.132 204.606 -678.84 205.125C-682.643 205.743 -686.354 206.362 -690.069 207.181C-693.784 208 -697.501 208.918 -701.221 209.937C-704.94 210.955 -708.663 212.172 -712.296 213.492C-716.022 214.809 -719.657 216.228 -723.297 217.846C-724.229 218.225 -725.256 218.702 -726.191 219.181C-726.657 219.371 -727.125 219.66 -727.591 219.85C-727.778 219.945 -728.99 220.418 -728.992 220.518C-745.428 228.348 -757.115 234.583 -763.966 239.424C-787.608 255.778 -811.611 271.725 -835.878 287.069C-850.309 296.238 -863.733 305.927 -877.439 315.809C-888.14 323.461 -893.706 328.729 -899.218 340.182C-906.862 356.277 -916.499 374.823 -928.132 395.92C-942.555 422.144 -958.725 439.255 -980.703 464.321C-986.956 471.469 -991.522 477.556 -995.937 485.242C-996.128 485.537 -995.767 485.944 -995.486 485.75C-986.295 479.562 -976.922 473.477 -967.461 467.594C-958.936 462.289 -952.93 458.028 -949.259 454.915C-920.536 429.991 -905.32 392.514 -888.424 358.662C-880.602 342.87 -870.358 330.621 -857.879 321.909C-846.712 314.067 -832.097 304.902 -813.935 294.117C-787.16 278.229 -760.208 262.743 -733.079 247.56C-729.71 245.637 -726.344 243.813 -722.979 242.089C-719.615 240.365 -716.252 238.741 -712.798 237.119C-709.437 235.594 -706.079 234.169 -702.629 232.747C-699.273 231.421 -695.827 230.198 -692.38 228.975C-688.936 227.851 -685.587 226.825 -682.054 225.902C-678.614 224.978 -675.177 224.153 -671.651 223.53C-668.123 222.807 -664.599 222.283 -661.077 221.859C-657.555 221.435 -653.943 221.113 -650.333 220.89C-646.723 220.668 -643.025 220.646 -639.422 220.723C-635.726 220.801 -631.942 221.081 -628.25 221.359C-624.468 221.738 -620.594 222.12 -616.82 222.898C-612.771 223.782 -608.914 224.961 -604.962 226.042C-601.012 227.223 -597.06 228.304 -593.112 229.585C-589.162 230.765 -585.307 232.044 -581.36 233.325C-577.412 234.605 -573.558 235.984 -569.705 237.362C-565.852 238.74 -561.906 240.121 -558.055 241.599C-554.204 243.077 -550.353 244.555 -546.502 246.033C-542.653 247.61 -538.804 249.188 -535.047 250.764C-531.198 252.342 -527.444 254.017 -523.689 255.692C-521.948 256.428 -520.21 257.262 -518.471 258.097C-501.716 265.733 -485.059 273.567 -468.401 281.401C-445.979 292.05 -423.898 297.006 -400.798 306.174C-388.056 311.231 -374.132 317.212 -359.118 324.113C-335.682 334.883 -310.915 339.598 -284.819 338.256C-272.326 337.624 -259.921 336.79 -247.42 335.758C-205.842 332.352 -167.063 338.86 -131.138 362.262C-118.098 370.717 -105.256 379.767 -93.9361 386.49C-77.8685 396.006 -61.4123 404.634 -44.5654 412.272C-37.6989 415.41 -33.3942 417.296 -31.6513 417.932C-2.66059 428.321 35.6177 401.805 57.6599 382.425C87.1454 356.421 113.572 326.462 140.078 297.103C153.709 282.033 168.234 268.378 185.815 258.877C199.749 251.293 215.347 243.745 227.711 236.128C252.625 220.798 274.212 201.109 296.527 181.935C310.086 170.254 326.175 161.32 343.138 154.798C350.593 151.964 358.137 149.331 365.764 147.099C373.392 144.867 381.105 142.937 388.907 141.207C396.706 139.577 404.502 138.147 412.381 137.117C420.262 135.988 428.137 135.158 436.099 134.628C443.967 134.097 451.924 133.767 459.877 133.637C467.827 133.606 475.681 133.773 483.623 134.14C491.842 134.514 500.15 135.09 508.262 136.159C516.561 137.133 524.757 138.604 532.854 140.371C541.044 142.141 549.225 144.309 557.215 146.773C557.675 146.882 558.225 147.093 558.685 147.203C594.133 158.228 631.999 172.895 669.303 161.817C704.931 151.303 737.449 152.292 773.404 156.845C813.876 161.992 849.64 166.84 880.876 171.592C899.398 174.379 915.599 177.615 929.569 181.402C961.74 190.064 988.54 203.498 1018.79 219.699C1036.07 228.942 1052.19 235.967 1069.81 242.026C1076.78 244.368 1082.39 245.883 1086.63 246.572C1102.29 248.899 1118.74 244.859 1133.92 239.596C1152.73 233.013 1171.11 225.325 1189.05 216.43C1211.28 205.332 1232.37 191.716 1255.22 182.128C1279.57 171.873 1303.81 162.014 1327.28 149.347C1341.59 141.671 1355.18 132.684 1366.44 120.356C1366.27 119.655 1366.01 119.15 1365.63 119.242Z" fill="white"/>
            <path d="M423.947 350.103C404.721 367.448 379.311 379.974 359.115 399.493C335.237 422.625 320.001 452.322 303.304 481.191C294.574 496.166 283.65 509.997 269.325 518.57C268.575 519.052 267.761 518.237 267.962 517.444C269.068 513.278 270.542 509.12 272.574 504.875C289.711 468.336 309.767 433.654 334.268 402.956C348.609 384.908 364.64 369.989 384.995 360.447C395.825 355.391 408.751 351.775 423.953 349.804C424.232 349.71 424.323 349.811 423.947 350.103Z" fill="white"/>
            <path d="M393.801 285.232C386.455 287.27 379.193 289.709 372.103 292.75C360.911 297.4 350.249 303.258 340.208 310.326C312.426 330.083 290.929 358.65 272.455 388.479C253.696 418.7 237.483 450.87 215.815 478.736C152.514 560.574 43.6294 564.447 -47.5322 560.818C-128.349 557.607 -213.164 551.12 -286.251 588.766C-352.796 623.06 -406.781 692.728 -480.285 697.751C-502.872 699.267 -525.509 694.398 -548.099 696.013C-594.391 699.42 -641.833 722.15 -685.87 736.875L-785.397 770.27C-796.849 774.116 -792.712 792.655 -780.921 790.212C-771.729 788.313 -762.604 785.215 -753.933 781.709C-728.662 771.374 -704.777 756.621 -678.566 749.896C-654.029 743.634 -628.355 744.778 -603.906 738.315C-585.965 733.609 -569.048 724.892 -550.847 720.989C-521.132 714.638 -490.311 721.575 -460.277 717.624C-401.6 709.993 -360.112 662.899 -310.418 634.232C-256.887 603.352 -197.732 581.867 -136.694 580.569C-88.6946 579.493 -40.8651 590.781 7.16812 588.109C54.46 585.522 100.095 569.535 145.171 553.736C167.522 545.932 190.25 537.836 209.147 522.878C253.613 487.916 267.914 423.889 301.268 376.722C342.342 318.649 414.899 288.572 481.258 302.247C522.584 310.704 559.616 334.23 597.957 352.697C620.284 363.444 644.218 372.529 668.366 375.934C675.738 376.988 678.107 365.568 671.041 363.124C629.285 348.774 591.038 321.532 551.708 301.747C523.445 287.583 496.917 278.743 465.605 277.58C441.68 276.773 417.233 278.747 393.801 285.232Z" fill="white"/>
            <path d="M738.769 477.863C714.149 488.013 688.136 494.143 661.938 495.881C614.818 499.07 565.875 496.736 518.93 491.65C493.567 488.918 467.024 485.163 443.328 495.332C400.228 513.867 385.331 566.81 375.889 610.993C373.428 622.411 368.21 633.072 360.727 641.59C357.032 645.8 352.704 649.399 348.199 652.594C338.349 659.367 327.334 664.419 316.258 667.974C304.995 671.625 293.395 673.773 281.723 674.921C271.162 675.994 260.525 676.267 249.9 676.042C201.388 675.112 149.152 671.111 102.956 687.386C88.1464 692.657 66.7417 703.772 48.8707 705.188C42.1108 705.743 26.3925 705.908 1.8039 705.885C-24.6327 705.823 -50.1348 705.282 -75.399 715.318C-103.74 726.586 -129.781 738.401 -160.08 741.747C-171.292 743.005 -182.12 743.574 -192.473 743.553C-230.923 743.336 -263.84 743.735 -299.509 747.466C-309.608 748.549 -321.119 750.798 -326.676 760.055C-327.445 761.435 -326.742 763.146 -325.362 763.474C-324.625 763.59 -323.8 763.906 -322.874 763.826C-299.715 761.525 -278.4 758.985 -253.662 760.707C-238.709 761.722 -218.808 764.837 -205.523 766.116C-168.065 769.504 -132.326 762.483 -97.1809 748.567C-63.9005 735.41 -40.6083 726.828 -9.54124 726.49C23.3738 726.191 52.5528 727.707 83.1387 715.191C87.3348 713.485 96.296 709.386 110.022 702.895C138.315 689.532 167.528 689.454 198.034 693.792C216.097 696.369 227.897 697.916 233.525 698.434C259.541 700.881 286.478 699.159 314.339 693.068C324.925 690.799 335.264 687.128 344.807 681.745C354.348 676.462 363.094 669.467 370.119 660.739C373.633 656.326 376.603 651.402 379.118 646.169C384.63 634.716 387.484 622.21 389.968 609.696C392.353 597.479 394.465 585.057 398.323 573.17C409.977 538.01 435.495 511.623 470.364 506.378C493.084 502.971 516.017 506.948 538.688 510.222C582.094 516.528 626.105 520.454 669.739 515.994C713.373 511.534 756.819 498.493 793.782 472.946C821.459 453.786 846.795 427.294 879.349 422.2C914.779 416.668 948.432 438.228 978.494 459.112C1000.18 474.134 1023.69 489.793 1048.35 495.402C1055.52 497.051 1059.35 486.659 1053.06 482.636C1025.79 465.202 1000.06 444.609 972.027 428.455C935.862 407.641 892.787 394.459 853.761 408.293C828.054 417.422 807.02 437.222 784.224 452.896C769.957 463.066 754.622 471.318 738.769 477.863Z" fill="white"/>
            <path d="M489.735 364.564C431.476 374.299 376.852 413.134 343.002 466.174C323.783 496.286 309.536 531.69 282.264 553.552C237.029 589.894 183.432 571.602 132.391 580.992C79.678 590.745 33.0896 621.174 -20.8889 625.215C-33.5729 626.142 -47.2372 625.354 -59.8768 624.188C-118.835 618.948 -179.763 610.673 -237.152 631.697C-272.927 644.802 -304.474 667.77 -335.104 691.057C-361.879 711.334 -387.225 733.935 -417.473 747.955C-432.412 754.919 -449.455 756.552 -465.264 761.004C-482.096 765.733 -498.767 771.563 -514.558 779.507C-544.458 794.531 -579.468 789.001 -611.359 780.246C-630.841 774.845 -651.753 775.798 -670.935 782.373C-687.791 788.199 -702.807 798.851 -718.615 807.592C-721.047 808.937 -719.836 812.852 -717.148 812.51C-701.566 810.048 -686.604 801.988 -671.25 797.227C-652.268 791.346 -632.007 790.579 -612.684 794.779C-594.835 798.748 -577.816 806.989 -559.737 808.868C-530.22 811.888 -502.379 798.017 -474.998 788.425C-460.841 783.439 -446.857 782.24 -432.457 778.855C-417.221 775.288 -402.293 764.435 -389.704 754.927C-347.429 723.011 -304.872 690.901 -256.485 667.192C-227.155 652.854 -196.406 645.727 -164.148 645.913C-139.192 646.043 -114.266 647.569 -89.3285 648.597C-68.6418 649.535 -47.3611 652.978 -26.697 650.624C15.2802 645.83 53.6459 623.904 94.1016 612.395C103.867 609.61 113.712 607.425 123.723 606.141C150.508 602.82 177.604 606.686 204.541 604.963C248.42 602.005 292.837 582.401 319.704 544.772C331.04 528.955 338.918 510.571 348.526 493.42C382.928 431.715 443.837 384.235 510.528 382.259C546.14 381.22 580.84 392.628 614.606 404.515C648.372 416.402 682.583 429.096 718.141 430.548C748.251 431.786 779.941 423.881 803.199 403.828C808 399.741 804.662 391.492 798.635 392.361C777.307 395.499 756.743 406.234 735.299 410.466C669.86 423.141 608.594 374.167 542.902 363.896C525.114 361.424 507.268 361.644 489.735 364.564Z" fill="white"/>
            <path d="M1672.37 214.417C1625.87 184.008 1564.33 169.736 1512.95 194.877C1511.18 195.737 1504.72 199.29 1493.59 205.537C1460.57 223.986 1426.65 241.02 1395.85 263.804C1384.2 272.434 1372.14 283.049 1360.47 293.075C1341.63 309.331 1317.1 319.682 1294.32 330.17C1268.09 342.18 1248.37 356.822 1235.11 384.866C1228.05 399.876 1221.52 415.397 1211.98 429.457C1192.13 458.757 1165.03 485.51 1138.05 507.079C1115.29 525.347 1090.72 533.204 1062.5 534.201C1045.94 534.847 1026.09 533.628 1002.95 530.743C986.724 528.703 970.712 525.272 955.101 520.353C924.244 510.821 895.637 499.742 867.033 506.017C839.264 512.11 810.239 533.836 788.216 552.318C770.051 567.592 751.35 581.956 733.637 597.738C717.145 612.548 700.11 626.848 681.645 638.824C659.713 653.02 635.543 663.777 609.973 666.426C585.517 668.899 561.118 664.293 536.737 663.177C514.572 662.208 493.242 665.446 473.314 676.692C459.467 684.477 447.311 695.39 433.731 703.679C402.166 723.156 365.589 730.459 329.851 737.48C294.856 744.318 259.119 751.239 223.912 746.303C197.646 742.554 172.074 732.238 145.629 732.574C118.352 732.893 92.315 744.509 67.4662 756.748C59.4332 760.667 51.3959 764.785 43.3587 768.903C33.3578 774.077 40.0396 790.276 50.2126 785.705C84.0938 770.366 117.419 750.726 153.558 750.994C178.329 751.121 202.068 760.701 226.471 765.108C263.86 771.786 302.251 766.118 339.233 757.128C383.833 746.305 429.544 731.118 469.176 706.126C481.544 698.31 494.725 687.02 508.68 682.828C522.169 678.826 537.753 680.652 551.491 682.34C569.93 684.626 588.42 688.908 606.933 687.705C630.999 686.221 653.223 675.722 674.363 664.002C694.195 652.953 712.874 639.586 730.923 625.407C731.862 624.729 732.711 623.949 733.649 623.271C752.455 608.31 770.723 592.54 789.44 577.378C807.403 562.899 826.144 546.64 847.126 538.009C856.919 533.928 867.237 531.255 877.789 530.581C900.19 529.161 925.475 535.582 947.27 540.932C994.349 552.702 1039.86 559.752 1086.76 553.965C1116.7 550.311 1142.64 538.793 1166.38 518.053C1198.21 490.104 1225.82 456.779 1243.02 417.249C1251.86 396.991 1259.09 378.692 1276.65 365.9C1278.9 364.252 1285.36 360.599 1295.83 355.036C1309.01 348.035 1321.66 340.225 1333.87 331.308C1345.51 322.778 1360.2 309.825 1371.01 301.377C1397.99 280.306 1426.55 263.358 1456.02 246.729C1480.34 233.083 1503.8 216.725 1530.32 208.211C1559.46 198.856 1587.26 204.333 1615.71 213.913C1658.57 228.486 1697.4 254.444 1739.08 272.184C1751.82 277.54 1762.28 281.353 1770.46 283.521C1797.49 290.478 1825.65 287.684 1853.89 285.69C1885.08 283.46 1916.33 287.912 1946.83 296.539C1981.94 306.459 2006.45 314.161 2044.01 321.739C2065.64 326.188 2082.55 335.323 2100.08 349.659C2121.8 367.374 2142.28 386.559 2168.24 396.385C2173.83 398.499 2183.14 399.993 2192.75 399.997C2202.92 399.914 2204.55 384.19 2194.52 381.683C2182.2 378.629 2170.29 373.489 2157.97 366.346C2133.31 352.059 2110.2 334.713 2085.74 320.032C2069.03 310.102 2051.56 301.354 2033 296.073C2015.18 290.907 1996.62 289.716 1978.81 283.952C1963.02 278.83 1947.22 274.006 1931.42 269.283C1909.92 262.942 1890.8 262.636 1868.56 265.156C1852.16 267.002 1839.37 268.128 1830.22 268.332C1809.22 268.984 1789.26 268.56 1770.46 261.579C1737.9 249.418 1703.55 234.826 1672.37 214.417Z" fill="white"/>
            <path d="M2474.42 142.767C2458.07 146.609 2445.48 151.827 2427.83 159.93C2413.09 166.699 2398.08 172.664 2382.71 177.823C2357.11 186.456 2331.71 194.295 2307.94 207.953C2299.42 212.859 2289 220.318 2279.35 226.297C2264.36 235.654 2248.42 242.297 2231.5 246.426C2212.55 251.011 2194.31 248.23 2175.95 241.856C2150.26 232.933 2126.31 220.158 2102.08 207.675C2062.76 187.392 2018.98 176.789 1975.82 172.083C1913.66 165.179 1849.24 156.033 1785.73 160.47C1761.94 162.159 1744.64 162.889 1733.83 162.66C1719.87 162.364 1707.52 160.805 1696.58 157.98C1688.4 155.812 1680.31 153.745 1672.12 151.776C1663.94 149.807 1655.75 147.838 1647.56 146.069C1639.37 144.299 1631.27 142.731 1622.98 141.358C1614.6 139.984 1606.21 138.808 1597.82 138.032C1589.6 137.259 1581.3 136.684 1573.08 136.41C1564.76 136.134 1556.44 136.057 1548.12 136.179C1539.89 136.304 1531.75 136.63 1523.51 137.153C1515.55 137.583 1507.59 138.212 1499.72 138.943C1497.96 139.105 1496.1 139.464 1494.35 139.427C1458.22 142.85 1425.01 157.205 1398.73 184.574C1388.24 195.422 1376.86 208.646 1366.7 217.107C1348.44 232.378 1326.92 240.3 1305.65 249.324C1274.31 262.721 1254.7 284.946 1230.46 312.059C1202.25 343.576 1168.78 374.283 1133.41 398.766C1118.78 408.828 1099.18 421.877 1080.56 419.288C1060.84 416.475 1040.87 403.684 1024.3 391.564C1008.91 380.366 995.244 371.1 983.109 363.561C943.875 339.291 898.109 335.328 853.806 336.482C819.954 337.36 788.261 336.687 755.856 326.026C735.017 319.201 715.037 311.097 695.084 301.697C682.454 295.744 669.628 290.286 656.604 285.422C652.936 284.047 649.268 282.673 645.601 281.199C641.935 279.725 638.176 278.249 634.51 276.775C630.843 275.3 627.179 273.727 623.423 272.151C619.758 270.577 616.094 269.003 612.335 267.527C608.671 265.953 604.915 264.378 601.25 262.804C597.586 261.23 593.83 259.654 590.163 258.18C586.499 256.606 582.74 255.13 579.074 253.656C575.315 252.18 571.649 250.706 567.89 249.23C564.131 247.754 560.463 246.379 556.7 245.103C552.939 243.726 549.176 242.45 545.413 241.173C541.65 239.896 537.885 238.719 534.026 237.64C530.261 236.463 526.399 235.484 522.632 234.406C518.77 233.427 515 232.449 511.135 231.669C507.271 230.789 503.403 230.109 499.535 229.428C495.482 228.744 491.334 228.157 487.275 227.772C483.401 227.39 479.524 227.109 475.648 226.827C471.769 226.645 467.891 226.463 464.102 226.382C460.314 226.302 456.429 226.419 452.636 226.538C448.844 226.657 445.047 226.975 441.25 227.294C437.453 227.612 433.652 228.13 429.944 228.65C426.141 229.267 422.43 229.887 418.715 230.705C415 231.524 411.283 232.443 407.563 233.461C403.844 234.479 400.121 235.697 396.488 237.016C392.762 238.333 389.127 239.752 385.487 241.371C384.555 241.75 383.528 242.227 382.593 242.705C382.127 242.895 381.659 243.184 381.192 243.374C381.006 243.47 379.794 243.943 379.792 244.042C363.356 251.872 351.669 258.107 344.818 262.949C321.176 279.303 297.173 295.25 272.906 310.593C258.475 319.762 245.051 329.451 231.345 339.333C220.644 346.986 215.078 352.253 209.566 363.706C201.922 379.801 192.285 398.347 180.652 419.444C166.229 445.668 150.059 462.779 128.081 487.846C121.828 494.994 117.262 501.08 112.847 508.766C112.655 509.061 113.017 509.468 113.298 509.275C122.488 503.086 131.862 497.002 141.323 491.119C149.848 485.814 155.854 481.553 159.525 478.439C188.248 453.516 203.464 416.038 220.36 382.187C228.182 366.395 238.426 354.145 250.905 345.433C262.072 337.592 276.687 328.427 294.849 317.642C321.624 301.753 348.576 286.267 375.705 271.084C379.074 269.161 382.44 267.337 385.805 265.613C389.169 263.889 392.532 262.265 395.986 260.643C399.347 259.119 402.705 257.694 406.155 256.271C409.511 254.946 412.957 253.722 416.404 252.499C419.848 251.375 423.197 250.349 426.73 249.427C430.17 248.502 433.607 247.678 437.133 247.054C440.661 246.331 444.185 245.807 447.707 245.384C451.229 244.96 454.841 244.637 458.451 244.415C462.06 244.192 465.759 244.171 469.362 244.247C473.058 244.326 476.842 244.605 480.534 244.883C484.316 245.263 488.19 245.644 491.964 246.422C496.012 247.306 499.87 248.485 503.822 249.566C507.772 250.747 511.724 251.828 515.672 253.109C519.621 254.29 523.477 255.569 527.424 256.849C531.372 258.13 535.226 259.508 539.079 260.886C542.932 262.265 546.878 263.645 550.729 265.123C554.58 266.601 558.431 268.079 562.282 269.557C566.131 271.135 569.98 272.713 573.737 274.288C577.586 275.866 581.34 277.541 585.095 279.217C586.836 279.952 588.574 280.787 590.313 281.622C607.067 289.258 623.725 297.092 640.383 304.925C662.805 315.574 684.886 320.531 707.986 329.698C720.728 334.756 734.652 340.736 749.666 347.637C773.102 358.408 797.869 363.122 823.965 361.781C836.458 361.148 848.863 360.314 861.364 359.283C902.942 355.876 941.721 362.384 977.646 385.787C990.686 394.242 1003.53 403.291 1014.85 410.014C1030.92 419.531 1047.37 428.158 1064.22 435.796C1071.09 438.934 1075.39 440.821 1077.13 441.456C1106.12 451.845 1144.4 425.33 1166.44 405.95C1195.93 379.945 1222.36 349.986 1248.86 320.628C1262.49 305.557 1277.02 291.902 1294.6 282.401C1308.53 274.818 1324.13 267.269 1336.49 259.652C1361.41 244.323 1383 224.634 1405.31 205.459C1418.87 193.778 1434.96 184.844 1451.92 178.322C1459.38 175.488 1466.92 172.856 1474.55 170.624C1482.18 168.392 1489.89 166.461 1497.69 164.732C1505.49 163.102 1513.29 161.671 1521.17 160.642C1529.05 159.512 1536.92 158.682 1544.88 158.153C1552.75 157.621 1560.71 157.292 1568.66 157.161C1576.61 157.13 1584.47 157.297 1592.41 157.665C1600.63 158.039 1608.93 158.614 1617.05 159.684C1625.34 160.658 1633.54 162.128 1641.64 163.896C1649.83 165.665 1658.01 167.834 1666 170.297C1666.46 170.407 1667.01 170.618 1667.47 170.727C1702.92 181.752 1740.78 196.419 1778.09 185.342C1813.71 174.827 1846.23 175.817 1882.19 180.369C1922.66 185.517 1958.42 190.365 1989.66 195.117C2008.18 197.903 2024.38 201.139 2038.35 204.927C2070.52 213.588 2097.32 227.023 2127.58 243.224C2144.85 252.467 2160.97 259.491 2178.59 265.55C2185.57 267.892 2191.18 269.408 2195.41 270.096C2211.08 272.423 2227.53 268.384 2242.71 263.12C2261.52 256.538 2279.89 248.849 2297.83 239.954C2320.07 228.856 2341.15 215.241 2364 205.652C2388.35 195.397 2412.59 185.539 2436.06 172.871C2450.37 165.196 2463.96 156.209 2475.23 143.881C2475.06 143.179 2474.79 142.675 2474.42 142.767Z" fill="white"/>
            <path d="M1502.59 308.756C1495.24 310.795 1487.98 313.234 1480.89 316.275C1469.7 320.925 1459.03 326.782 1448.99 333.85C1421.21 353.607 1399.71 382.175 1381.24 412.003C1362.48 442.224 1346.27 474.395 1324.6 502.26C1261.3 584.098 1152.41 587.972 1061.25 584.342C980.435 581.131 895.62 574.644 822.533 612.29C755.988 646.584 702.004 716.252 628.499 721.276C605.912 722.791 583.275 717.922 560.685 719.538C514.393 722.944 466.951 745.675 422.914 760.399L323.387 793.794C311.935 797.64 316.072 816.18 327.863 813.737C337.055 811.837 346.18 808.74 354.852 805.233C380.122 794.898 404.007 780.145 430.218 773.42C454.755 767.159 480.429 768.302 504.878 761.839C522.819 757.133 539.736 748.416 557.937 744.513C587.653 738.162 618.473 745.1 648.507 741.149C707.184 733.517 748.672 686.424 798.366 657.756C851.897 626.877 911.052 605.392 972.09 604.093C1020.09 603.017 1067.92 614.305 1115.95 611.634C1163.24 609.047 1208.88 593.059 1253.96 577.26C1276.31 569.456 1299.03 561.361 1317.93 546.402C1362.4 511.44 1376.7 447.413 1410.05 400.247C1451.13 342.174 1523.68 312.096 1590.04 325.772C1631.37 334.229 1668.4 357.754 1706.74 376.221C1729.07 386.968 1753 396.053 1777.15 399.458C1784.52 400.512 1786.89 389.092 1779.83 386.649C1738.07 372.298 1699.82 345.056 1660.49 325.272C1632.23 311.108 1605.7 302.267 1574.39 301.104C1550.46 300.297 1526.02 302.272 1502.59 308.756Z" fill="white"/>
            <path d="M1598.52 388.088C1540.26 397.823 1485.64 436.659 1451.79 489.699C1432.57 519.811 1418.32 555.214 1391.05 577.077C1345.81 613.419 1292.22 595.127 1241.18 604.516C1188.46 614.269 1141.87 644.698 1087.9 648.739C1075.21 649.667 1061.55 648.878 1048.91 647.712C989.949 642.472 929.022 634.198 871.632 655.222C835.857 668.326 804.31 691.294 773.681 714.582C746.905 734.859 721.559 757.46 691.311 771.479C676.373 778.443 659.329 780.076 643.52 784.528C626.688 789.258 610.017 795.088 594.226 803.031C564.326 818.055 529.317 812.525 497.426 803.77C477.943 798.37 457.031 799.322 437.849 805.897C420.994 811.723 405.977 822.376 390.169 831.116C387.737 832.461 388.948 836.376 391.636 836.035C407.219 833.573 422.18 825.512 437.534 820.751C456.516 814.87 476.777 814.103 496.1 818.303C513.949 822.273 530.969 830.513 549.047 832.393C578.564 835.413 606.405 821.541 633.786 811.949C647.943 806.963 661.927 805.764 676.327 802.379C691.563 798.813 706.491 787.959 719.08 778.452C761.355 746.535 803.912 714.425 852.299 690.717C881.629 676.379 912.378 669.251 944.636 669.437C969.592 669.568 994.519 671.094 1019.46 672.122C1040.14 673.059 1061.42 676.503 1082.09 674.149C1124.06 669.354 1162.43 647.428 1202.89 635.919C1212.65 633.134 1222.5 630.949 1232.51 629.666C1259.29 626.344 1286.39 630.21 1313.32 628.488C1357.2 625.529 1401.62 605.926 1428.49 568.296C1439.82 552.479 1447.7 534.095 1457.31 516.945C1491.71 455.239 1552.62 407.76 1619.31 405.784C1654.92 404.744 1689.62 416.152 1723.39 428.039C1757.16 439.926 1791.37 452.62 1826.93 454.073C1857.04 455.31 1888.72 447.405 1911.98 427.353C1916.78 423.265 1913.45 415.016 1907.42 415.886C1886.09 419.024 1865.53 429.758 1844.08 433.991C1778.64 446.665 1717.38 397.691 1651.69 387.421C1633.9 384.949 1616.05 385.169 1598.52 388.088Z" fill="white"/>
            <path d="M738.769 477.863C714.149 488.013 688.136 494.143 661.938 495.881C614.818 499.07 565.875 496.736 518.93 491.65C493.567 488.918 467.024 485.163 443.328 495.332C400.228 513.867 385.331 566.81 375.889 610.993C373.428 622.411 368.21 633.072 360.727 641.59C357.032 645.8 352.704 649.399 348.199 652.594C338.349 659.367 327.334 664.419 316.258 667.974C304.995 671.625 293.395 673.773 281.723 674.921C271.162 675.994 260.525 676.267 249.9 676.042C201.388 675.112 149.152 671.111 102.956 687.386C88.1464 692.657 66.7417 703.772 48.8707 705.188C42.1108 705.743 26.3925 705.908 1.8039 705.885C-24.6327 705.823 -50.1348 705.282 -75.399 715.318C-103.74 726.586 -129.781 738.401 -160.08 741.747C-171.292 743.005 -182.12 743.574 -192.473 743.553C-230.923 743.336 -263.84 743.735 -299.509 747.466C-309.608 748.549 -321.119 750.798 -326.676 760.055C-327.445 761.435 -326.742 763.146 -325.362 763.474C-324.625 763.59 -323.8 763.906 -322.874 763.826C-299.715 761.525 -278.4 758.985 -253.662 760.707C-238.709 761.722 -218.808 764.837 -205.523 766.116C-168.065 769.504 -132.326 762.483 -97.1809 748.567C-63.9005 735.41 -40.6083 726.828 -9.54124 726.49C23.3738 726.191 52.5528 727.707 83.1387 715.191C87.3348 713.485 96.296 709.386 110.022 702.895C138.315 689.532 167.528 689.454 198.034 693.792C216.097 696.369 227.897 697.916 233.525 698.434C259.541 700.881 286.478 699.159 314.339 693.068C324.925 690.799 335.264 687.128 344.807 681.745C354.348 676.462 363.094 669.467 370.119 660.739C373.633 656.326 376.603 651.402 379.118 646.169C384.63 634.716 387.484 622.21 389.968 609.696C392.353 597.479 394.465 585.057 398.323 573.17C409.977 538.01 435.495 511.623 470.364 506.378C493.084 502.971 516.017 506.948 538.688 510.222C582.094 516.528 626.105 520.454 669.739 515.994C713.373 511.534 756.819 498.493 793.782 472.946C821.459 453.786 846.795 427.294 879.349 422.2C914.779 416.668 948.432 438.228 978.494 459.112C1000.18 474.134 1023.69 489.793 1048.35 495.402C1055.52 497.051 1059.35 486.659 1053.06 482.636C1025.79 465.202 1000.06 444.609 972.027 428.455C935.862 407.641 892.787 394.459 853.761 408.293C828.054 417.422 807.02 437.222 784.224 452.896C769.957 463.066 754.622 471.318 738.769 477.863Z" fill="white"/>
            <path d="M-609.855 -96.7114C-610.045 -87.7391 -601.766 -81.4795 -593.932 -84.7044C-585.817 -88.1228 -577.887 -91.5451 -571.833 -93.7106C-536.255 -106.221 -498.117 -108.703 -461.016 -101.533C-453.282 -100.072 -437.633 -96.9473 -413.98 -92.057C-391.337 -87.4873 -363.743 -85.3061 -346.881 -82.7541C-315.55 -78.0999 -287.261 -65.1323 -257.68 -52.0375C-229.656 -39.674 -203.88 -34.6389 -174.05 -33.3079C-154.657 -32.3977 -135.165 -31.7848 -115.763 -31.2734C-77.6045 -30.3641 -39.2132 -27.3553 -1.4828 -28.0509C12.5745 -28.3511 29.2804 -31.4874 41.6935 -32.7201C56.0513 -34.111 72.1392 -34.2685 89.9594 -33.292C122.553 -31.5033 154.703 -26.2333 186.319 -17.5835C213.615 -10.1225 240.983 -1.6626 267.38 8.97091C275.353 12.2319 285.071 16.0286 296.442 20.359C321.107 29.8587 344.267 31.8461 370.017 29.4003C399.844 26.5423 429.186 20.3828 458.695 15.0247C494.795 8.41 530.768 20.8424 566.991 17.1227C584.037 15.3899 602.186 9.59123 618.946 3.86286C631.051 -0.268752 639.964 -2.07436 651.52 -2.12839C673.057 -2.0704 692.028 1.32421 712.97 7.65302C729.595 12.6934 746.524 16.4437 763.662 19.1012C783.842 22.1225 800.923 27.4718 821.671 34.1954C849.856 43.3708 879.625 47.5929 910.973 47.0612C935.108 46.6756 965.035 43.4207 981.604 42.3759C1003.64 40.9484 1028.41 40.7759 1055.94 41.8586C1072.1 42.5007 1089.15 44.7575 1107.28 48.6329C1130.93 53.7226 1153.53 56.0971 1177.68 54.9139C1195.63 54.0979 1215.01 51.2179 1233.55 48.9182C1274.88 43.9107 1323.19 54.7097 1359.03 77.6118C1369.61 84.3192 1380.2 90.8272 1392.04 94.4696C1407.75 99.291 1426.89 99.0987 1443.37 97.5534C1449.49 96.985 1455.69 96.4185 1461.81 95.7504C1468.01 95.1839 1474.13 94.5156 1480.33 93.9491C1486.54 93.3826 1492.74 92.9159 1498.95 92.4491C1505.15 91.9823 1511.35 91.6152 1517.55 91.3478C1523.75 91.0803 1529.95 90.9126 1536.14 90.8445C1542.34 90.7765 1548.62 90.9098 1554.81 91.1409C1561.09 91.3739 1567.37 91.8061 1573.55 92.4359C1579.82 93.0677 1586.09 93.899 1592.35 94.9295C1598.52 95.9581 1604.69 97.186 1610.76 98.8108C1616.82 100.436 1622.8 102.158 1628.86 103.783C1634.93 105.408 1641 106.933 1647.17 108.161C1653.24 109.387 1659.41 110.315 1665.6 110.746C1667.81 110.893 1670.03 111.039 1672.34 111.088C1694.24 111.553 1716.43 111.326 1738.3 113.186C1773.55 116.128 1808.93 121.666 1843.83 127.693C1849.27 128.606 1856.36 130.053 1865.1 132.033C1921.13 144.493 1979.39 147.723 2037.41 144.965C2069.7 143.456 2102.08 142.347 2134.45 141.738C2156.36 141.305 2178.4 139.379 2198.8 132.431C2214.62 127.082 2226.64 122.749 2242.6 120.095C2259.85 117.17 2276.93 113.942 2294.02 110.215C2302.28 108.396 2310.38 105.875 2318.49 102.556C2320.08 101.891 2320.19 101.096 2318.73 100.068C2318.46 99.8623 2317.72 99.6473 2316.53 99.4224C2306.4 97.512 2296.24 96.7979 2285.88 97.2762C2257.66 98.6721 2229.7 104.861 2201.94 110.556C2186.99 113.63 2169.02 115.642 2147.74 116.587C2107.85 118.433 2067.88 120.278 2028 122.225C1998.67 123.597 1967.51 123.933 1943.51 122.227C1928 121.1 1915.92 119.847 1907.45 118.37C1833.12 105.423 1764.47 95.0904 1701.5 87.3712C1687.39 85.6756 1669.86 84.4059 1648.98 83.7634C1646.21 83.7046 1643.35 83.4445 1640.58 83.1863C1635.96 82.7892 1631.26 82.3901 1626.65 81.8933C1620.56 81.2655 1614.47 80.6376 1608.29 80.0078C1602.02 79.3761 1595.75 78.7443 1589.47 78.4117C1587.25 78.2649 1585.03 78.2178 1582.82 78.1707C1544.29 77.1539 1505.72 78.43 1467.28 81.9032C1438.84 84.4916 1411.76 89.0034 1385.07 74.6735C1362.31 62.4216 1340.67 49.994 1315.72 40.6878C1286.46 29.7942 1255.46 26.8425 1224.96 30.9828C1189.55 35.717 1154.95 37.177 1122 30.394C1102.12 26.2819 1089.6 23.7225 1084.63 22.8191C1064.37 18.9983 1043.98 17.269 1023.56 16.6364C1009.06 16.1292 995.829 16.7461 983.868 18.487C967.733 20.8376 950.572 23.6652 935.032 24.1334C909.595 24.8903 883.683 21.8471 857.483 15.0078C821.447 5.5661 799.952 -0.874231 764.691 -7.60659C741.121 -12.0961 717.55 -16.4859 693.976 -20.7761C664.693 -26.085 638.355 -26.4444 609.433 -18.2812C599.111 -15.4083 588.789 -12.5354 578.562 -9.76024C547.136 -1.25115 515.9 -6.00317 484.089 -5.48122C451.262 -4.98084 419.354 4.51542 387.576 12.2191C386.276 12.4908 385.066 12.864 383.766 13.1357C360.445 18.7249 334.806 20.2753 312.636 10.8286C311.261 10.3007 305.228 7.08098 294.538 1.16915C278.731 -7.54414 262.136 -13.9803 244.753 -18.1391C212.838 -25.7978 192.283 -32.9162 166.007 -40.555C134.404 -49.8029 102.012 -52.3852 69.3742 -52.0803C28.876 -51.6429 -11.4669 -49.8059 -51.9607 -49.568C-84.9661 -49.3706 -118.064 -49.1752 -151.069 -48.9778C-182.412 -48.7452 -212.497 -55.4674 -241.145 -68.9413C-276.84 -85.7563 -301.546 -97.6505 -333.973 -102.926C-349.082 -105.341 -367.986 -107.538 -383.729 -110.565C-401.406 -113.932 -421.555 -118.449 -444.175 -124.115C-497.046 -137.404 -552.659 -130.406 -602.499 -107.925C-606.974 -106.125 -609.749 -101.696 -609.855 -96.7114Z" fill="white"/>
        </g>
    </g>
    <defs>
        <linearGradient id="paint0_linear_1862_154" x1="30.236" y1="49.4186" x2="552.981" y2="353.915" gradientUnits="userSpaceOnUse">
            <stop stop-color="#0522CF"/>
            <stop offset="0.998555" stop-color="#7C75FF"/>
        </linearGradient>
        <clipPath id="clip0_1862_154">
            <rect width="414" height="680" fill="white"/>
        </clipPath>
        <clipPath id="clip1_1862_154">
            <rect width="1196.58" height="1109.03" fill="white" transform="translate(-360 1154.31) rotate(-88.7846)"/>
        </clipPath>
    </defs>
</svg>
