<svg width="21" height="20" viewBox="0 0 21 20" fill="none" xmlns="http://www.w3.org/2000/svg">
    <path
        d="M6.33301 7.08337L8.78469 8.53287C10.214 9.37796 10.7853 9.37796 12.2147 8.53287L14.6663 7.08337"
        stroke="white" stroke-width="1.25" stroke-linecap="round" stroke-linejoin="round" />
    <path
        d="M2.18013 11.2297C2.23461 13.7842 2.26185 15.0616 3.20445 16.0077C4.14706 16.954 5.45894 16.9869 8.08269 17.0528C9.69975 17.0935 11.3009 17.0935 12.918 17.0528C15.5417 16.9869 16.8536 16.954 17.7962 16.0077C18.7388 15.0616 18.7661 13.7842 18.8205 11.2297C18.8381 10.4082 18.8381 9.59165 18.8205 8.77032C18.7661 6.21568 18.7388 4.93837 17.7962 3.99218C16.8536 3.04599 15.5417 3.01303 12.918 2.9471C11.3009 2.90647 9.69975 2.90647 8.08268 2.94709C5.45894 3.01301 4.14706 3.04597 3.20445 3.99217C2.26185 4.93836 2.2346 6.21567 2.18013 8.77023C2.16261 9.59165 2.16261 10.4082 2.18013 11.2297Z"
        stroke="white" stroke-width="1.25" stroke-linejoin="round" />
</svg>
