<svg width="22" height="22" viewBox="0 0 22 22" fill="none" xmlns="http://www.w3.org/2000/svg">
    <path fill-rule="evenodd" clip-rule="evenodd" d="M11.0652 0.75C13.0744 0.74998 14.6717 0.74997 15.934 0.90331C17.2327 1.06106 18.3071 1.39345 19.1968 2.15334C19.4301 2.35261 19.6474 2.56991 19.8467 2.80323C20.6065 3.69294 20.9389 4.76729 21.0967 6.06598C21.25 7.32829 21.25 9.0561 21.25 11.0653C21.25 13.0744 21.25 14.6717 21.0967 15.934C20.9389 17.2327 20.6065 18.3071 19.8467 19.1968C19.6474 19.4301 19.4301 19.6474 19.1968 19.8467C18.3071 20.6065 17.2327 20.9389 15.934 21.0967C14.6717 21.25 12.9439 21.25 10.9347 21.25C8.92558 21.25 7.32829 21.25 6.06598 21.0967C4.76729 20.9389 3.69294 20.6065 2.80323 19.8467C2.56991 19.6474 2.35261 19.4301 2.15334 19.1968C1.39345 18.3071 1.06106 17.2327 0.90331 15.934C0.74997 14.6717 0.74998 13.0744 0.75 11.0652C0.74998 9.0561 0.74997 7.3283 0.90331 6.06598C1.06106 4.76729 1.39345 3.69294 2.15334 2.80323C2.35261 2.56991 2.56991 2.35261 2.80323 2.15334C3.69294 1.39345 4.76729 1.06106 6.06598 0.90331C7.3283 0.74997 9.0561 0.74998 11.0652 0.75ZM2.84153 15.6986C2.97614 16.8067 3.22847 17.4493 3.63803 17.9288C3.77088 18.0843 3.91575 18.2292 4.0713 18.3621C4.55084 18.7716 5.19337 19.024 6.3015 19.1586C7.43237 19.2959 8.91094 19.2976 11.0001 19.2976C13.0892 19.2976 14.5678 19.2959 15.6987 19.1586C16.8068 19.024 17.4493 18.7716 17.9289 18.3621C18.0844 18.2292 18.2293 18.0843 18.3622 17.9288C18.7717 17.4493 19.024 16.8067 19.1587 15.6986C19.2103 15.2738 19.2427 14.7999 19.2631 14.263L17.5304 12.5303C17.1909 12.1908 16.7303 12 16.2501 12C15.7699 12 15.3093 12.1908 14.9698 12.5303L13.0001 14.5L9.0304 10.5303C8.69086 10.1908 8.23031 10 7.75009 10C7.26988 10 6.80933 10.1908 6.46976 10.5303L2.73706 14.263C2.75747 14.7999 2.78993 15.2738 2.84153 15.6986ZM14.5 5.25C13.8096 5.25 13.25 5.80964 13.25 6.5C13.25 7.19036 13.8096 7.75 14.5 7.75C15.1904 7.75 15.75 7.19036 15.75 6.5C15.75 5.80964 15.1904 5.25 14.5 5.25Z" fill="#ACACBF"/>
</svg>
