<svg width="20" height="20" viewBox="0 0 20 20" fill="none" xmlns="http://www.w3.org/2000/svg">
    <path fill-rule="evenodd" clip-rule="evenodd" d="M3.33333 2.29181C3.79357 2.29181 4.16667 2.66491 4.16667 3.12514V6.54044C4.16667 7.00068 3.79357 7.37378 3.33333 7.37378C2.8731 7.37378 2.5 7.00068 2.5 6.54044V3.12514C2.5 2.66491 2.8731 2.29181 3.33333 2.29181Z" fill="#ACACBF"/>
    <path fill-rule="evenodd" clip-rule="evenodd" d="M6.66667 14.5835C6.66667 14.1233 6.29357 13.7502 5.83333 13.7502C5.37309 13.7502 5 14.1233 5 14.5835V17.2087C5 17.4444 5 17.5622 4.92677 17.6354C4.85355 17.7087 4.7357 17.7087 4.5 17.7087H2.5C2.15482 17.7087 1.875 17.4289 1.875 17.0837V10.7384C1.875 10.5934 1.875 10.5209 1.91207 10.4751C1.94915 10.4293 2.03095 10.4118 2.19453 10.3768C2.58037 10.2943 2.94219 10.0856 3.21316 9.75727L5.81481 6.60528C5.92392 6.47308 5.97848 6.40698 6.05214 6.40346C6.1258 6.39996 6.1864 6.46056 6.3076 6.58177L9.23929 9.51386C9.33271 9.60827 9.47079 9.74794 9.64979 9.88736C9.72179 9.94344 9.75779 9.97144 9.77471 10.006C9.79162 10.0407 9.79162 10.0828 9.79162 10.1669V17.0837C9.79162 17.4289 9.51187 17.7087 9.16662 17.7087H7.16667C6.93096 17.7087 6.81311 17.7087 6.73989 17.6354C6.66667 17.5622 6.66667 17.4444 6.66667 17.2087V14.5835ZM6.67317 10.4169C6.67317 10.8771 6.30175 11.2502 5.84357 11.2502H5.83612C5.37793 11.2502 5.00651 10.8771 5.00651 10.4169C5.00651 9.95661 5.37793 9.58352 5.83612 9.58352H5.84357C6.30175 9.58352 6.67317 9.95661 6.67317 10.4169Z" fill="#ACACBF"/>
    <path fill-rule="evenodd" clip-rule="evenodd" d="M10.8832 10.458C10.9335 10.409 11.0267 10.4113 11.2132 10.416C11.2922 10.4179 11.3622 10.4176 11.42 10.4173L17.7924 10.4169C17.9484 10.4169 18.0265 10.4169 18.0752 10.4657C18.1241 10.5144 18.1242 10.5921 18.1244 10.7475C18.1245 10.8332 18.1245 10.9207 18.1245 11.01V17.0836C18.1245 17.4288 17.8447 17.7086 17.4995 17.7086H11.2063C10.9977 17.7086 10.8935 17.7086 10.844 17.6546C10.7944 17.6005 10.8052 17.4768 10.8266 17.2294C10.8307 17.1814 10.8329 17.1328 10.8329 17.0836V10.7683C10.8329 10.5942 10.8329 10.5071 10.8832 10.458ZM14.9997 13.5419C15.3449 13.5419 15.6247 13.2621 15.6247 12.9169C15.6247 12.5718 15.3449 12.2919 14.9997 12.2919H13.333C12.9878 12.2919 12.708 12.5718 12.708 12.9169C12.708 13.2621 12.9878 13.5419 13.333 13.5419H14.9997Z" fill="#ACACBF"/>
    <path d="M14.3584 3.34163C13.8936 3.12394 13.3748 3.1245 12.7197 3.1252L5.83368 3.12528C5.828 3.12528 5.82232 3.12536 5.81667 3.12551C5.7785 3.12654 5.75941 3.12706 5.75576 3.12705C5.7521 3.12704 5.73787 3.12659 5.70941 3.1257C5.47961 3.11848 5.24898 3.2143 5.09038 3.40645L1.22136 8.09392C0.947773 8.42538 0.992131 8.91797 1.32044 9.19422C1.64875 9.47047 2.13668 9.42563 2.41027 9.09422L5.62476 5.19972C5.78842 5.00143 5.87027 4.90228 5.98075 4.89701C6.09123 4.89174 6.18213 4.98264 6.36393 5.16445L9.95064 8.7513C10.142 8.9438 10.3486 9.15147 10.6208 9.2643C10.8931 9.37705 11.186 9.37622 11.4573 9.37538L18.3336 9.3753C18.5762 9.3753 18.7968 9.23497 18.8996 9.01538C19.0026 8.7958 18.9691 8.53647 18.8138 8.35013L15.5737 4.46195C15.1549 3.95828 14.8232 3.55933 14.3584 3.34163Z" fill="#ACACBF"/>
</svg>
