<svg width="18" height="16" viewBox="0 0 18 16" fill="none" xmlns="http://www.w3.org/2000/svg">
    <path fill-rule="evenodd" clip-rule="evenodd" d="M14.4076 0.419609C13.4582 0.291968 12.2452 0.291976 10.7137 0.291993H7.2864C5.75494 0.291976 4.54191 0.291968 3.59257 0.419609C2.61555 0.550959 1.82476 0.827726 1.20112 1.45136C0.577482 2.075 0.300715 2.86579 0.169365 3.84281C0.0417234 4.79215 0.0417318 6.00518 0.0417484 7.53666V8.46399C0.0417318 9.99549 0.0417234 11.2085 0.169365 12.1578C0.300715 13.1348 0.577482 13.9257 1.20112 14.5493C1.82476 15.1729 2.61555 15.4497 3.59257 15.5811C4.5419 15.7087 5.75491 15.7087 7.28636 15.7087H10.7137C12.2452 15.7087 13.4582 15.7087 14.4076 15.5811C15.3846 15.4497 16.1754 15.1729 16.7991 14.5493C17.4227 13.9257 17.6994 13.1348 17.8308 12.1578C17.9584 11.2085 17.9584 9.99549 17.9584 8.46408V7.53666C17.9584 6.00524 17.9584 4.79214 17.8308 3.84281C17.6994 2.86579 17.4227 2.075 16.7991 1.45136C16.1754 0.827726 15.3846 0.550959 14.4076 0.419609ZM8.74683 11.1012C7.60275 8.25008 3.64525 8.46316 2.58671 11.1012C2.50943 11.2937 2.53277 11.5122 2.64901 11.684C2.76526 11.8559 2.95924 11.9589 3.16675 11.9589H8.16675C8.37425 11.9589 8.56825 11.8559 8.6845 11.684C8.80075 11.5122 8.82408 11.2937 8.74683 11.1012ZM4.00008 6.12533C4.00008 5.20485 4.74627 4.45866 5.66675 4.45866C6.58722 4.45866 7.33341 5.20485 7.33341 6.12533C7.33341 7.04583 6.58722 7.79199 5.66675 7.79199C4.74627 7.79199 4.00008 7.04583 4.00008 6.12533ZM10.6667 4.45866C10.3216 4.45866 10.0417 4.73848 10.0417 5.08366C10.0417 5.42883 10.3216 5.70866 10.6667 5.70866H14.8334C15.1786 5.70866 15.4584 5.42883 15.4584 5.08366C15.4584 4.73848 15.1786 4.45866 14.8334 4.45866H10.6667ZM10.6667 7.37533C10.3216 7.37533 10.0417 7.65516 10.0417 8.00033C10.0417 8.34549 10.3216 8.62533 10.6667 8.62533H14.8334C15.1786 8.62533 15.4584 8.34549 15.4584 8.00033C15.4584 7.65516 15.1786 7.37533 14.8334 7.37533H10.6667ZM10.6667 10.292C10.3216 10.292 10.0417 10.5718 10.0417 10.917C10.0417 11.2622 10.3216 11.542 10.6667 11.542H12.7501C13.0952 11.542 13.3751 11.2622 13.3751 10.917C13.3751 10.5718 13.0952 10.292 12.7501 10.292H10.6667Z" fill="#ACACBF"/>
</svg>
