<svg width="20" height="20" viewBox="0 0 20 20" fill="none" xmlns="http://www.w3.org/2000/svg">
    <path fill-rule="evenodd" clip-rule="evenodd" d="M10.0007 2.70841C8.38982 2.70841 7.08398 4.01425 7.08398 5.62508V6.92521C8.01543 6.89215 8.97182 6.87508 10.0007 6.87508C11.0295 6.87508 11.9859 6.89215 12.9173 6.92521V5.62508C12.9173 4.01425 11.6115 2.70841 10.0007 2.70841ZM5.41732 5.62508V7.10601C4.11093 7.5058 3.12503 8.65516 2.93775 10.0461C2.81428 10.9631 2.70898 11.9266 2.70898 12.9167C2.70898 13.9069 2.81428 14.8704 2.93775 15.7874C3.16406 17.4682 4.55662 18.7963 6.27167 18.8752C7.46202 18.9299 8.67082 18.9584 10.0007 18.9584C11.3305 18.9584 12.5393 18.9299 13.7297 18.8752C15.4447 18.7963 16.8372 17.4682 17.0636 15.7874C17.187 14.8704 17.2923 13.9069 17.2923 12.9167C17.2923 11.9266 17.187 10.9631 17.0636 10.0461C16.8763 8.65516 15.8904 7.5058 14.584 7.10601V5.62508C14.584 3.09377 12.532 1.04175 10.0007 1.04175C7.46934 1.04175 5.41732 3.09377 5.41732 5.62508ZM14.1673 12.9086C14.1673 12.4483 13.7942 12.0752 13.334 12.0752C12.8737 12.0752 12.5007 12.4483 12.5007 12.9086V12.9169C12.5007 13.3772 12.8737 13.7502 13.334 13.7502C13.7942 13.7502 14.1673 13.3772 14.1673 12.9169V12.9086ZM10.0007 12.0752C10.4609 12.0752 10.834 12.4483 10.834 12.9086V12.9169C10.834 13.3772 10.4609 13.7502 10.0007 13.7502C9.5404 13.7502 9.16732 13.3772 9.16732 12.9169V12.9086C9.16732 12.4483 9.5404 12.0752 10.0007 12.0752ZM7.50065 12.9086C7.50065 12.4483 7.12755 12.0752 6.66732 12.0752C6.20708 12.0752 5.83398 12.4483 5.83398 12.9086V12.9169C5.83398 13.3772 6.20708 13.7502 6.66732 13.7502C7.12755 13.7502 7.50065 13.3772 7.50065 12.9169V12.9086Z" fill="white"/>
</svg>
