<svg width="20" height="20" viewBox="0 0 20 20" fill="none" xmlns="http://www.w3.org/2000/svg">
    <path
        d="M11.9621 1.26108C12.3737 1.01764 12.8204 1.01192 13.2577 1.07798C13.6843 1.14248 14.2098 1.29402 14.8323 1.47185L14.8714 1.48325C15.479 1.6568 15.981 1.79995 16.3786 1.95932C16.7971 2.12708 17.1547 2.3332 17.4447 2.66082C17.5382 2.7665 17.6234 2.8796 17.6994 2.99855C17.9347 3.3673 18.0347 3.76765 18.0811 4.216C18.125 4.64142 18.125 5.16259 18.125 5.79315V14.2079C18.125 14.8384 18.125 15.3596 18.0811 15.785C18.0347 16.2334 17.9347 16.6337 17.6994 17.0025C17.6234 17.1214 17.5382 17.2345 17.4447 17.3402C17.1547 17.6679 16.7971 17.8739 16.3786 18.0417C15.9809 18.2011 15.4791 18.345 14.8714 18.5186L14.8323 18.5291L14.7876 18.5421C14.1846 18.7145 13.6741 18.8601 13.2577 18.9231C12.8204 18.9891 12.3737 18.9834 11.9621 18.7399C11.8417 18.6687 11.7292 18.5838 11.6276 18.4876C11.2802 18.1587 11.152 17.7307 11.0954 17.2921H10.1945C9.42567 17.2921 8.76525 17.2939 8.23975 17.2238C7.69101 17.1506 7.16528 16.9856 6.73828 16.5622C6.26048 16.0883 6.10684 15.4904 6.04573 14.8744C6.00037 14.4165 6.33498 14.0085 6.79281 13.9629C7.25076 13.9176 7.65882 14.2521 7.70427 14.71C7.7506 15.177 7.84076 15.3085 7.91178 15.3789C7.97703 15.4436 8.0937 15.523 8.4595 15.5718C8.84925 15.6237 9.37892 15.6255 10.1945 15.6255H11.0417V4.3755H10.1945C9.37892 4.3755 8.84925 4.37725 8.4595 4.42921C8.0937 4.47805 7.97703 4.55745 7.91178 4.62209C7.84076 4.69256 7.7506 4.82399 7.70427 5.29103C7.65882 5.74899 7.25076 6.0835 6.79281 6.0381C6.33497 5.99255 6.00037 5.58451 6.04573 5.12665C6.10684 4.51065 6.26048 3.91266 6.73828 3.43881C7.16528 3.01547 7.69101 2.85038 8.23975 2.7772C8.76525 2.70715 9.42567 2.70884 10.1945 2.70884H11.0954C11.152 2.2703 11.2802 1.84228 11.6276 1.51336C11.7292 1.41721 11.8417 1.33231 11.9621 1.26108ZM6.20442 7.42319C6.47728 7.05281 6.99845 6.9732 7.36897 7.24578C7.42892 7.29106 7.61163 7.42935 7.71322 7.50864C7.91547 7.66649 8.18782 7.88519 8.46275 8.12388C8.73342 8.35889 9.02592 8.6298 9.257 8.8913C9.37175 9.02114 9.48942 9.16889 9.5825 9.32339C9.66192 9.45514 9.79167 9.69997 9.79167 10.0005C9.79167 10.301 9.66192 10.5459 9.5825 10.6776C9.48942 10.8321 9.37175 10.9799 9.257 11.1097C9.02592 11.3712 8.73342 11.6421 8.46275 11.8771C8.18782 12.1158 7.91548 12.3346 7.71322 12.4924C7.61164 12.5716 7.42896 12.7099 7.36897 12.7552C6.99843 13.0278 6.47728 12.9482 6.20442 12.5778C5.94857 12.2304 6.00198 11.7505 6.3151 11.467C6.3691 11.4262 6.5942 11.252 6.68782 11.1789C6.81057 11.0831 6.95785 10.9636 7.11426 10.8338H2.70833C2.2481 10.8338 1.875 10.4607 1.875 10.0005C1.87506 9.5403 2.24813 9.16714 2.70833 9.16714H7.11426C6.95785 9.03747 6.81057 8.91789 6.68782 8.82214C6.59417 8.74905 6.43496 8.62847 6.38102 8.58772C6.01047 8.3148 5.93151 7.79376 6.20442 7.42319Z"
        fill="#ACACBF" />
</svg>
