<svg width="20" height="20" viewBox="0 0 20 20" fill="none" xmlns="http://www.w3.org/2000/svg">
    <path d="M9.73789 2.70885C9.79306 3.13676 9.79156 3.68348 9.79156 4.33076V15.7195C9.79164 16.3453 9.79164 16.8751 9.73789 17.2922C9.68131 17.7308 9.55306 18.1587 9.20564 18.4876C9.10406 18.5839 8.99156 18.6687 8.87114 18.74C8.45948 18.9835 8.01284 18.9891 7.5756 18.923C7.15909 18.86 6.64849 18.7142 6.04529 18.5419L5.96214 18.5181C5.35439 18.3445 4.85236 18.2011 4.45468 18.0417C4.03613 17.874 3.67862 17.6679 3.38859 17.3402C3.29502 17.2345 3.20984 17.1215 3.13388 17.0025C2.89847 16.6337 2.79857 16.2335 2.7522 15.785C2.70821 15.3595 2.70824 14.8385 2.70825 14.208V5.79307C2.70824 5.16246 2.70821 4.64146 2.7522 4.21602C2.79857 3.76759 2.89847 3.36737 3.13388 2.99857C3.20984 2.87957 3.29502 2.76656 3.38859 2.66084C3.67862 2.33315 4.03613 2.12712 4.45468 1.95934C4.85236 1.79993 5.35439 1.65654 5.96216 1.48294L6.0009 1.47188C6.62348 1.29403 7.14891 1.1425 7.5756 1.07799C8.01284 1.01193 8.45948 1.0176 8.87114 1.2611C8.99156 1.33235 9.10406 1.41719 9.20564 1.51338C9.55306 1.84234 9.68131 2.27024 9.73789 2.70885Z" fill="#ACACBF"/>
    <path d="M14.0403 13.9621C13.5823 13.9167 13.1742 14.2512 13.1288 14.7091C13.0825 15.1765 12.9923 15.3076 12.9213 15.3781C12.8561 15.4427 12.7396 15.5221 12.3736 15.571C11.9837 15.623 11.4543 15.6246 10.6386 15.6246H8.95806C8.49781 15.6246 8.12476 15.9978 8.12476 16.458C8.12476 16.9182 8.49781 17.2913 8.95806 17.2913H10.6386C11.4076 17.2913 12.0677 17.2931 12.5933 17.223C13.1421 17.1498 13.6677 16.9848 14.0948 16.5614C14.5727 16.0875 14.7262 15.4896 14.7873 14.8736C14.8327 14.4156 14.4982 14.0075 14.0403 13.9621ZM8.95806 2.70801C8.49781 2.70801 8.12476 3.08111 8.12476 3.54134C8.12476 4.00159 8.49781 4.37468 8.95806 4.37468H10.6386C11.4543 4.37468 11.9837 4.37642 12.3736 4.42839C12.7396 4.47722 12.8561 4.55662 12.9213 4.62126C12.9923 4.69171 13.0825 4.82289 13.1288 5.29021C13.1742 5.74817 13.5823 6.08267 14.0403 6.03728C14.4982 5.99184 14.8327 5.58378 14.7873 5.12582C14.7262 4.50977 14.5727 3.91186 14.0948 3.43799C13.6677 3.01458 13.1421 2.84954 12.5933 2.77637C12.0677 2.70632 11.4076 2.70801 10.6386 2.70801H8.95806Z" fill="#ACACBF"/>
    <path d="M16.5357 7.24501C16.1652 6.9724 15.6441 7.05199 15.3712 7.42242C15.0982 7.79299 15.1772 8.31404 15.5478 8.58698C15.6017 8.62773 15.7609 8.74823 15.8546 8.82131C15.9773 8.91714 16.1246 9.03673 16.281 9.16639H11.8751C11.4149 9.16639 11.0418 9.53948 11.0417 9.99973C11.0417 10.46 11.4148 10.8331 11.8751 10.8331H16.281C16.1246 10.9627 15.9773 11.0823 15.8546 11.1781C15.7609 11.2512 15.5358 11.4255 15.4819 11.4662C15.1687 11.7497 15.1153 12.2296 15.3712 12.5771C15.6441 12.9475 16.1652 13.0271 16.5357 12.7545C16.5957 12.7091 16.7784 12.5709 16.88 12.4916C17.0822 12.3337 17.3546 12.1151 17.6295 11.8764C17.9002 11.6413 18.1927 11.3705 18.4237 11.109C18.5385 10.9791 18.6562 10.8313 18.7493 10.6768C18.8287 10.5451 18.9584 10.3002 18.9584 9.99973C18.9584 9.69923 18.8287 9.45431 18.7493 9.32264C18.6562 9.16814 18.5385 9.02039 18.4237 8.89048C18.1927 8.62898 17.9002 8.35814 17.6295 8.1231C17.3546 7.8844 17.0822 7.66572 16.88 7.50787C16.7784 7.42859 16.5957 7.29029 16.5357 7.24501Z" fill="#ACACBF"/>
</svg>
