<svg width="39" height="48" viewBox="0 0 39 48" fill="none" xmlns="http://www.w3.org/2000/svg">
    <path fill-rule="evenodd" clip-rule="evenodd" d="M19.3333 0.666504C13.0741 0.666504 8.00001 5.74061 8.00001 11.9998C8.00001 18.2591 13.0741 23.3332 19.3333 23.3332C25.5925 23.3332 30.6667 18.2591 30.6667 11.9998C30.6667 5.74061 25.5925 0.666504 19.3333 0.666504ZM19.3333 27.3332C14.3237 27.3332 9.62918 28.3636 5.67625 30.1657C1.73438 31.9625 9.04469e-06 36.0913 9.04469e-06 39.9209C-0.000124289 41.075 -0.000257224 42.3316 0.115476 43.1924C0.242943 44.1404 0.542782 45.1422 1.36686 45.9662C2.19092 46.7905 3.19286 47.0902 4.14081 47.2177C5.00158 47.3334 6.05972 47.3334 7.21385 47.3332H31.4528C32.6069 47.3334 33.6651 47.3334 34.5259 47.2177C35.4739 47.0902 36.4757 46.7905 37.2997 45.9662C38.124 45.1422 38.4237 44.1404 38.5512 43.1924C38.6669 42.3316 38.6669 41.075 38.6667 39.9209C38.6667 36.0913 36.9323 31.9625 32.9904 30.1657C29.0376 28.3636 24.3429 27.3332 19.3333 27.3332Z" fill="#ACACBF"/>
</svg>
