<svg viewBox="0 0 39 48" xmlns="http://www.w3.org/2000/svg" xmlns:svg="http://www.w3.org/2000/svg">
    <g class="layer">
        <title>Layer 1</title>
        <path clip-rule="evenodd" d="m19.56,0.15c-6.24,0 -11.29,5.17 -11.29,11.55c0,6.38 5.05,11.55 11.29,11.55c6.24,0 11.3,-5.17 11.3,-11.55c0,-6.38 -5.06,-11.55 -11.3,-11.55zm0,27.17c-4.99,0 -9.66,1.05 -13.6,2.89c-3.93,1.82 -5.66,6.03 -5.66,9.94c0,1.18 0,2.46 0.12,3.33c0.12,0.97 0.42,1.99 1.25,2.83c0.82,0.84 1.81,1.14 2.76,1.27c0.86,0.11 1.91,0.11 3.06,0.11l24.15,0c1.16,0 2.21,0 3.07,-0.11c0.94,-0.13 1.94,-0.44 2.76,-1.27c0.82,-0.85 1.12,-1.86 1.25,-2.83c0.12,-0.88 0.12,-2.15 0.12,-3.33c0,-3.9 -1.73,-8.11 -5.66,-9.94c-3.93,-1.84 -8.62,-2.89 -13.61,-2.89z" fill="#ACACBF" fill-rule="evenodd" id="svg_1"/>
    </g>

</svg>