<svg width="108" height="108" viewBox="0 0 108 108" fill="none" xmlns="http://www.w3.org/2000/svg">
    <path fill-rule="evenodd" clip-rule="evenodd" d="M54 0.25C51.194 0.25 48.908 1.43055 46.828 3.0179C44.8795 4.50445 42.7303 6.65375 40.216 9.16835L40.0391 9.3452C37.4658 11.9185 35.2225 12.9313 31.7604 12.9313C31.3265 12.9313 30.7789 12.9159 30.1606 12.8985C28.5755 12.8539 26.5249 12.7962 24.7308 12.9514C22.1064 13.1783 18.8266 13.8965 16.3372 16.4067C13.867 18.8977 13.1664 22.1641 12.9462 24.7719C12.7961 26.5497 12.8538 28.5851 12.8983 30.1589C12.9158 30.7789 12.9314 31.3274 12.9314 31.7603C12.9314 35.2224 11.9186 37.4658 9.3451 40.0392L9.16835 40.216C6.65375 42.7303 4.50445 44.8795 3.0179 46.8275C1.4306 48.908 0.25005 51.194 0.25 54C0.25005 56.8055 1.43065 59.0915 3.0179 61.172C4.50475 63.121 6.65455 65.2705 9.16975 67.7855L9.3453 67.961C11.0136 69.629 11.8005 70.711 12.2466 71.732C12.6809 72.7265 12.9314 73.9855 12.9314 76.2395C12.9314 76.6735 12.916 77.221 12.8986 77.8395C12.854 79.4245 12.7963 81.475 12.9515 83.2695C13.1785 85.8935 13.8967 89.1735 16.4069 91.663C18.8981 94.133 22.1643 94.8335 24.7722 95.0535C26.5499 95.204 28.5851 95.146 30.159 95.1015C30.7791 95.084 31.3275 95.0685 31.7603 95.0685C33.9664 95.0685 35.2063 95.2905 36.1823 95.693C37.1573 96.0955 38.2003 96.816 39.7712 98.387C40.1064 98.722 40.5481 99.1955 41.0576 99.7415C42.2074 100.974 43.7036 102.577 45.1 103.798C47.2185 105.65 50.258 107.75 54 107.75C57.7425 107.75 60.7815 105.65 62.9005 103.798C64.2965 102.577 65.7915 100.975 66.941 99.743C67.451 99.196 67.8935 98.7225 68.229 98.3865C69.7995 96.816 70.8425 96.0955 71.8175 95.693C72.7935 95.2905 74.0335 95.0685 76.2395 95.0685C76.6725 95.0685 77.221 95.084 77.841 95.1015C79.415 95.146 81.45 95.204 83.228 95.0535C85.8355 94.8335 89.102 94.133 91.593 91.663C94.1035 89.1735 94.8215 85.8935 95.0485 83.2695C95.2035 81.475 95.146 79.4245 95.1015 77.8395C95.084 77.2215 95.0685 76.673 95.0685 76.2395C95.0685 73.9855 95.319 72.7265 95.7535 71.732C96.1995 70.711 96.9865 69.629 98.6545 67.961L98.8305 67.7855C101.346 65.2705 103.495 63.121 104.982 61.172C106.569 59.0915 107.75 56.8055 107.75 54C107.75 51.194 106.569 48.908 104.982 46.8275C103.495 44.8795 101.347 42.7304 98.832 40.2161L98.655 40.0392C96.9865 38.3708 96.1995 37.2889 95.7535 36.2677C95.319 35.2734 95.0685 34.0144 95.0685 31.7603C95.0685 31.3267 95.084 30.7796 95.1015 30.1618C95.146 28.5766 95.2035 26.5248 95.0485 24.7308C94.8215 22.1065 94.1035 18.8267 91.5935 16.3374C89.1025 13.867 85.836 13.1663 83.228 12.9461C81.45 12.7959 79.415 12.8536 77.841 12.8982C77.221 12.9157 76.6725 12.9313 76.2395 12.9313C72.7765 12.9313 70.5335 11.9181 67.961 9.3452L67.784 9.1684C65.2695 6.65375 63.1205 4.50445 61.172 3.0179C59.092 1.43055 56.806 0.25 54 0.25ZM71.31 45.9355C73.7595 44.66 74.7105 41.6405 73.435 39.1913C72.1595 36.7422 69.14 35.7908 66.691 37.0664C59.551 40.7851 53.726 47.904 49.877 53.517C48.7925 55.099 47.828 56.616 46.999 57.9865C46.433 57.5075 45.887 57.077 45.383 56.6975C44.3065 55.887 43.3385 55.248 42.6315 54.807L41.3951 54.076L41.3871 54.0715C38.9605 52.7535 35.9249 53.652 34.6069 56.079C33.2892 58.505 34.1888 61.5405 36.6141 62.859C37.3328 63.3135 38.8898 64.3155 39.368 64.686C41.0359 65.942 42.7354 67.5185 43.7664 69.1605C44.735 70.7025 46.4655 71.596 48.2835 71.493C50.101 71.39 51.72 70.3055 52.508 68.6645C52.764 68.1495 53.413 66.876 53.9645 65.9025C54.94 64.148 56.358 61.748 58.124 59.1725C61.775 53.848 66.45 48.467 71.31 45.9355Z" fill="#30BF8F"/>
</svg>
