<svg width="20" height="20" viewBox="0 0 20 20" fill="none" xmlns="http://www.w3.org/2000/svg">
    <path d="M15.6657 2.54158C14.7769 1.65279 13.3359 1.65281 12.447 2.54162L11.2695 3.71913L16.2807 8.73025L17.4583 7.55267C18.3471 6.66387 18.347 5.22288 17.4583 4.3341L15.6657 2.54158Z" fill="white"/>
    <path d="M15.397 9.61417L10.3858 4.60303L3.63174 11.3572C3.05301 11.9359 2.66958 12.681 2.53502 13.4883L1.88351 17.3973C1.85033 17.5963 1.91534 17.7993 2.05807 17.9419C2.20079 18.0847 2.40366 18.1497 2.60276 18.1165L6.51181 17.465C7.31912 17.3304 8.06422 16.947 8.64292 16.3683L15.397 9.61417Z" fill="white"/>
</svg>
