<svg width="20" height="20" viewBox="0 0 20 20" fill="none" xmlns="http://www.w3.org/2000/svg">
    <path
        d="M4.43113 1.07198C4.90337 1.16958 5.27945 1.48686 5.51311 1.90605L6.25746 3.24143C6.53163 3.73326 6.76235 4.14717 6.91303 4.50698C7.07287 4.88865 7.1678 5.26504 7.1244 5.68117C7.081 6.0973 6.91046 6.446 6.67532 6.78649C6.45365 7.10748 6.14248 7.46487 5.77273 7.88956L4.67856 9.14642C4.48249 9.37159 4.38445 9.48417 4.37549 9.62492C4.36653 9.76567 4.44688 9.88592 4.60758 10.1263C5.97724 12.1756 7.82319 14.0222 9.87408 15.393C10.1146 15.5538 10.2347 15.6341 10.3755 15.6251C10.5162 15.6162 10.6289 15.5181 10.8541 15.322L12.111 14.2278C12.5357 13.8581 12.8931 13.5469 13.2141 13.3253C13.5545 13.0901 13.9032 12.9195 14.3193 12.8762C14.7355 12.8328 15.1119 12.9277 15.4936 13.0875C15.8533 13.2382 16.2672 13.4689 16.759 13.743L18.0945 14.4874C18.5137 14.7211 18.831 15.0972 18.9286 15.5694C19.0272 16.0466 18.8817 16.5262 18.5604 16.9204C17.3947 18.3507 15.5269 19.2614 13.5676 18.8662C12.3632 18.6232 11.1749 18.2184 9.73766 17.3942C6.84983 15.738 4.2606 13.1473 2.60637 10.2629C1.7821 8.82567 1.37735 7.63734 1.1344 6.43295C0.739147 4.4736 1.64984 2.60587 3.08015 1.44011C3.47434 1.11883 3.95396 0.973353 4.43113 1.07198Z"
        fill="#ACACBF" />
</svg>
