<svg width="20" height="20" viewBox="0 0 20 20" fill="none" xmlns="http://www.w3.org/2000/svg">
    <g clip-path="url(#clip0_2514_19028)">
        <path d="M9.99564 2.50016C5.85627 2.50016 2.49992 5.85762 2.49992 10.0002C2.49992 12.9678 4.22242 15.5342 6.72503 16.7507C7.13896 16.9518 7.31142 17.4505 7.11023 17.8644C6.90904 18.2784 6.41038 18.4508 5.99644 18.2497C2.94162 16.7648 0.833252 13.6295 0.833252 10.0002C0.833252 4.93795 4.93499 0.833496 9.99564 0.833496C11.8108 0.833496 13.5031 1.36205 14.9263 2.27285L15.9391 1.26014C16.1169 1.06658 16.3541 0.833496 16.6666 0.833496C17.1268 0.833496 17.4999 1.2066 17.4999 1.66683V4.27699C17.4999 5.29405 16.2356 5.75993 15.5759 4.99253C14.2024 3.46132 12.2117 2.50016 9.99564 2.50016Z" fill="#20203F"/>
        <path fill-rule="evenodd" clip-rule="evenodd" d="M17.8851 6.42184C18.328 6.29652 18.7886 6.55393 18.9139 6.99677C19.0165 7.35942 19.097 7.72564 19.156 8.09354C19.2289 8.548 18.9196 8.9755 18.4652 9.04841C18.0108 9.12133 17.5833 8.812 17.5104 8.35758C17.4615 8.05275 17.3949 7.74992 17.3102 7.4506C17.1849 7.00775 17.4423 6.54715 17.8851 6.42184ZM18.4486 10.4624C18.9019 10.5421 19.2048 10.9741 19.1251 11.4274C19.0614 11.7898 18.9785 12.1486 18.8771 12.5018C18.75 12.9442 18.2884 13.1998 17.8461 13.0727C17.4036 12.9457 17.1481 12.4841 17.2751 12.0417C17.3605 11.7447 17.4301 11.4432 17.4836 11.1389C17.5633 10.6856 17.9953 10.3827 18.4486 10.4624ZM17.2716 14.3074C17.6532 14.5647 17.754 15.0827 17.4966 15.4642C17.2806 15.7847 17.0461 16.0934 16.7941 16.3883C16.4951 16.7382 15.9691 16.7795 15.6192 16.4805C15.2693 16.1815 15.2281 15.6555 15.5271 15.3056C15.7376 15.0593 15.9337 14.801 16.1148 14.5324C16.3721 14.1508 16.8901 14.0501 17.2716 14.3074ZM14.5326 17.3881C14.7612 17.7875 14.6227 18.2967 14.2233 18.5252C13.9003 18.7102 13.564 18.8775 13.2151 19.0255C12.7914 19.2052 12.3022 19.0075 12.1225 18.5838C11.9427 18.1602 12.1405 17.671 12.5641 17.4912C12.8517 17.3692 13.129 17.2312 13.3954 17.0787C13.7948 16.8502 14.304 16.9887 14.5326 17.3881ZM8.248 18.1474C8.30929 17.6912 8.72872 17.3712 9.18489 17.4325C9.52322 17.4779 9.86905 17.5015 10.2209 17.5015C10.6811 17.5015 11.0542 17.8746 11.0542 18.3348C11.0542 18.795 10.6811 19.1682 10.2209 19.1682C9.79464 19.1682 9.37464 19.1396 8.96297 19.0843C8.50681 19.023 8.18671 18.6036 8.248 18.1474Z" fill="#20203F"/>
    </g>
    <defs>
        <clipPath id="clip0_2514_19028">
            <rect width="20" height="20" fill="white"/>
        </clipPath>
    </defs>
</svg>
