<svg width="20" height="20" viewBox="0 0 20 20" fill="none" xmlns="http://www.w3.org/2000/svg">
    <path d="M2.64332 8.60342C2.92717 8.25405 3.42398 7.6426 4.3031 7.7137C4.60119 7.7378 4.88578 7.86805 5.1882 8.00645C5.41545 8.10949 5.76258 8.26717 5.94015 8.42159C6.45921 8.873 6.45871 9.46884 6.45843 9.81334V13.5197C6.45871 13.8642 6.45921 14.46 5.94015 14.9114C5.76258 15.0658 5.53998 15.1668 5.31274 15.2698C5.01031 15.4082 4.60119 15.5952 4.3031 15.6193C3.4322 15.6898 2.94438 15.0957 2.65779 14.7467C2.58515 14.6584 2.47234 14.5263 2.37576 14.4144C2.1992 14.2098 1.99876 13.9776 1.83346 13.7613C1.56041 13.4039 1.28681 12.9758 1.1509 12.4783C1.00536 11.9455 1.00536 11.3875 1.1509 10.8548C1.24951 10.4938 1.42796 10.1752 1.66351 9.84075C1.89161 9.51692 2.26331 9.06492 2.64332 8.60342Z" fill="#ACACBF"/>
    <path d="M17.3568 8.60342C17.073 8.25405 16.5763 7.6426 15.6971 7.7137C15.399 7.7378 15.1144 7.86805 14.812 8.00645C14.5848 8.10949 14.2376 8.26717 14.0601 8.42159C13.541 8.873 13.5415 9.46884 13.5418 9.81334V13.5197C13.5415 13.8642 13.541 14.46 14.0601 14.9114C14.2376 15.0658 14.4603 15.1668 14.6874 15.2698C14.9899 15.4082 15.399 15.5952 15.6971 15.6193C16.568 15.6898 17.0558 15.0957 17.3424 14.7467C17.415 14.6584 17.5278 14.5263 17.6244 14.4144C17.801 14.2098 18.0014 13.9776 18.1668 13.7613C18.4398 13.4039 18.7134 12.9758 18.8493 12.4783C18.9948 11.9455 18.9948 11.3875 18.8493 10.8548C18.7507 10.4938 18.5723 10.1752 18.3367 9.84075C18.1086 9.51692 17.7369 9.06492 17.3568 8.60342Z" fill="#ACACBF"/>
    <path fill-rule="evenodd" clip-rule="evenodd" d="M9.99992 2.62929C6.76274 2.62929 4.32862 4.8575 4.32862 7.3912V8.58166C4.32862 9.01999 3.96589 9.37533 3.51844 9.37533C3.07099 9.37533 2.70825 9.01999 2.70825 8.58166V7.3912C2.70825 3.7884 6.07784 1.04199 9.99992 1.04199C13.922 1.04199 17.2916 3.7884 17.2916 7.3912V8.58166C17.2916 9.01999 16.9288 9.37533 16.4814 9.37533C16.0339 9.37533 15.6713 9.01999 15.6713 8.58166V7.3912C15.6713 4.8575 13.2371 2.62929 9.99992 2.62929Z" fill="#ACACBF"/>
    <path fill-rule="evenodd" clip-rule="evenodd" d="M14.2428 17.0358C13.2188 17.4089 11.7992 17.4195 10.1667 17.4195C9.72942 17.4195 9.375 17.7639 9.375 18.1888C9.375 18.6136 9.72942 18.958 10.1667 18.958C10.1982 18.958 10.2298 18.958 10.2615 18.958C11.7723 18.9582 13.4756 18.9584 14.7988 18.4763C15.5025 18.2199 16.1466 17.8129 16.6069 17.1658C17.0665 16.5199 17.2917 15.7071 17.2917 14.7273C17.2917 14.3024 16.9372 13.958 16.5 13.958C16.0627 13.958 15.7083 14.3024 15.7083 14.7273C15.7083 15.4782 15.5377 15.9633 15.3045 16.291C15.0722 16.6175 14.7267 16.8595 14.2428 17.0358Z" fill="#ACACBF"/>
</svg>
