<svg width="25" height="24" viewBox="0 0 25 24" fill="none" xmlns="http://www.w3.org/2000/svg">
    <path d="M16.5583 4.38394C15.9673 4.38394 15.6717 4.38394 15.4025 4.28405C15.3651 4.27017 15.3283 4.25491 15.292 4.23828C15.031 4.11855 14.8221 3.90959 14.4041 3.49167C13.4422 2.52977 12.9613 2.04882 12.3695 2.00447C12.29 1.99851 12.21 1.99851 12.1305 2.00447C11.5387 2.04882 11.0577 2.52977 10.0958 3.49166C9.67793 3.90959 9.46897 4.11855 9.20797 4.23828C9.17172 4.25491 9.13486 4.27017 9.09747 4.28405C8.82825 4.38394 8.53273 4.38394 7.94171 4.38394H7.83269C6.32478 4.38394 5.57083 4.38394 5.10239 4.85239C4.63394 5.32083 4.63394 6.07478 4.63394 7.58269V7.69171C4.63394 8.28273 4.63394 8.57825 4.53405 8.84747C4.52017 8.88486 4.50491 8.92172 4.48828 8.95797C4.36855 9.21897 4.15959 9.42793 3.74166 9.84585C2.77977 10.8077 2.29882 11.2887 2.25447 11.8805C2.24851 11.96 2.24851 12.04 2.25447 12.1195C2.29882 12.7113 2.77977 13.1922 3.74166 14.1541C4.15959 14.5721 4.36855 14.781 4.48828 15.042C4.50491 15.0783 4.52017 15.1151 4.53405 15.1525C4.63394 15.4217 4.63394 15.7173 4.63394 16.3083V16.4173C4.63394 17.9252 4.63394 18.6792 5.10239 19.1476C5.57083 19.6161 6.32478 19.6161 7.83269 19.6161H7.94171C8.53273 19.6161 8.82825 19.6161 9.09747 19.7159C9.13486 19.7298 9.17172 19.7451 9.20797 19.7617C9.46897 19.8815 9.67793 20.0904 10.0958 20.5083C11.0577 21.4702 11.5387 21.9512 12.1305 21.9955C12.21 22.0015 12.29 22.0015 12.3695 21.9955C12.9613 21.9512 13.4422 21.4702 14.4041 20.5083C14.8221 20.0904 15.031 19.8815 15.292 19.7617C15.3283 19.7451 15.3651 19.7298 15.4025 19.7159C15.6717 19.6161 15.9673 19.6161 16.5583 19.6161H16.6673C18.1752 19.6161 18.9292 19.6161 19.3976 19.1476C19.8661 18.6792 19.8661 17.9252 19.8661 16.4173V16.3083C19.8661 15.7173 19.8661 15.4217 19.9659 15.1525C19.9798 15.1151 19.9951 15.0783 20.0117 15.042C20.1315 14.781 20.3404 14.5721 20.7583 14.1541C21.7202 13.1922 22.2012 12.7113 22.2455 12.1195C22.2515 12.04 22.2515 11.96 22.2455 11.8805C22.2012 11.2887 21.7202 10.8077 20.7583 9.84585C20.3404 9.42793 20.1315 9.21897 20.0117 8.95797C19.9951 8.92172 19.9798 8.88486 19.9659 8.84747C19.8661 8.57825 19.8661 8.28273 19.8661 7.69171V7.58269C19.8661 6.07478 19.8661 5.32083 19.3976 4.85239C18.9292 4.38394 18.1752 4.38394 16.6673 4.38394H16.5583Z" stroke="#5C5C66" stroke-width="1.5"/>
    <path d="M8.75 16.5C9.44863 15.2923 10.7544 14.4797 12.25 14.4797C13.7456 14.4797 15.0514 15.2923 15.75 16.5M14.25 9.99999C14.25 11.1046 13.3546 12 12.25 12C11.1455 12 10.25 11.1046 10.25 9.99999C10.25 8.89543 11.1455 8 12.25 8C13.3546 8 14.25 8.89543 14.25 9.99999Z" stroke="#5C5C66" stroke-width="1.5" stroke-linecap="round"/>
</svg>
